<svg width="65" height="65" viewBox="0 0 65 65" fill="none" xmlns="http://www.w3.org/2000/svg">
<path d="M48.3564 63.1257C48.3564 63.6779 47.9046 64.1298 47.3523 64.1298H16.8986C16.3464 64.1298 15.8945 63.6779 15.8945 63.1257C15.8945 59.2399 19.0574 56.0771 22.9331 56.0771H24.1481V53.105H40.1029V56.0771H41.3178C45.1936 56.0771 48.3564 59.2399 48.3564 63.1257Z" fill="#1F5AA6"/>
<path d="M52.1912 19.5709C53.1414 19.0231 53.487 17.7994 52.9256 16.8284C52.3723 15.8694 51.1403 15.5404 50.1835 16.094C49.2228 16.6478 48.8936 17.8753 49.4486 18.8361C50.0098 19.8067 51.2424 20.1206 52.1912 19.5709Z" fill="#1F5AA6"/>
<path d="M15.738 34.8404C15.7351 34.8354 15.7355 34.8297 15.7328 34.8247C15.1738 33.8695 13.9539 33.5494 12.9984 34.1006V34.1011C12.0394 34.6547 11.71 35.8848 12.2635 36.8432C12.8166 37.8017 14.0457 38.1307 15.0061 37.5781C15.9583 37.0282 16.2877 35.8106 15.7492 34.8549C15.7461 34.8495 15.7412 34.8457 15.738 34.8404Z" fill="#1F5AA6"/>
<path d="M12.383 19.9355C13.4918 19.9355 14.3906 19.0367 14.3906 17.928C14.3906 16.8192 13.4918 15.9204 12.383 15.9204C11.2743 15.9204 10.3755 16.8192 10.3755 17.928C10.3755 19.0367 11.2743 19.9355 12.383 19.9355Z" fill="#1F5AA6"/>
<path d="M32.8514 45.0446C33.9605 45.0446 34.8596 44.1456 34.8596 43.0365C34.8596 41.9274 33.9605 41.0283 32.8514 41.0283C31.7423 41.0283 30.8433 41.9274 30.8433 43.0365C30.8433 44.1456 31.7423 45.0446 32.8514 45.0446Z" fill="#1F5AA6"/>
<path d="M34.3856 9.93673C35.4947 9.93673 36.3938 9.03764 36.3938 7.92857C36.3938 6.81949 35.4947 5.92041 34.3856 5.92041C33.2765 5.92041 32.3774 6.81949 32.3774 7.92857C32.3774 9.03764 33.2765 9.93673 34.3856 9.93673Z" fill="#1F5AA6"/>
<path d="M56.851 0.129883H7.40006C3.31346 0.129883 0 3.44334 0 7.52995V43.6969C0 47.7734 3.31346 51.0969 7.40006 51.0969H56.851C60.9376 51.0969 64.2611 47.7734 64.2611 43.6969V7.52995C64.2611 3.44334 60.9376 0.129883 56.851 0.129883ZM50.548 39.3176V39.3171C48.9345 38.3856 48.2274 36.497 48.6983 34.7786L45.3758 32.8566C44.4295 33.5643 43.2597 33.9888 41.9897 33.9888H33.8575V39.1638C35.5839 39.6135 36.8678 41.1717 36.8678 43.0369C36.8678 45.2515 35.0661 47.0532 32.8515 47.0532C30.6369 47.0532 28.8351 45.2515 28.8351 43.0369C28.8351 41.1703 30.121 39.611 31.8494 39.1626V33.9889H23.7212C22.6187 33.9889 21.5921 33.6686 20.72 33.1238L17.859 34.7756C18.3315 36.4948 17.6245 38.3851 16.01 39.3172C14.0853 40.4292 11.6264 39.7569 10.5244 37.8473C9.41505 35.9257 10.0716 33.4715 11.9942 32.3616C13.5358 31.4734 15.5207 31.6706 16.857 33.0349L19.1715 31.6985C18.4647 30.7529 18.0408 29.5848 18.0408 28.3169C18.0408 26.4587 18.9616 24.7708 20.4078 23.7247C18.8016 22.7974 16.4285 21.4274 15.2331 20.7374C13.89 22.1042 11.9042 22.2906 10.3748 21.406C8.45565 20.299 7.79356 17.8471 8.90448 15.9208C10.0115 14.0028 12.4722 13.3445 14.3907 14.4505V14.451C16.0067 15.384 16.7138 17.277 16.2385 18.9976C18.7147 20.4231 20.3577 21.3719 21.4365 22.0183C21.8048 18.1794 25.0222 15.3134 28.8022 15.3134C30.4956 15.3134 32.0998 15.9003 33.3857 16.9165V11.804C31.6562 11.3565 30.3691 9.79635 30.3691 7.92897C30.3691 5.71437 32.1708 3.91265 34.3854 3.91265C36.6 3.91265 38.4017 5.71437 38.4017 7.92897C38.4017 9.79314 37.1189 11.3507 35.3939 11.8013V18.09C36.8196 17.699 38.3563 17.9308 39.6691 18.788C40.8646 19.5698 41.6504 20.7271 41.9247 22.0188L47.3301 18.898C46.8227 17.0722 47.6284 15.2498 49.1793 14.3545C51.0977 13.2489 53.5579 13.9064 54.665 15.8243C55.7747 17.7466 55.1174 20.2007 53.1951 21.3105C51.6736 22.1882 49.6838 22.0158 48.3336 20.6379L44.1194 23.0709C44.6366 23.2794 45.1291 23.5511 45.5688 23.9099C46.8989 24.9949 47.6618 26.601 47.6618 28.317C47.6618 29.4315 47.3341 30.4689 46.7765 31.3467L49.6986 33.0371C50.1957 32.5288 50.8114 32.1495 51.5164 31.9607C53.6587 31.3871 55.8605 32.6556 56.4348 34.8003C57.3649 38.2715 53.6148 41.0857 50.548 39.3176Z" fill="#1F5AA6"/>
<path d="M52.0363 33.8997C50.3136 34.361 50.0137 36.6894 51.552 37.5777C53.0915 38.4645 54.9569 37.0428 54.4951 35.3196C54.2083 34.2482 53.109 33.6135 52.0363 33.8997Z" fill="#1F5AA6"/>
<path d="M41.1721 24.7327C40.85 24.7989 40.5102 24.7009 40.2714 24.4699C40.0332 24.2385 39.9243 23.9046 39.9811 23.5771C40.2327 22.1298 39.4174 21.0223 38.5706 20.4688C36.0407 18.8147 34.2006 21.8009 33.4621 20.0121C32.4975 18.3518 30.7264 17.3213 28.8024 17.3213C25.5761 17.3213 23.0241 20.1631 23.4578 23.437C23.5419 23.5646 23.5482 23.668 23.5482 23.7973C23.5487 24.1562 23.3579 24.4881 23.0472 24.6675C22.961 24.7173 22.8671 24.7485 22.7705 24.7692C22.7648 24.7709 22.7607 24.7753 22.7549 24.7769C21.162 25.2107 20.0491 26.6664 20.0491 28.3167C20.0491 30.3371 21.6964 31.9804 23.7212 31.9804H41.9897C44.0101 31.9804 45.654 30.3371 45.654 28.3167C45.654 27.2066 45.1603 26.1678 44.2999 25.4657C43.4318 24.7572 42.3203 24.4973 41.1721 24.7327Z" fill="#1F5AA6"/>
</svg>
