<svg width="67" height="64" viewBox="0 0 67 64" fill="none" xmlns="http://www.w3.org/2000/svg">
<path d="M0 23.7111H11.8444V28.4444H0V52.1556H10.6667V59.2667H2.37778V64H64V59.2667H55.7111V52.1556H66.3778V28.4444H56.8889V23.7111H66.3778V0H0V23.7111ZM9.46667 42.6667V37.9333H28.4222V42.6667H9.46667ZM50.9556 59.2667H15.4V52.1556H50.9556V59.2667ZM42.6667 42.6667V37.9333H47.4V42.6667H42.6667ZM56.8889 42.6667H52.1556V37.9333H56.8889V42.6667ZM52.1333 9.46667H56.8667V14.2222H52.1333V9.46667ZM52.1333 28.4444H16.5778V23.7111H52.1333V28.4444ZM42.6667 9.46667H47.4V14.2222H42.6667V9.46667ZM9.46667 9.46667H28.4222V14.2222H9.46667V9.46667Z" fill="#1F5AA6"/>
</svg>
