<svg width="82" height="65" viewBox="0 0 82 65" fill="none" xmlns="http://www.w3.org/2000/svg">
<path d="M0.5 55.9667H28.2333L25.0333 60.2333H19.7V64.5H62.3667V60.2333H57.0333L53.8333 55.9667H81.5667V0.5H0.5V55.9667ZM51.7 60.2333H30.3667L33.5667 55.9667H48.5L51.7 60.2333ZM4.76667 4.76667H77.3V51.7H4.76667V4.76667Z" fill="#1F5AA6"/>
<path d="M28.2334 9.0332C17.5668 9.0332 9.03345 17.5665 9.03345 28.2332C9.03345 38.8999 17.5668 47.4332 28.2334 47.4332C38.9001 47.4332 47.4334 38.8999 47.4334 28.2332C47.4334 17.5665 38.9001 9.0332 28.2334 9.0332ZM28.2334 43.1665C20.7668 43.1665 14.5801 37.6199 13.5134 30.3665H15.4334V26.0999H13.5134C13.9401 23.5399 14.7934 21.1932 16.2868 19.2732L17.5668 20.5532L20.5534 17.5665L19.2734 16.2865C21.1934 14.7932 23.5401 13.7265 26.1001 13.5132V15.4332H30.3668V13.5132C32.9268 13.9399 35.2735 14.7932 37.1935 16.2865L35.7001 17.5665L38.6868 20.5532L39.9668 19.2732C41.4601 21.1932 42.5268 23.5399 42.7401 26.0999H40.8201V30.3665H42.7401C41.8868 37.6199 35.7001 43.1665 28.2334 43.1665Z" fill="#1F5AA6"/>
<path d="M28.2329 23.966C27.8063 23.966 27.5929 23.966 27.1663 24.1794L23.3263 20.3394L20.3396 23.326L24.1796 27.166C24.1796 27.5927 23.9663 27.806 23.9663 28.2327C23.9663 30.5794 25.8863 32.4994 28.2329 32.4994C30.5796 32.4994 32.4996 30.5794 32.4996 28.2327C32.4996 25.886 30.5796 23.966 28.2329 23.966Z" fill="#1F5AA6"/>
<path d="M49.5667 13.2999H68.7667V43.1665H49.5667V47.4332H73.0333V9.0332H49.5667V13.2999Z" fill="#1F5AA6"/>
<path d="M60.2333 26.1001H51.7V30.3668H60.2333V26.1001Z" fill="#1F5AA6"/>
</svg>
