<svg width="70" height="65" viewBox="0 0 70 65" fill="none" xmlns="http://www.w3.org/2000/svg">
<g clip-path="url(#clip0)">
<path d="M61.37 32.5H8.366C3.746 32.5 0 36.242 0 40.862V50.79C0 55.244 3.498 58.854 7.898 59.103V60.937C7.89747 61.4704 8.00207 61.9987 8.2058 62.4917C8.40954 62.9847 8.70843 63.4327 9.08538 63.8101C9.46233 64.1875 9.90996 64.4869 10.4027 64.6913C10.8954 64.8956 11.4236 65.0009 11.957 65.001C14.197 65.001 16.021 63.181 16.021 60.937V59.152H53.716V60.937C53.716 62.0147 54.144 63.0482 54.906 63.8103C55.6679 64.5725 56.7013 65.0007 57.779 65.001C60.019 65.001 61.839 63.181 61.839 60.937V59.103C66.234 58.854 69.727 55.244 69.727 50.79V40.862C69.7282 39.764 69.5129 38.6765 69.0934 37.6618C68.6739 36.647 68.0584 35.725 67.2822 34.9483C66.506 34.1717 65.5843 33.5556 64.5699 33.1355C63.5554 32.7154 62.468 32.4995 61.37 32.5V32.5ZM39.359 48.272H32.827V43.374H39.359V48.272V48.272ZM49.418 48.272H42.896V43.374H49.418V48.272V48.272ZM59.478 48.272H52.955V43.374H59.477V48.272H59.478Z" fill="#1F5AA6"/>
<path d="M61.371 1.50019e-06H8.36701C3.74701 1.50019e-06 0.00100708 3.742 0.00100708 8.362V18.29C0.00100708 22.744 3.49901 26.354 7.89901 26.603V28.437C7.89848 28.9704 8.00308 29.4987 8.20681 29.9917C8.41055 30.4847 8.70943 30.9327 9.08638 31.3101C9.46334 31.6875 9.91097 31.9869 10.4037 32.1913C10.8964 32.3956 11.4246 32.5009 11.958 32.501C14.198 32.501 16.022 30.681 16.022 28.437V26.652H53.717V28.437C53.717 29.5148 54.1452 30.5485 54.9073 31.3107C55.6695 32.0728 56.7032 32.501 57.781 32.501C60.02 32.501 61.839 30.681 61.839 28.437V26.603C66.235 26.354 69.728 22.744 69.728 18.289V8.363C69.7293 7.26481 69.5141 6.17713 69.0946 5.16222C68.6751 4.14731 68.0595 3.22508 67.2832 2.4483C66.5069 1.67153 65.5851 1.05546 64.5704 0.635354C63.5557 0.215246 62.4682 -0.000656652 61.37 1.50019e-06H61.371ZM39.359 15.772H32.827V10.874H39.359V15.772V15.772ZM49.419 15.772H42.896V10.874H49.419V15.772V15.772ZM59.478 15.772H52.955V10.874H59.478V15.772V15.772Z" fill="#1F5AA6"/>
</g>
<defs>
<clipPath id="clip0">
<rect width="70" height="65" fill="white"/>
</clipPath>
</defs>
</svg>
