<?xml version="1.0" encoding="utf-8"?>
<!-- Generator: Adobe Illustrator 16.0.0, SVG Export Plug-In . SVG Version: 6.00 Build 0)  -->
<!DOCTYPE svg PUBLIC "-//W3C//DTD SVG 1.1//EN" "http://www.w3.org/Graphics/SVG/1.1/DTD/svg11.dtd">
<svg version="1.1" id="Layer_1" xmlns="http://www.w3.org/2000/svg" xmlns:xlink="http://www.w3.org/1999/xlink" x="0px" y="0px"
	 width="43px" height="43px" viewBox="604.336 202.132 33.025 33.133"
	 style="enable-background:new 604.336 202.132 33.025 33.133;" xml:space="preserve">

<g>
	<path style="fill:#FFFFFF;" d="M605.418,232.897c-0.343,0-0.617,0.276-0.617,0.617s0.275,0.618,0.617,0.618h30.867
		c0.342,0,0.617-0.277,0.617-0.618s-0.275-0.617-0.617-0.617h-2.087l-0.617-1.233h2.088c0.682,0,1.233-0.554,1.233-1.235v-9.878
		c0-0.682-0.553-1.234-1.233-1.234h-1.235v-1.234h1.235c0.682,0,1.233-0.553,1.233-1.233v-2.785
		c-0.203,0.144-0.407,0.272-0.617,0.396c-0.21,0.125-0.4,0.224-0.616,0.321c-3.057,1.446-6.675,0.979-9.262-1.198v0.797h-1.233
		v-2.073c-1.202-1.519-1.854-3.397-1.854-5.334c0-0.413,0.031-0.826,0.093-1.235h-17.379c-0.682,0-1.233,0.553-1.233,1.235v9.878
		c0,0.682,0.553,1.234,1.233,1.234h1.234v1.233h-1.234c-0.682,0-1.233,0.554-1.233,1.235v9.878c0,0.682,0.553,1.233,1.233,1.233
		h2.087l-0.616,1.235L605.418,232.897L605.418,232.897z M608.887,232.897l0.617-1.233h22.693l0.617,1.233H608.887z M614.677,225.489
		c0-1.704,1.383-3.087,3.087-3.087c1.705,0,3.087,1.383,3.087,3.087c0,1.705-1.382,3.087-3.087,3.087
		C616.06,228.576,614.677,227.194,614.677,225.489z M622.704,227.958v-4.939h1.234v4.939H622.704z M625.174,227.958v-3.705h1.233
		v3.705H625.174z M627.642,227.958v-4.321h1.235v4.321H627.642z M630.112,227.958v-4.939h1.234v4.939H630.112z M633.816,227.958
		h-1.234v-2.471h1.234V227.958z M633.199,218.082v1.233h-24.693v-1.233H633.199z M622.704,210.671h1.234v3.705h-1.234V210.671z
		 M617.764,208.82c1.705,0,3.087,1.383,3.087,3.088c0,1.704-1.382,3.086-3.087,3.086c-1.704,0-3.087-1.382-3.087-3.086
		C614.677,210.203,616.06,208.82,617.764,208.82z M610.356,208.82c1.705,0,3.087,1.383,3.087,3.088c0,1.704-1.382,3.086-3.087,3.086
		s-3.087-1.382-3.087-3.086C607.269,210.203,608.651,208.82,610.356,208.82z M607.269,225.489c0-1.704,1.382-3.087,3.087-3.087
		s3.087,1.383,3.087,3.087c0,1.705-1.382,3.087-3.087,3.087S607.269,227.194,607.269,225.489z"/>
	<path style="fill:#FFFFFF;" d="M623.821,204.08c0.097-0.279,0.207-0.551,0.333-0.814h-14.648c-0.469-0.001-0.896,0.262-1.105,0.679
		l-0.277,0.556h15.559C623.722,204.357,623.772,204.214,623.821,204.08z"/>
	<path style="fill:#FFFFFF;" d="M610.356,227.341c1.023,0,1.854-0.829,1.854-1.854c0-1.021-0.829-1.852-1.854-1.852
		c-1.021,0-1.852,0.828-1.852,1.852C608.505,226.512,609.333,227.341,610.356,227.341z M609.739,224.873h1.234v1.233h-1.234V224.873
		z"/>
	<path style="fill:#FFFFFF;" d="M619.617,225.489c0-1.022-0.829-1.852-1.853-1.852c-1.022,0-1.853,0.829-1.853,1.852
		c0,1.023,0.829,1.853,1.853,1.853S619.617,226.512,619.617,225.489z M617.147,224.873h1.235v1.233h-1.235V224.873z"/>
	<path style="fill:#FFFFFF;" d="M610.356,213.759c1.023,0,1.854-0.829,1.854-1.854c0-1.021-0.829-1.852-1.854-1.852
		c-1.021,0-1.852,0.828-1.852,1.852C608.505,212.93,609.333,213.759,610.356,213.759z M609.739,211.291h1.234v1.233h-1.234V211.291z
		"/>
	<path style="fill:#FFFFFF;" d="M617.764,213.759c1.022,0,1.853-0.829,1.853-1.854c0-1.021-0.829-1.852-1.853-1.852
		c-1.022,0-1.853,0.828-1.853,1.852C615.913,212.93,616.742,213.759,617.764,213.759z M617.147,211.291h1.235v1.233h-1.235V211.291z
		"/>
	<polygon style="fill:#FFFFFF;" points="630.026,203.614 628.736,206.417 633.192,206.417 631.902,203.614 	"/>
	<polygon style="fill:#FFFFFF;" points="630.586,213.759 628.094,206.986 625.821,206.986 	"/>
	<polygon style="fill:#FFFFFF;" points="630.964,213.143 633.228,206.986 628.7,206.986 	"/>
	<polygon style="fill:#FFFFFF;" points="636.088,206.417 633.932,203.614 632.528,203.614 633.817,206.417 	"/>
	<polygon style="fill:#FFFFFF;" points="633.833,206.986 631.343,213.761 636.107,206.986 	"/>
	<polygon style="fill:#FFFFFF;" points="625.84,206.417 628.111,206.417 629.4,203.614 627.996,203.614 	"/>
	<polygon style="fill:#FFFFFF;" points="625.648,204.296 625.933,203.5 626.731,203.214 625.933,202.93 625.648,202.132 
		625.364,202.93 624.565,203.214 625.364,203.5 	"/>
	<polygon style="fill:#FFFFFF;" points="636.279,209.099 635.995,209.898 635.196,210.182 635.995,210.466 636.279,211.265 
		636.564,210.466 637.362,210.182 636.564,209.898 	"/>
	<polygon style="fill:#FFFFFF;" points="634.179,213.561 633.895,212.762 633.611,213.561 632.812,213.845 633.611,214.128 
		633.895,214.928 634.179,214.128 634.978,213.845 	"/>
</g>
</svg>
