<?xml version="1.0" encoding="utf-8"?>
<!-- Generator: Adobe Illustrator 16.0.0, SVG Export Plug-In . SVG Version: 6.00 Build 0)  -->
<!DOCTYPE svg PUBLIC "-//W3C//DTD SVG 1.1//EN" "http://www.w3.org/Graphics/SVG/1.1/DTD/svg11.dtd">
<svg version="1.1" id="Layer_1" xmlns="http://www.w3.org/2000/svg" xmlns:xlink="http://www.w3.org/1999/xlink" x="0px" y="0px"
	 width="43px" height="43px" viewBox="249.946 134.931 361.604 386.336"
	 enable-background="new 249.946 134.931 361.604 386.336" xml:space="preserve">
<rect x="404.776" y="222.647" fill="#1F5AA6" width="15.15" height="18.436"/>
<path fill="#1F5AA6" d="M560.012,340.63H264.69c-8.19,0-14.744,6.554-14.744,14.745v51.611c-0.002,8.19,6.554,14.745,14.744,14.745
	h295.322c8.19,0,14.746-6.555,14.746-14.745v-51.611C574.758,347.184,568.202,340.63,560.012,340.63z"/>
<path fill="#1F5AA6" d="M560.012,440.167H264.69c-8.19,0-14.744,6.554-14.744,14.745v51.611c-0.002,8.19,6.554,14.744,14.744,14.744
	h295.322c8.19,0,14.746-6.554,14.746-14.744v-51.611C574.758,446.721,568.202,440.167,560.012,440.167z"/>
<path fill="#1F5AA6" d="M543.219,281.638c-29.9,0-56.115-16.388-70.043-40.556H264.69c-8.19,0-14.746,6.556-14.744,14.748v51.613
	c0,8.191,6.554,14.746,14.744,14.746h295.322c8.19,0,14.746-6.555,14.746-14.746v-32.361
	C564.928,279.179,554.278,281.638,543.219,281.638z"/>
<path fill="#1F5AA6" d="M488.741,141.542H264.69c-8.19,0-14.746,6.963-14.744,14.746v51.611c0,8.194,6.554,14.748,14.744,14.748
	h200.705c-1.639-6.963-2.867-14.336-2.867-21.709C462.528,177.588,472.768,156.288,488.741,141.542z"/>
<rect x="404.776" y="322.19" fill="#1F5AA6" width="15.15" height="18.436"/>
<rect x="404.776" y="421.732" fill="#1F5AA6" width="15.15" height="18.436"/>
<path fill="#FFFFFF" d="M297.503,201.292c10.604,0,19.199-8.596,19.199-19.199c0-10.602-8.597-19.197-19.199-19.197
	c-10.604,0-19.2,8.596-19.2,19.197C278.303,192.697,286.9,201.292,297.503,201.292z M291.103,175.693h12.801v12.801h-12.801V175.693
	z"/>
<path fill="#FFFFFF" d="M379.004,182.095c0-10.604-8.599-19.199-19.201-19.199c-10.602,0-19.199,8.596-19.199,19.199
	s8.599,19.197,19.199,19.197C370.408,201.294,379.004,192.699,379.004,182.095z M353.405,175.695h12.8v12.801h-12.8V175.695z"/>
<path fill="#FFFFFF" d="M297.503,300.834c10.604,0,19.199-8.597,19.199-19.199c0-10.602-8.597-19.196-19.199-19.196
	c-10.604,0-19.2,8.596-19.2,19.196C278.303,292.239,286.9,300.834,297.503,300.834z M291.103,275.235h12.801v12.801h-12.801V275.235
	z"/>
<path fill="#FFFFFF" d="M379.004,281.638c0-10.604-8.599-19.199-19.201-19.199c-10.602,0-19.199,8.596-19.199,19.199
	c0,10.603,8.599,19.196,19.199,19.196C370.408,300.836,379.004,292.241,379.004,281.638z M353.405,275.237h12.8v12.801h-12.8
	V275.237z"/>
<path fill="#FFFFFF" d="M297.503,400.379c10.604,0,19.199-8.596,19.199-19.199c0-10.602-8.597-19.196-19.199-19.196
	c-10.604,0-19.2,8.596-19.2,19.196C278.303,391.784,286.9,400.379,297.503,400.379z M291.103,374.78h12.801v12.801h-12.801V374.78z"
	/>
<path fill="#FFFFFF" d="M379.004,381.182c0-10.604-8.599-19.198-19.201-19.198c-10.602,0-19.199,8.596-19.199,19.198
	c0,10.604,8.599,19.197,19.199,19.197C370.408,400.381,379.004,391.786,379.004,381.182z M353.405,374.782h12.8v12.801h-12.8
	V374.782z"/>
<path fill="#FFFFFF" d="M297.503,499.917c10.604,0,19.199-8.596,19.199-19.199c0-10.602-8.597-19.196-19.199-19.196
	c-10.604,0-19.2,8.596-19.2,19.196C278.303,491.321,286.9,499.917,297.503,499.917z M291.103,474.317h12.801v12.801h-12.801V474.317
	z"/>
<path fill="#FFFFFF" d="M379.004,480.719c0-10.604-8.599-19.199-19.201-19.199c-10.602,0-19.199,8.597-19.199,19.199
	c0,10.604,8.599,19.197,19.199,19.197C370.408,499.918,379.004,491.323,379.004,480.719z M353.405,474.319h12.8v12.801h-12.8
	V474.319z"/>
<path fill="#1F5AA6" d="M529.708,266.771c-9.954-1.551-19.907-5.53-28.534-11.945c-3.097-2.434-5.974-4.866-8.627-7.741l5.088-5.087
	c4.867,5.971,11.061,10.838,18.358,14.377c4.646,2.212,9.068,3.76,13.715,4.866"/>
<path fill="#1F5AA6" d="M491.442,233.147L491.442,233.147l-5.529,5.752c-8.184-12.389-11.944-26.985-10.838-41.807h9.289
	C482.815,209.701,485.471,222.31,491.442,233.147z"/>
<path fill="#1F5AA6" d="M499.184,150.422l8.406,8.405c-8.627,5.972-15.705,14.377-19.688,24.552
	c-0.44,1.106-0.885,2.212-1.104,3.318H476.62c1.99-8.184,5.531-16.369,10.841-23.669C490.78,158.164,494.76,153.96,499.184,150.422z
	"/>
<path fill="#1F5AA6" d="M575.276,143.786l-0.664,0.664c-2.877,2.654-7.301,7.078-10.176,9.732l-8.185-2.876
	c-12.829-4.866-26.985-3.538-39.149,1.771l-9.07-9.07C528.823,132.504,555.588,131.4,575.276,143.786z"/>
<path fill="#1F5AA6" d="M540.325,262.788c13.492,0.664,26.322-3.539,38.931-12.607c1.549-1.105,3.096-2.213,4.645-3.097
	c0,0,0.443,0.222,0.664,0.442c-10.396,13.271-26.986,20.127-44.238,20.127"/>
<path fill="#1F5AA6" d="M611.549,202.401c-5.972,0.442-11.724,0.664-18.138,1.106c-0.885-14.156-5.088-25.88-12.828-36.718
	l-1.771-1.771c1.549-3.76,4.203-9.511,5.973-13.271l0.664-1.326C602.481,164.579,609.781,181.388,611.549,202.401z"/>
<path fill="#1F5AA6" d="M577.043,153.519c0,0-22.341,49.989-22.562,50.21c-1.549,4.646-5.973,7.963-11.061,7.963
	c-6.638,0-11.943-5.31-11.943-11.944c0-3.761,1.771-7.078,4.646-9.291l0,0l39.37-38.044
	C576.157,151.749,577.487,152.633,577.043,153.519z"/>
</svg>
