<?xml version="1.0" encoding="utf-8"?>
<!-- Generator: Adobe Illustrator 16.0.0, SVG Export Plug-In . SVG Version: 6.00 Build 0)  -->
<!DOCTYPE svg PUBLIC "-//W3C//DTD SVG 1.1//EN" "http://www.w3.org/Graphics/SVG/1.1/DTD/svg11.dtd">
<svg version="1.1" id="Layer_1" xmlns="http://www.w3.org/2000/svg" xmlns:xlink="http://www.w3.org/1999/xlink" x="0px" y="0px"
	 width="43px" height="43px" viewBox="673.999 -88.756 43 43" style="enable-background:new 673.999 -88.756 43 43;"
	 xml:space="preserve">
<path style="fill:#FFFFFF;" d="M701.519-81.084c0-4.215,3.44-7.672,7.74-7.672s7.74,3.457,7.74,7.672c0,4.214-3.44,7.672-7.74,7.672
	S701.519-76.822,701.519-81.084z M709.498-77.154c0,0.474,0.382,0.852,0.86,0.852h1.48c0.479,0,0.86-0.378,0.86-0.852v-1.421
	c0-0.474-0.382-0.853-0.86-0.853h-1.48c-0.335,0-0.621,0.189-0.765,0.474l-2.15-1.421c0-0.047,0-0.047,0-0.095v-1.42
	c0,0,0,0,0-0.048l2.103-1.137c0.095,0.332,0.43,0.616,0.813,0.616h1.48c0.478,0,0.86-0.379,0.86-0.853v-1.421
	c0-0.474-0.383-0.853-0.86-0.853h-1.48c-0.479,0-0.86,0.379-0.86,0.853v0.805l-2.484,1.326c-0.144-0.095-0.287-0.143-0.431-0.143
	h-1.48c-0.478,0-0.86,0.379-0.86,0.853v1.468c0,0.474,0.383,0.853,0.86,0.853h1.481c0.143,0,0.286-0.047,0.382-0.095l2.532,1.657
	V-77.154L709.498-77.154z"/>
<path style="fill:#FFFFFF;" d="M674.381-47.035h13.474v-1.705h-13.474c-0.19,0-0.382,0.143-0.382,0.379v0.947
	C673.999-47.225,674.143-47.035,674.381-47.035z"/>
<path style="fill:#FFFFFF;" d="M700.23-48.74v1.705h12.374c0.191,0,0.382-0.142,0.382-0.379v-0.995c0-0.189-0.143-0.378-0.382-0.378
	H700.23V-48.74z"/>
<path style="fill:#FFFFFF;" d="M694.592-54.28h-1.1c-0.144,0-0.238,0.094-0.238,0.237v4.025h-3.727
	c-0.239,0-0.431,0.189-0.431,0.426v3.409c0,0.237,0.191,0.427,0.431,0.427h9.029c0.239,0,0.431-0.189,0.431-0.427v-3.409
	c0-0.237-0.191-0.426-0.431-0.426h-3.727v-4.025C694.83-54.186,694.735-54.28,694.592-54.28z"/>
<path style="fill:#FFFFFF;" d="M676.771-55.559h34.447c0.956,0,1.721-0.757,1.721-1.704v-5.967c0-0.947-0.765-1.705-1.721-1.705
	h-34.447c-0.956,0-1.721,0.758-1.721,1.705v5.967C675.05-56.316,675.815-55.559,676.771-55.559z M679.781-62.33
	c1.146,0,2.102,0.947,2.102,2.083c0,1.137-0.955,2.083-2.102,2.083s-2.103-0.947-2.103-2.083
	C677.678-61.383,678.634-62.33,679.781-62.33z"/>
<path style="fill:#FFFFFF;" d="M676.771-76.443h24.318c1.625,2.793,4.683,4.688,8.17,4.688c1.29,0,2.532-0.284,3.68-0.758v3.742
	c0,0.947-0.765,1.705-1.721,1.705h-34.447c-0.956,0-1.721-0.758-1.721-1.705v-5.967C675.05-75.686,675.815-76.443,676.771-76.443z
	 M679.781-69.672c1.146,0,2.102-0.947,2.102-2.083c0-1.137-0.955-2.084-2.102-2.084s-2.103,0.947-2.103,2.084
	C677.678-70.619,678.634-69.672,679.781-69.672z"/>
<path style="fill:#FFFFFF;" d="M676.771-87.952h26.134c-1.863,1.705-3.058,4.167-3.058,6.867c0,0.852,0.144,1.705,0.335,2.51
	h-23.411c-0.956,0-1.721-0.758-1.721-1.705v-5.967C675.05-87.146,675.815-87.952,676.771-87.952z M679.781-81.132
	c1.146,0,2.102-0.947,2.102-2.083c0-1.137-0.955-2.084-2.102-2.084s-2.103,0.948-2.103,2.084
	C677.678-82.079,678.634-81.132,679.781-81.132z"/>
</svg>
