<?xml version="1.0" encoding="utf-8"?>
<!-- Generator: Adobe Illustrator 16.0.0, SVG Export Plug-In . SVG Version: 6.00 Build 0)  -->
<!DOCTYPE svg PUBLIC "-//W3C//DTD SVG 1.1//EN" "http://www.w3.org/Graphics/SVG/1.1/DTD/svg11.dtd">
<svg version="1.1" id="Layer_1" xmlns="http://www.w3.org/2000/svg" xmlns:xlink="http://www.w3.org/1999/xlink" x="0px" y="0px"
	 width="43px" height="43px" viewBox="-0.018 -137.968 294.418 269.298"
	 style="enable-background:new -0.018 -137.968 294.418 269.298;" xml:space="preserve">
<g>
	<circle style="fill:#FFFFFF;" cx="54.394" cy="57.732" r="16"/>
	<circle style="fill:#FFFFFF;" cx="124.796" cy="57.732" r="16"/>
	<path style="fill:#FFFFFF;" d="M294.4,92.93v-76.8c0-7.069-5.729-12.8-12.8-12.8H12.8c-7.07,0-12.801,5.729-12.801,12.8v76.8
		c0,7.07,5.729,12.801,12.801,12.801h13.881l-5.762,12.801H6.4c-3.539,0-6.4,2.87-6.4,6.398c0,3.54,2.861,6.4,6.4,6.4h281.6
		c3.531,0,6.4-2.86,6.4-6.4c0-3.528-2.869-6.398-6.4-6.398H273.47l-5.76-12.801h13.891C288.671,105.73,294.4,100,294.4,92.93z
		 M230.4,54.529H243.2V80.13H230.4V54.529z M204.8,41.73h12.801v38.398H204.8V41.73z M179.2,35.33h12.799v44.8H179.2V35.33z
		 M124.8,28.93c15.9,0,28.801,12.9,28.801,28.801c0,15.91-12.899,28.801-28.801,28.801c-15.91,0-28.801-12.891-28.801-28.801
		C96.029,41.84,108.9,28.971,124.8,28.93z M25.601,57.73c0-15.9,12.89-28.801,28.8-28.801c15.897,0,28.801,12.899,28.801,28.801
		c0,15.908-12.902,28.799-28.801,28.799C38.499,86.5,25.63,73.62,25.601,57.73z M34.941,118.53l5.817-12.8h212.871l5.82,12.8H34.941
		z M268.8,80.13h-12.801v-44.8H268.8V80.13z"/>
</g>
<g>
	<path style="fill:#FFFFFF;" d="M181.901,0.305v14.698h7.181V0.305H181.901z M105.298,15.002h7.182V0.305h-7.182V15.002z"/>
	<path style="fill:#FFFFFF;" d="M291.586-36.237l-33.501-7.405l-1.017-9.067c8.295-4.963,13.379-13.913,13.392-23.58v-19.15
		c-0.005-15.204-12.336-27.521-27.532-27.512c-15.195,0-27.512,12.316-27.52,27.512v19.15c0.015,9.667,5.095,18.617,13.399,23.58
		l-1.023,9.067l-33.501,7.405c-0.525,0.133-1.017,0.385-1.431,0.734c-2.865-1.41-5.952-2.309-9.128-2.656l-19.186-2.107
		l-1.634-7.985c1.53-1.082,2.938-2.321,4.216-3.701l2.502,1.922c2.742,1.831,5.942,2.863,9.244,2.99
		c2.87-0.089,5.69-0.861,8.211-2.241c1.226-0.602,1.997-1.848,1.997-3.213v-51.752c0.044-8.697-6.248-16.131-14.833-17.519
		c-1.884-4.608-4.979-8.629-8.963-11.627c-7.969-4.793-17.488-6.285-26.548-4.17c-18.735,3.199-32.676,19.061-33.425,38.056v47.012
		c-0.007,1.358,0.771,2.604,1.988,3.213c5.602,3.279,12.613,2.885,17.814-0.994l2.041-1.567c0.208,0.23,0.364,0.431,0.594,0.683
		c1.156,1.106,2.395,2.115,3.709,3.02l-1.617,7.874l-19.173,2.107c-3.176,0.348-6.269,1.246-9.141,2.656
		c-0.416-0.35-0.905-0.602-1.433-0.728l-33.492-7.412l-1.024-9.067c8.295-4.957,13.385-13.913,13.393-23.58v-19.15
		c0-15.204-12.324-27.527-27.52-27.527c-15.203,0-27.527,12.324-27.527,27.527v19.15c0.007,9.667,5.097,18.617,13.391,23.58
		l-1.022,9.067L2.795-36.237c-1.64,0.364-2.813,1.824-2.813,3.508v47.398c0,0.112,0.008,0.223,0.016,0.333h93.339v-26.139
		c0.045-10.292,7.865-18.875,18.104-19.893l10.84-1.187l-2.255,17.704c-0.245,1.973,1.142,3.769,3.116,4.014
		c0.149,0.022,0.297,0.029,0.445,0.029h12.689l8.376,8.385c1.403,1.403,3.674,1.403,5.075,0l8.377-8.376h12.688
		c1.981-0.009,3.592-1.619,3.592-3.6c0-0.148-0.015-0.296-0.029-0.445l-2.257-17.71l10.854,1.194
		c10.232,1.017,18.044,9.601,18.098,19.884l-0.008,26.141h93.341c0.007-0.112,0.017-0.223,0.017-0.333v-47.398
		C294.399-34.413,293.227-35.874,291.586-36.237z M67.308-36.135l-1.885,9.995l-7.827-3.71l6.951-6.893L67.308-36.135z
		 M51.445-33.878l-8.11-8.11l0.869-7.776c2.359,0.661,4.793,0.994,7.241,1.001c2.441-0.008,4.875-0.341,7.234-1.001l0.875,7.776
		L51.445-33.878z M31.1-95.44c0.007-11.233,9.113-20.331,20.345-20.345c11.227,0.015,20.331,9.112,20.345,20.345v2.137
		c-4.764,0.771-9.593-0.913-12.843-4.482c-1.188-1.373-3.205-1.646-4.712-0.638c-6.833,4.533-14.942,6.766-23.134,6.352V-95.44z
		 M31.1-76.29v-8.584c0.616,0.03,1.255,0.059,1.988,0.059c7.961-0.007,15.782-2.114,22.667-6.107c4.43,3.8,10.24,5.588,16.034,4.935
		v9.698c0,11.234-9.111,20.345-20.345,20.345C40.203-55.945,31.1-65.056,31.1-76.29z M38.342-36.742l6.945,6.893l-7.82,3.71
		l-1.884-9.995L38.342-36.742z M86.155-11.138h-0.007v22.214H26.315V-9.269h-7.182v20.345H7.164v-40.918l21.398-4.742l2.708,14.357
		c0.371,1.945,2.248,3.227,4.2,2.856c0.297-0.051,0.593-0.148,0.868-0.282l15.106-7.167l15.107,7.167
		c1.787,0.854,3.932,0.089,4.778-1.707c0.133-0.274,0.23-0.571,0.29-0.868l2.707-14.357l19.804,4.385
		C89.041-25.16,86.17-18.297,86.155-11.138z M119.819-68.099c0.089,1.528,0.363,3.036,0.794,4.496
		c0.393,1.417,0.89,2.813,1.491,4.155c0.237,0.608,0.527,1.202,0.861,1.774l-1.893,1.469c-2.404,1.973-5.69,2.5-8.592,1.372v-44.674
		c0.854-15.454,12.228-28.284,27.462-30.977c7.159-1.773,14.712-0.727,21.124,2.901c3.339,2.59,5.822,6.114,7.121,10.135
		c0.419,1.574,1.842,2.664,3.467,2.664c5.735,0.09,10.312,4.801,10.239,10.537v49.415c-2.746,1.143-5.899,0.705-8.235-1.134
		l-2.25-1.729c0.083-0.149,0.143-0.318,0.224-0.468c0.187-0.355,0.341-0.727,0.511-1.091c0.378-0.809,0.72-1.632,1.018-2.478
		c0.148-0.415,0.281-0.845,0.407-1.275c0.261-0.854,0.461-1.729,0.622-2.611c0.076-0.394,0.172-0.78,0.226-1.181
		c0.192-1.29,0.296-2.588,0.304-3.887v-23.938c0-1.988-1.61-3.591-3.592-3.591c-0.713,0-1.403,0.209-1.988,0.594
		c-3.525,2.338-14.045,7.717-20.345,4.571c-9.179-4.288-19.997-2.953-27.862,3.435c-0.802,0.683-1.268,1.685-1.268,2.747v16.174
		C119.655-69.828,119.707-68.958,119.819-68.099z M131.238-58.074c-0.052-0.076-0.557-0.75-0.609-0.817
		c-0.423-0.608-0.809-1.239-1.165-1.884c-0.305-0.49-0.571-1.009-0.794-1.551c-0.467-1.018-0.838-2.071-1.128-3.146
		c-0.318-1.084-0.511-2.204-0.578-3.324c-0.083-0.631-0.119-1.261-0.119-1.892v-14.358c5.505-3.857,12.666-4.459,18.742-1.58
		c7.234,3.613,16.243,0.719,21.948-1.952v17.881c0.015,4.215-1.323,8.319-3.807,11.717c-0.178,0.214-0.333,0.438-0.474,0.675
		c-0.047,0.052-0.293,0.348-0.329,0.393c-1.542,1.973-3.45,3.628-5.617,4.882l-0.117,0.06c-6.209,3.487-13.792,3.487-20.004,0
		l-0.147-0.074c-1.513-0.861-2.917-1.915-4.163-3.139c-0.504-0.549-1.017-1.091-1.336-1.491L131.238-58.074z M157.704-37.871
		l-9.646,12.659c-0.563,0.757-1.157,0.771-1.743-0.022l-9.639-12.629l1.417-6.899c5.876,2.136,12.316,2.136,18.193,0L157.704-37.871
		z M156.62-17.645c-0.949,0-1.87,0.379-2.538,1.046l-6.892,6.894l-6.893-6.894c-0.667-0.667-1.587-1.046-2.538-1.046h-10.091
		l1.952-15.38l1.58-0.171l9.379,12.302c2.752,3.644,7.931,4.378,11.582,1.632c0.606-0.459,1.157-1.008,1.617-1.617l9.4-12.317
		l1.581,0.171l1.95,15.38H156.62z M258.797-36.135l-1.884,9.995l-7.82-3.71l6.945-6.893L258.797-36.135z M242.936-33.878
		l-8.112-8.11l0.87-7.776c2.357,0.661,4.793,0.994,7.242,1.001c2.44-0.008,4.88-0.341,7.232-1.001l0.877,7.776L242.936-33.878z
		 M222.589-95.44c0.015-11.233,9.112-20.331,20.347-20.345c11.233,0.015,20.329,9.112,20.344,20.345v2.137
		c-4.764,0.771-9.594-0.913-12.844-4.482c-1.181-1.373-3.199-1.646-4.704-0.638c-6.842,4.533-14.949,6.766-23.143,6.352V-95.44
		L222.589-95.44z M222.589-76.29v-8.584c0.624,0.03,1.253,0.059,1.987,0.059c7.964-0.007,15.783-2.114,22.669-6.107
		c4.431,3.8,10.24,5.588,16.034,4.935v9.698c-0.007,11.234-9.118,20.337-20.352,20.337C231.693-55.959,222.589-65.063,222.589-76.29
		z M229.83-36.742l6.953,6.893l-7.828,3.71l-1.884-9.995L229.83-36.742z M287.216,11.078h-11.968V-9.267h-7.183v20.345h-59.842
		v-22.214c-0.013-7.16-2.885-14.023-7.976-19.061l19.804-4.385l2.707,14.357c0.37,1.945,2.249,3.227,4.199,2.856
		c0.297-0.06,0.595-0.148,0.868-0.281l15.109-7.175l15.104,7.175c1.786,0.845,3.933,0.088,4.778-1.708
		c0.134-0.274,0.229-0.571,0.289-0.868l2.707-14.357l21.399,4.742v40.918H287.216z"/>
</g>
</svg>
