<?xml version="1.0" encoding="utf-8"?>
<!-- Generator: Adobe Illustrator 16.0.0, SVG Export Plug-In . SVG Version: 6.00 Build 0)  -->
<!DOCTYPE svg PUBLIC "-//W3C//DTD SVG 1.1//EN" "http://www.w3.org/Graphics/SVG/1.1/DTD/svg11.dtd">
<svg version="1.1" id="Layer_1" xmlns="http://www.w3.org/2000/svg" xmlns:xlink="http://www.w3.org/1999/xlink" x="0px" y="0px"
	 width="43px" height="43px" viewBox="144.283 1.54 152.45 147.24"
	 style="enable-background:new 144.283 1.54 152.45 147.24;" xml:space="preserve">

<g>
	<g>
		<path fill="#0288D1" d="M217.834,141.736c-7.614,0-15.858-15.053-19.578-38.83c6.069,0.588,12.595,0.914,19.578,0.914v-7.025
			c-6.882,0.01-13.76-0.361-20.601-1.109c-1.477-13.688-1.477-27.493,0-41.18c13.687-1.477,27.492-1.477,41.179,0
			c0.75,6.841,1.119,13.718,1.109,20.6h7.049c0-7.026-0.328-13.552-0.914-19.578c23.775,3.763,38.828,12.008,38.828,19.578
			c-0.002,4.561-0.467,9.108-1.391,13.574l6.895,1.436c8.256-39.808-17.322-78.772-57.129-87.028
			c-39.809-8.256-78.773,17.322-87.029,57.13c-8.256,39.809,17.322,78.772,57.131,87.028c12.628,2.619,25.724,1.875,37.974-2.16
			l-2.176-6.678C232.009,140.627,224.942,141.752,217.834,141.736z M283.094,61.467c-7.701-5.874-20.602-10.876-38.309-13.356
			c-2.523-17.707-7.482-30.607-13.355-38.308c25.945,5.462,46.211,25.738,51.664,51.686V61.467z M217.834,8.411
			c7.614,0,15.858,15.053,19.579,38.83c-6.07-0.587-12.596-0.914-19.579-0.914c-6.983,0-13.553,0.326-19.578,0.914
			c3.72-23.776,11.964-38.808,19.578-38.808V8.411z M204.239,9.803c-5.874,7.701-10.877,20.601-13.356,38.308
			c-17.707,2.523-30.607,7.483-38.308,13.356c5.464-25.924,25.718-46.179,51.642-51.642L204.239,9.803z M190.012,55.484
			c-0.588,6.069-0.914,12.595-0.914,19.578s0.326,13.552,0.914,19.578c-23.776-3.764-38.83-12.008-38.83-19.578
			s15.032-15.836,38.83-19.6V55.484z M152.574,88.68c7.7,5.873,20.601,10.876,38.308,13.357
			c2.523,17.707,7.482,30.607,13.356,38.307C178.296,134.891,158.029,114.623,152.574,88.68z"/>
		<polygon fill="#6f8ba4" points="236.085,86.439 252.682,147.893 263.733,119.787 296.733,115.045 		"/>
	</g>
</g>
</svg>
