<?xml version="1.0" encoding="utf-8"?>
<!-- Generator: Adobe Illustrator 16.0.0, SVG Export Plug-In . SVG Version: 6.00 Build 0)  -->
<!DOCTYPE svg PUBLIC "-//W3C//DTD SVG 1.1//EN" "http://www.w3.org/Graphics/SVG/1.1/DTD/svg11.dtd">
<svg version="1.1"
	 id="Layer_1" xmlns:dc="http://purl.org/dc/elements/1.1/" xmlns:sodipodi="http://sodipodi.sourceforge.net/DTD/sodipodi-0.dtd" xmlns:svg="http://www.w3.org/2000/svg" xmlns:inkscape="http://www.inkscape.org/namespaces/inkscape" xmlns:cc="http://creativecommons.org/ns#" xmlns:rdf="http://www.w3.org/1999/02/22-rdf-syntax-ns#"
	 xmlns="http://www.w3.org/2000/svg" xmlns:xlink="http://www.w3.org/1999/xlink" x="0px" y="0px" width="43px" height="43px" viewBox="185.322 -15.367 138.556 106.108" style="enable-background:new 185.322 -15.367 138.556 106.108;"
	 xml:space="preserve">
<g transform="translate(0,-952.36218)">
	<path fill="#0288D1" d="M187.994,936.998c-1.52,0.144-2.679,1.422-2.672,2.948v64.856c0,1.628,1.32,2.948,2.948,2.948h66.33
		c1.628,0.023,2.967-1.278,2.989-2.907c0.023-1.628-1.278-2.966-2.906-2.989c-0.027,0-0.056,0-0.083,0h-63.382v-58.96h126.764v58.96
		h-15.938c-0.046-0.001-0.093-0.001-0.139,0l-35.883-14.556c-0.453-0.178-0.943-0.242-1.428-0.184
		c-1.618,0.183-2.781,1.642-2.599,3.26c0.03,0.272,0.099,0.54,0.203,0.793l19.162,47.168c0.645,1.495,2.379,2.187,3.874,1.542
		c0.708-0.305,1.269-0.875,1.562-1.588l2.81-6.863l10.825,10.824c1.148,1.136,2.997,1.136,4.146,0l12.529-12.529
		c1.157-1.145,1.167-3.012,0.022-4.169c-0.008-0.007-0.016-0.015-0.022-0.022l-10.825-10.824l6.909-2.764
		c1.513-0.604,2.251-2.318,1.647-3.831c-0.049-0.125-0.107-0.245-0.173-0.361h6.265c1.628,0,2.947-1.32,2.947-2.948v-64.856
		c0-1.628-1.319-2.948-2.947-2.948H188.27C188.178,936.994,188.086,936.994,187.994,936.998z M230.694,948.744
		c-1.066,0.119-1.983,0.807-2.396,1.796l-17.688,41.272c-0.648,1.501,0.042,3.244,1.543,3.893c1.501,0.648,3.244-0.042,3.893-1.543
		l17.688-41.272c0.673-1.482,0.017-3.23-1.466-3.903C231.775,948.763,231.231,948.679,230.694,948.744z M245.433,948.744
		c-1.065,0.119-1.982,0.807-2.395,1.796l-17.688,41.272c-0.648,1.501,0.042,3.244,1.543,3.893c1.501,0.648,3.244-0.042,3.893-1.543
		l17.688-41.272c0.674-1.482,0.018-3.23-1.465-3.903C246.515,948.763,245.97,948.679,245.433,948.744z M203.01,959.108
		c-2.442,0-4.423,1.979-4.423,4.422s1.98,4.422,4.423,4.422c2.441,0,4.422-1.979,4.422-4.422S205.452,959.108,203.01,959.108z
		 M203.01,976.796c-2.442,0-4.423,1.979-4.423,4.422s1.98,4.422,4.423,4.422c2.441,0,4.422-1.979,4.422-4.422
		S205.452,976.796,203.01,976.796z M270.261,995.406l33.902,13.773l-4.238,1.704c-1.511,0.607-2.242,2.325-1.635,3.835
		c0.151,0.377,0.379,0.717,0.668,1.002l11.93,11.93l-8.384,8.338l-11.93-11.931c-1.167-1.136-3.034-1.108-4.169,0.059
		c-0.268,0.274-0.479,0.599-0.622,0.954l-1.704,4.33L270.261,995.406z"/>
</g>
</svg>
