<?xml version="1.0" encoding="utf-8"?>
<!-- Generator: Adobe Illustrator 16.0.0, SVG Export Plug-In . SVG Version: 6.00 Build 0)  -->
<!DOCTYPE svg PUBLIC "-//W3C//DTD SVG 1.1//EN" "http://www.w3.org/Graphics/SVG/1.1/DTD/svg11.dtd">
<svg version="1.1"
	 id="Layer_1" xmlns:rdf="http://www.w3.org/1999/02/22-rdf-syntax-ns#" xmlns:cc="http://creativecommons.org/ns#" xmlns:inkscape="http://www.inkscape.org/namespaces/inkscape" xmlns:svg="http://www.w3.org/2000/svg" xmlns:sodipodi="http://sodipodi.sourceforge.net/DTD/sodipodi-0.dtd" xmlns:dc="http://purl.org/dc/elements/1.1/"
	 xmlns="http://www.w3.org/2000/svg" xmlns:xlink="http://www.w3.org/1999/xlink" x="0px" y="0px" width="42.999px"
	 height="32.93px" viewBox="185.322 -10.332 42.999 32.93" style="enable-background:new 185.322 -10.332 42.999 32.93;"
	 xml:space="preserve">
<g transform="translate(0,-952.36218)">
	<path style="fill:#0288D1;" d="M186.151,942.031c-0.472,0.044-0.831,0.441-0.829,0.915v20.127c0,0.505,0.409,0.915,0.914,0.915
		h20.586c0.505,0.007,0.92-0.397,0.928-0.902c0.007-0.505-0.396-0.92-0.902-0.928c-0.008,0-0.018,0-0.025,0h-19.67v-18.298h39.34
		v18.298h-4.946c-0.015,0-0.028,0-0.043,0l-11.136-4.517c-0.141-0.055-0.293-0.075-0.443-0.057
		c-0.502,0.057-0.863,0.509-0.807,1.012c0.01,0.084,0.031,0.167,0.063,0.246l5.947,14.638c0.2,0.464,0.738,0.679,1.202,0.479
		c0.22-0.095,0.394-0.271,0.485-0.493l0.871-2.13l3.359,3.359c0.357,0.353,0.931,0.353,1.287,0l3.889-3.888
		c0.359-0.355,0.361-0.935,0.006-1.294c-0.002-0.002-0.004-0.004-0.006-0.007l-3.359-3.359l2.144-0.858
		c0.47-0.188,0.698-0.719,0.511-1.189c-0.015-0.039-0.033-0.076-0.053-0.112h1.943c0.506,0,0.915-0.41,0.915-0.915v-20.127
		c0-0.505-0.409-0.915-0.915-0.915h-41.17C186.209,942.03,186.18,942.03,186.151,942.031z M199.402,945.676
		c-0.33,0.037-0.615,0.25-0.743,0.558l-5.489,12.809c-0.201,0.466,0.014,1.007,0.479,1.208c0.467,0.201,1.008-0.013,1.209-0.479
		l5.488-12.808c0.209-0.46,0.006-1.002-0.454-1.211C199.738,945.682,199.57,945.656,199.402,945.676z M203.977,945.676
		c-0.33,0.037-0.615,0.25-0.742,0.558l-5.49,12.809c-0.201,0.466,0.014,1.007,0.479,1.208c0.467,0.201,1.008-0.013,1.209-0.479
		l5.489-12.808c0.209-0.46,0.005-1.002-0.454-1.211C204.313,945.682,204.144,945.656,203.977,945.676z M190.812,948.893
		c-0.758,0-1.373,0.614-1.373,1.372s0.614,1.373,1.373,1.373c0.757,0,1.372-0.614,1.372-1.373S191.569,948.893,190.812,948.893z
		 M190.812,954.382c-0.758,0-1.373,0.614-1.373,1.372c0,0.758,0.614,1.373,1.373,1.373c0.757,0,1.372-0.614,1.372-1.373
		C192.184,954.996,191.569,954.382,190.812,954.382z M211.682,960.158l10.521,4.274l-1.314,0.529
		c-0.469,0.188-0.696,0.722-0.508,1.19c0.047,0.117,0.117,0.223,0.207,0.311l3.703,3.703l-2.603,2.587l-3.702-3.703
		c-0.362-0.353-0.941-0.344-1.294,0.019c-0.083,0.085-0.148,0.186-0.192,0.296l-0.529,1.344L211.682,960.158z"/>
</g>
<polygon style="fill:#0288D1;" points="211.348,7.116 216.168,8.75 222.781,11.688 222.906,11.938 222.094,13.156 224.938,17.844 
	222.188,20.969 216.781,18.156 215.906,18.906 212.982,11.936 "/>
</svg>
