<?xml version="1.0" encoding="utf-8"?>
<!-- Generator: Adobe Illustrator 16.0.0, SVG Export Plug-In . SVG Version: 6.00 Build 0)  -->
<!DOCTYPE svg PUBLIC "-//W3C//DTD SVG 1.1//EN" "http://www.w3.org/Graphics/SVG/1.1/DTD/svg11.dtd">
<svg version="1.1"
	 id="Layer_1" xmlns:rdf="http://www.w3.org/1999/02/22-rdf-syntax-ns#" xmlns:cc="http://creativecommons.org/ns#" xmlns:inkscape="http://www.inkscape.org/namespaces/inkscape" xmlns:svg="http://www.w3.org/2000/svg" xmlns:sodipodi="http://sodipodi.sourceforge.net/DTD/sodipodi-0.dtd" xmlns:dc="http://purl.org/dc/elements/1.1/"
	 xmlns="http://www.w3.org/2000/svg" xmlns:xlink="http://www.w3.org/1999/xlink" x="0px" y="0px" width="43px" height="32.93px"
	 viewBox="185.322 -10.332 43 32.93" enable-background="new 185.322 -10.332 43 32.93" xml:space="preserve">
<g>
	<path fill="#0288D1" d="M227.408-10.331h-41.171c-0.028-0.001-0.057-0.001-0.086,0c-0.472,0.044-0.831,0.44-0.829,0.915v20.127
		c0,0.505,0.409,0.915,0.914,0.915h20.586c0.506,0.007,0.92-0.397,0.928-0.902s-0.396-0.92-0.901-0.928c-0.009,0-0.019,0-0.024,0
		h-19.671V-8.502h39.341V9.796h-4.947c-0.014,0-0.027,0-0.043,0l-11.135-4.518c-0.142-0.055-0.293-0.075-0.443-0.057
		c-0.502,0.057-0.863,0.509-0.807,1.012c0.01,0.084,0.03,0.167,0.063,0.246l5.947,14.638c0.199,0.465,0.738,0.68,1.201,0.479
		c0.221-0.095,0.395-0.271,0.485-0.493l0.871-2.13l3.358,3.359c0.357,0.353,0.932,0.353,1.287,0l3.89-3.889
		c0.358-0.354,0.36-0.935,0.006-1.294c-0.002-0.002-0.004-0.004-0.006-0.007l-3.359-3.359l2.144-0.857
		c0.471-0.188,0.699-0.719,0.512-1.189c-0.016-0.039-0.033-0.076-0.053-0.111h1.943c0.506,0,0.914-0.41,0.914-0.915V-9.416
		C228.322-9.922,227.914-10.331,227.408-10.331z"/>
	<circle fill="#0288D1" cx="190.812" cy="-2.097" r="1.373"/>
	<circle fill="#0288D1" cx="190.812" cy="3.392" r="1.373"/>
	<path fill="#0288D1" d="M198.224,7.889c0.467,0.201,1.008-0.013,1.209-0.479l5.488-12.808c0.209-0.46,0.006-1.002-0.453-1.211
		c-0.155-0.071-0.324-0.097-0.491-0.077c-0.33,0.037-0.615,0.25-0.742,0.559l-5.489,12.809
		C197.544,7.147,197.759,7.688,198.224,7.889z"/>
	<path fill="#0288D1" d="M199.892-6.609c-0.154-0.071-0.322-0.097-0.49-0.077c-0.33,0.037-0.615,0.25-0.742,0.559l-5.49,12.809
		c-0.2,0.466,0.015,1.007,0.479,1.208c0.468,0.201,1.009-0.013,1.209-0.479l5.488-12.808C200.555-5.858,200.352-6.4,199.892-6.609z"
		/>
</g>
</svg>
