<?xml version="1.0" encoding="utf-8"?>
<!-- Generator: Adobe Illustrator 16.0.0, SVG Export Plug-In . SVG Version: 6.00 Build 0)  -->
<!DOCTYPE svg PUBLIC "-//W3C//DTD SVG 1.1//EN" "http://www.w3.org/Graphics/SVG/1.1/DTD/svg11.dtd">
<svg version="1.1" id="Layer_1" xmlns="http://www.w3.org/2000/svg" xmlns:xlink="http://www.w3.org/1999/xlink" x="0px" y="0px"
	 width="43px" height="43px" viewBox="156.613 9.212 128.938 128.975"
	 style="enable-background:new 156.613 9.212 128.938 128.975;" xml:space="preserve">

<g>
	<path fill="#0288D1" d="M158.916,133.581c-1.272,0-2.303,1.031-2.303,2.304c0,1.271,1.03,2.303,2.303,2.303h115.156
		c1.271,0,2.303-1.031,2.303-2.303c0-1.272-1.031-2.304-2.303-2.304h-7.784l-2.304-4.606h7.785c2.544,0,4.605-2.063,4.605-4.605
		V87.519c0-2.544-2.062-4.606-4.605-4.606h-4.606v-4.606h4.606c2.544,0,4.605-2.062,4.605-4.606V63.313
		c-0.76,0.53-1.52,1.013-2.303,1.474c-0.783,0.46-1.497,0.829-2.303,1.197c-11.399,5.395-24.896,3.649-34.547-4.468v2.971h-4.606
		v-7.738c-4.483-5.663-6.919-12.676-6.909-19.899c0-1.542,0.115-3.082,0.345-4.606h-64.833c-2.544,0-4.605,2.063-4.605,4.606V73.7
		c0,2.544,2.062,4.606,4.605,4.606h4.606v4.606h-4.606c-2.544,0-4.605,2.062-4.605,4.606v36.851c0,2.543,2.062,4.605,4.605,4.605
		h7.785l-2.304,4.606H158.916z M171.859,133.581l2.304-4.606h84.662l2.304,4.606H171.859z M193.463,105.943
		c0-6.359,5.155-11.516,11.516-11.516c6.359,0,11.516,5.156,11.516,11.516c0,6.36-5.156,11.516-11.516,11.516
		C198.618,117.459,193.463,112.304,193.463,105.943z M223.403,115.156V96.731h4.606v18.425H223.403z M232.616,115.156v-13.818h4.606
		v13.818H232.616z M241.828,115.156V99.034h4.606v16.122H241.828z M251.041,115.156V96.731h4.606v18.425H251.041z M264.859,115.156
		h-4.605v-9.213h4.605V115.156z M262.556,78.306v4.606h-92.125v-4.606H262.556z M223.403,50.669h4.606v13.818h-4.606V50.669z
		 M204.978,43.759c6.359,0,11.516,5.156,11.516,11.516s-5.156,11.516-11.516,11.516c-6.36,0-11.516-5.156-11.516-11.516
		S198.618,43.759,204.978,43.759z M177.341,43.759c6.36,0,11.516,5.156,11.516,11.516s-5.155,11.516-11.516,11.516
		c-6.359,0-11.516-5.156-11.516-11.516S170.981,43.759,177.341,43.759z M165.825,105.943c0-6.359,5.156-11.516,11.516-11.516
		c6.36,0,11.516,5.156,11.516,11.516c0,6.36-5.155,11.516-11.516,11.516C170.981,117.459,165.825,112.304,165.825,105.943z"/>
	<path fill="#0288D1" d="M257.95,9.212c-9.872,0.002-18.993,5.27-23.93,13.819c-0.858,1.461-1.568,3.004-2.118,4.606
		c-0.542,1.495-0.943,3.037-1.198,4.606c-2.539,15.051,7.604,29.311,22.655,31.85c6.335,1.069,12.845-0.103,18.41-3.314
		c1.656-0.944,3.202-2.072,4.605-3.362c11.359-10.196,12.302-27.67,2.105-39.029C273.247,12.558,265.785,9.223,257.95,9.212z
		 M253.344,46.892l-8.429-8.406l3.271-3.271l5.158,5.412l14.51-12.437l2.994,3.5L253.344,46.892z"/>
	<path fill="#0288D1" d="M227.572,26.071c0.354-1.037,0.771-2.052,1.243-3.04h-54.652c-1.743-0.003-3.339,0.977-4.123,2.533l-1.036,2.073h58.038
		C227.204,27.108,227.387,26.578,227.572,26.071z"/>
	<path fill="#0288D1" d="M177.341,112.854c3.816,0,6.909-3.094,6.909-6.91c0-3.815-3.093-6.909-6.909-6.909c-3.815,0-6.909,3.094-6.909,6.909
		C170.431,109.76,173.525,112.854,177.341,112.854z M175.038,103.641h4.606v4.606h-4.606V103.641z"/>
	<path fill="#0288D1" d="M211.887,105.943c0-3.815-3.094-6.909-6.909-6.909c-3.816,0-6.909,3.094-6.909,6.909c0,3.816,3.093,6.91,6.909,6.91
		C208.794,112.854,211.887,109.76,211.887,105.943z M202.676,103.641h4.605v4.606h-4.605V103.641z"/>
	<path fill="#0288D1" d="M177.341,62.185c3.816,0,6.909-3.094,6.909-6.91s-3.093-6.909-6.909-6.909c-3.815,0-6.909,3.093-6.909,6.909
		S173.525,62.185,177.341,62.185z M175.038,52.972h4.606v4.606h-4.606V52.972z"/>
	<path fill="#0288D1" d="M204.978,62.185c3.815,0,6.909-3.094,6.909-6.91s-3.094-6.909-6.909-6.909c-3.816,0-6.909,3.093-6.909,6.909
		S201.162,62.185,204.978,62.185z M202.676,52.972h4.605v4.606h-4.605V52.972z"/>
</g>
</svg>
