<?xml version="1.0" encoding="utf-8"?>
<!-- Generator: Adobe Illustrator 16.0.0, SVG Export Plug-In . SVG Version: 6.00 Build 0)  -->
<!DOCTYPE svg PUBLIC "-//W3C//DTD SVG 1.1//EN" "http://www.w3.org/Graphics/SVG/1.1/DTD/svg11.dtd">
<svg version="1.1" id="Layer_1" xmlns="http://www.w3.org/2000/svg" xmlns:xlink="http://www.w3.org/1999/xlink" x="0px" y="0px"
	 width="43px" height="43px" viewBox="152.313 22.11 134.626 105.636"
	 style="enable-background:new 152.313 22.11 134.626 105.636;" xml:space="preserve">
<g>
	<g>
		<path fill="#6f8ba4" d="M225.767,92.861l19.653,13.021l4.423-2.211l-2.211,4.422l13.02,19.652l26.287-61.416L225.767,92.861z M259.916,117.674
			l-6.634-9.826l7.616-15.231l-15.231,7.616L235.84,93.6l41.764-17.934L259.916,117.674z"/>
		<path fill="#0288D1" d="M157.226,93.354V29.48l51.591,37.587l51.59-37.587v39.307h4.913V22.11H152.313v71.244c0,4.176,3.194,7.369,7.37,7.369
			H221.1v-4.912h-61.417C158.21,95.811,157.226,94.827,157.226,93.354z M162.385,27.023h93.108l-46.677,33.902L162.385,27.023z"/>
	</g>
</g>
</svg>
