<?xml version="1.0" encoding="utf-8"?>
<!-- Generator: Adobe Illustrator 16.0.0, SVG Export Plug-In . SVG Version: 6.00 Build 0)  -->
<!DOCTYPE svg PUBLIC "-//W3C//DTD SVG 1.1//EN" "http://www.w3.org/Graphics/SVG/1.1/DTD/svg11.dtd">
<svg version="1.1" id="Layer_1" xmlns="http://www.w3.org/2000/svg" xmlns:xlink="http://www.w3.org/1999/xlink" x="0px" y="0px"
	 width="43px" height="43px" viewBox="160.801 0 120.6 147.4" style="enable-background:new 160.801 0 120.6 147.4;"
	 xml:space="preserve">
<g>
	<circle fill="#6f8ba4" cx="211.051" cy="43.55" r="3.35"/>
	<circle fill="#6f8ba4" cx="231.15" cy="43.55" r="3.35"/>
	<path fill="#0288D1" d="M281.4,132.995l-2.68-24.79c-0.67-4.355-4.021-7.705-8.04-8.71L241.87,93.8c-1.005-0.335-2.01,0-2.68,0.671l-13.735,11.389
		c-2.345,2.011-6.029,2.011-8.71,0c0,0-0.335,0-0.335-0.334l-7.035-4.69c-1.675-1.005-3.685-0.67-4.689,1.005
		c-1.005,1.676-0.67,3.686,1.005,4.689l6.7,4.691c1.675,1.34,3.35,2.01,5.024,2.68v16.75c0,2.01,1.34,3.35,3.351,3.35
		c2.01,0,3.35-1.34,3.35-3.35V113.9c2.01-0.336,3.686-1.34,5.36-2.68l12.395-10.386l27.135,5.36c1.341,0.334,2.346,1.34,2.681,3.015
		L274.7,134c0,0.335,0,0.335,0,0.67c0,3.35-2.68,6.03-6.03,6.03h-95.14c-3.35,0-6.03-2.681-6.03-6.03c0-0.335,0-0.67,0-0.67
		l2.681-24.79c0-1.34,1.34-2.681,2.68-3.015l28.81-5.695c1.676-0.335,3.016-2.01,2.681-4.02c-0.335-1.676-2.01-3.016-4.021-2.681
		l-28.81,5.695c-4.021,1.005-7.37,4.354-8.04,8.71l-2.68,24.79c0,0.335,0,1.005,0,1.34c0,7.37,5.694,13.065,12.729,13.065h94.805
		c7.035,0,12.73-5.695,12.73-12.73C281.4,134,281.4,133.665,281.4,132.995z"/>
	<path fill="#0288D1" d="M187.6,56.95L187.6,56.95c0.335,3.35,1.675,6.365,3.685,9.045l12.396,16.08c2.68,3.35,6.364,5.025,10.385,5.025h13.735
		c4.02,0,8.04-2.01,10.385-5.025l6.365-8.375h6.699c5.695,0,10.051-4.355,10.051-10.05v-9.38c2.01-1.675,3.35-4.355,3.35-7.37v-6.7
		c0-5.695-4.355-10.05-10.05-10.05c0-0.67,0-1.005-0.335-1.34C251.92,12.395,237.85,0,221.1,0c-17.42,0-31.49,13.4-33.165,30.15
		H187.6c-5.695,0-10.05,4.355-10.05,10.05v6.7C177.551,52.595,181.905,56.95,187.6,56.95z M233.16,77.72
		c-1.34,1.675-3.35,2.68-5.359,2.68h-13.4c-2.01,0-4.021-1.005-5.36-2.68l-12.395-16.08c-1.34-1.675-2.01-4.02-2.01-6.365V53.6
		V36.85c13.734-0.335,26.465-3.685,36.515-9.38c4.69,3.35,10.72,5.36,17.085,6.03l0,0v20.1v2.01c0,2.345-0.67,4.355-2.01,6.365
		L241.87,67h-10.72c-0.67-2.01-2.68-3.35-4.69-3.35h-10.05c-2.68,0-5.024,2.345-5.024,5.025c0,2.68,2.345,5.025,5.024,5.025h20.436
		L233.16,77.72z M254.6,63.65c0,2.01-1.34,3.35-3.351,3.35h-1.005l0.67-1.005c2.011-2.68,3.351-5.695,3.351-9.045l0,0v6.7H254.6z
		 M257.95,40.2v6.7c0,2.01-1.34,3.35-3.35,3.35v-13.4C256.61,36.85,257.95,38.19,257.95,40.2z M221.1,6.7
		c12.395,0,22.779,8.375,25.795,19.765c-5.025-0.67-10.05-2.68-13.735-5.695c-1.005-1.005-2.68-1.005-3.685-0.335
		c-9.38,5.695-21.775,9.045-34.84,9.715C196.31,16.75,207.365,6.7,221.1,6.7z M184.25,40.2c0-2.01,1.341-3.35,3.351-3.35v13.4
		c-2.01,0-3.351-1.34-3.351-3.35V40.2z"/>
</g>
</svg>
