<?xml version="1.0" encoding="utf-8"?>
<!-- Generator: Adobe Illustrator 16.0.0, SVG Export Plug-In . SVG Version: 6.00 Build 0)  -->
<!DOCTYPE svg PUBLIC "-//W3C//DTD SVG 1.1//EN" "http://www.w3.org/Graphics/SVG/1.1/DTD/svg11.dtd">
<svg version="1.1" id="Layer_1" xmlns="http://www.w3.org/2000/svg" xmlns:xlink="http://www.w3.org/1999/xlink" x="0px" y="0px"
	 width="142.793px" height="137.326px" viewBox="151.693 5.037 142.793 137.326"
	 style="enable-background:new 151.693 5.037 142.793 137.326;" xml:space="preserve">
<g>
	<path fill="#fff"  d="M265.988,32.032l2.961-3.528c-1.676-1.407-3.445-2.757-5.258-4.012l-2.623,3.788
		C262.765,29.453,264.419,30.715,265.988,32.032z"/>
	<path fill="#fff"  d="M274.357,40.416l3.533-2.955c-1.359-1.624-2.811-3.213-4.316-4.719l-3.259,3.256
		C271.727,37.408,273.086,38.894,274.357,40.416z"/>
	<path fill="#fff"  d="M289.881,83.227c0,19.615-8.347,37.738-23.031,50.442v-13.593h-4.606v20.729h20.728v-4.606h-12.043
		c15.033-13.524,23.559-32.483,23.559-52.972c0-14.54-4.344-28.531-12.563-40.462l-3.791,2.614
		C285.817,56.535,289.881,69.624,289.881,83.227z"/>
	<path fill="#fff"  d="M185.662,138.552c-1.737-1.177-3.438-2.45-5.056-3.788l-2.93,3.554c1.728,1.426,3.547,2.786,5.403,4.046L185.662,138.552z"
		/>
	<path fill="#fff"  d="M171.551,125.71l-3.554,2.932c1.443,1.75,2.994,3.455,4.605,5.069l3.26-3.257C174.351,128.945,172.9,127.35,171.551,125.71
		z"/>
	<path fill="#fff"  d="M156.3,83.227c0-19.616,8.346-37.739,23.031-50.443v13.593h4.605V25.648h-20.728v4.606h12.043
		c-15.032,13.523-23.559,32.482-23.559,52.972c0,13.823,3.956,27.234,11.442,38.782l3.866-2.506
		C160.001,108.703,156.3,96.158,156.3,83.227z"/>
	<path fill="#fff"  d="M220.706,23.833c2.891,1.737,4.687,4.91,4.687,8.282c0,5.322-4.332,9.655-9.654,9.655c-1.617,0-3.109-0.353-4.442-1.019
		c-4.694-2.347-9.947-3.588-15.193-3.588h-2.836c0.44,5.734,2.52,10.999,5.74,15.38l-12.302,24.603
		c-1.596-0.53-3.298-0.829-5.071-0.829c-8.891,0-16.122,7.231-16.122,16.121c0,8.891,7.231,16.122,16.122,16.122
		s16.122-7.231,16.122-16.122c0-5.475-2.748-10.313-6.933-13.229l11.451-22.905c0.512,0.498,1.021,0.995,1.566,1.456l4.753-4.754
		c1.306-1.306,3.043-2.024,4.89-2.024h5.456c1.826,0,3.528-0.914,4.551-2.445c1.892-2.838,4.959-4.478,8.267-4.473h0.728
		c4.977,0.007,9.256,3.724,9.959,8.646l0.626,4.385c0.288-0.258,0.551-0.539,0.827-0.808l11.46,22.92
		c-4.185,2.918-6.933,7.757-6.933,13.231c0,8.891,7.232,16.122,16.122,16.122c8.891,0,16.122-7.231,16.122-16.122
		c0-8.89-7.231-16.121-16.122-16.121c-1.773,0-3.473,0.299-5.071,0.829l-12.306-24.611c2.782-3.782,4.717-8.225,5.47-13.068h-6.518
		c-3.466,0-6.902-1.145-9.673-3.225c-4.079-3.061-6.449-7.796-6.449-12.754c0-1.737-1.177-3.243-2.862-3.665
		c-3.738-0.938-6.35-4.281-6.35-8.137V5.037c-2.391,0.185-4.708,0.634-6.91,1.348v5.39
		C213.877,16.687,216.494,21.307,220.706,23.833z M186.24,92.438c0,2.545-2.062,4.606-4.606,4.606s-4.606-2.062-4.606-4.606
		s2.062-4.605,4.606-4.605S186.24,89.894,186.24,92.438z M269.152,92.438c0,2.545-2.062,4.606-4.606,4.606s-4.606-2.062-4.606-4.606
		s2.062-4.605,4.606-4.605S269.152,89.894,269.152,92.438z"/>
	<path fill="#fff"  d="M211.852,56.264l-4.203,4.203c4.517,2.731,9.788,4.335,15.44,4.335c5.795,0,11.19-1.682,15.778-4.542l-0.985-6.896
		c-0.383-2.672-2.704-4.689-5.403-4.694h-0.728c-1.765-0.002-3.397,0.871-4.371,2.336c-1.938,2.901-5.072,4.583-8.441,4.583h-5.456
		C212.868,55.589,212.288,55.828,211.852,56.264z"/>
	<path fill="#fff"  d="M228.256,15.354c3.738,0.935,6.35,4.279,6.35,8.135c0,3.517,1.679,6.874,4.493,8.986c2.092,1.568,4.547,2.386,7.022,2.386
		h6.909c0-15.732-12.204-28.642-27.638-29.823v6.651C225.392,13.423,226.57,14.932,228.256,15.354z"/>
	<path fill="#fff"  d="M196.102,32.558c5.957,0,11.925,1.409,17.252,4.074c0.698,0.348,1.479,0.532,2.257,0.532c2.911,0,5.176-2.265,5.176-5.049
		c0-1.764-0.94-3.422-2.451-4.33c-5.592-3.355-9.064-9.488-9.064-16.009v-3.45c-8.923,4.666-15.196,13.688-16.005,24.231H196.102z"
		/>
</g>
</svg>
