<svg width="60" height="60" viewBox="0 0 60 60" fill="none" xmlns="http://www.w3.org/2000/svg">
                    <path
                      d="M25.28 27.8067L27.4431 29.9576L25.28 32.108H10.0553V39.273L0.770508 29.9576L10.0553 20.7982V27.8067H25.2803H25.28ZM31.9724 9.50952H50.4714V28.0087H31.9724V9.50952Z"
                      fill="#6F8BA4" />
                    <path
                      d="M32.1738 25.2795L30.0235 27.4426L27.8731 25.2795V10.0548H20.7075L30.0235 0.77002L39.1821 10.0548H32.1738V25.2798V25.2795ZM31.9723 31.9719H50.471V50.4711H31.9721V31.9719H31.9723Z"
                      fill="#6F8BA4" />
                    <path
                      d="M34.7004 32.1738L32.5371 30.0235L34.7004 27.8731H49.9249V20.7075L59.2101 30.0235L49.9249 39.1821V32.1738H34.7004ZM9.50879 31.9723H28.0078V50.4715H9.50879V31.9723Z"
                      fill="#6F8BA4" />
                    <path
                      d="M27.806 34.7011L29.9564 32.5378L32.1072 34.7011V49.9261H39.2723L29.9564 59.2108L20.7979 49.9261H27.806V34.7011ZM9.50879 9.50952H28.0078V28.0087H9.50879V9.50952Z"
                      fill="#6F8BA4" />
                    <path
                      d="M8.84912 8.84863H28.6695V28.669H8.84912V8.84863ZM10.1703 27.3479H27.3479V10.1703H10.1703V27.3479ZM31.3123 8.84863H51.1327V28.669H31.3123V8.84863ZM32.6335 27.3479H49.8111V10.1703H32.6335V27.3479ZM31.3123 31.3118H51.1327V51.1327H31.3123V31.3116V31.3118ZM32.6335 49.8106H49.8111V32.633H32.6335V49.8106ZM8.84912 31.3118H28.6695V51.1327H8.84912V31.3116V31.3118ZM10.1703 49.8106H27.3479V32.633H10.1703V49.8106Z"
                      fill="white" />
                    <path
                      d="M14.1069 44.0057L0.0913086 29.99L14.1067 15.9749L28.1223 29.99L14.1072 44.0057H14.1069ZM1.96021 29.99L14.1069 42.1368L26.2532 29.99L14.1065 17.8438L1.96021 29.99ZM29.9905 28.1216L15.9754 14.1064L29.9905 0.0908203L44.0057 14.1064L29.9905 28.1216ZM17.8443 14.1064L29.9905 26.2527L42.1372 14.1064L29.9905 1.95973L17.8443 14.1064ZM45.8746 44.0057L31.8594 29.99L45.8746 15.9749L59.8897 29.99L45.8746 44.0057ZM33.7279 29.99L45.8746 42.1368L58.0208 29.99L45.8746 17.8438L33.7279 29.99ZM29.9905 59.8893L15.9754 45.8741L29.9905 31.8589L44.0057 45.8741L29.9905 59.8893ZM17.8443 45.8741L29.9905 58.0204L42.1372 45.8741L29.9905 33.7279L17.8443 45.8741Z"
                      fill="white" />
                  </svg>