<svg width="49" height="60" viewBox="0 0 49 60" fill="none" xmlns="http://www.w3.org/2000/svg">
<g clip-path="url(#clip0)">
<path d="M28.9205 31.6894C27.9266 31.7032 29.1084 32.2015 30.4059 32.4012C30.7437 32.1376 31.0686 31.8578 31.3794 31.5627C30.5713 31.7607 29.7489 31.7653 28.9205 31.6896" fill="#A80030"/>
<path d="M34.2547 30.3597C34.8466 29.543 35.2779 28.6487 35.4301 27.7239C35.2972 28.3831 34.9393 28.9523 34.6026 29.5528C32.7449 30.7226 34.4279 28.8582 34.6015 28.1497C32.6038 30.6641 34.327 29.6575 34.2547 30.3599" fill="#A80030"/>
<path d="M36.2234 25.236C36.3436 23.4464 35.8714 24.0121 35.7124 24.6952C35.8979 24.7914 36.0444 25.9567 36.2234 25.2362" fill="#A80030"/>
<path d="M25.1519 0.773682C25.6822 0.868887 26.2977 0.941757 26.2114 1.06838C26.7917 0.94119 26.9233 0.824029 25.1519 0.773682" fill="#A80030"/>
<path d="M26.2117 1.06836L25.8369 1.14596L26.1857 1.11492L26.2117 1.06836Z" fill="#A80030"/>
<path d="M42.7507 25.9146C42.8097 27.5219 42.2805 28.3017 41.8031 29.6821L40.9442 30.1114C40.2413 31.4763 41.0124 30.9781 40.5089 32.0638C39.4117 33.0393 37.179 35.1168 36.4645 35.3064C35.9428 35.2947 36.8178 34.6907 36.9324 34.4541C35.4634 35.4629 35.7537 35.9683 33.5071 36.5812L33.4414 36.4352C27.9006 39.0417 20.2041 33.8763 20.3053 26.8277C20.2461 27.2751 20.1371 27.1635 20.0144 27.3444C19.7284 23.7179 21.6891 20.0753 24.9959 18.5882C28.2303 16.9869 32.0222 17.6441 34.3389 19.8033C33.0662 18.1362 30.5332 16.3691 27.5311 16.5346C24.5905 16.5809 21.8396 18.45 20.9214 20.4785C19.4148 21.4271 19.2401 24.1349 18.5835 24.6304C17.7004 31.1217 20.245 33.9264 24.5495 37.2255C25.2271 37.6824 24.7404 37.7517 24.8322 38.0994C23.4019 37.4295 22.0923 36.4186 21.0155 35.1807C21.5867 36.0171 22.2034 36.8301 23.0004 37.4689C21.652 37.012 19.8507 34.2012 19.3247 34.0869C21.6492 38.2487 28.7557 41.3857 32.4766 39.8295C30.755 39.8929 28.5676 39.8647 26.633 39.1496C25.8204 38.7315 24.7156 37.8654 24.9129 37.7034C29.9911 39.6005 35.237 39.1402 39.6312 35.6176C40.7491 34.7471 41.9703 33.266 42.3231 33.2456C41.7916 34.0447 42.4139 33.6298 42.0057 34.3358C43.1195 32.5394 41.5217 33.6045 43.157 31.2336L43.761 32.0653C43.5365 30.5742 45.6127 28.7636 45.402 26.4052C45.8782 25.6841 45.9335 27.1812 45.4279 28.8404C46.1294 26.9997 45.6127 26.7039 45.7931 25.1852C45.9878 25.6956 46.2433 26.2383 46.3743 26.777C45.9174 24.9982 46.8433 23.7815 47.0724 22.7477C46.8466 22.6477 46.3671 23.5343 46.2575 21.4332C46.2736 20.5205 46.5115 20.9547 46.6033 20.7302C46.4241 20.6272 45.9541 19.9277 45.6681 18.5857C45.8754 18.2706 46.2221 19.4034 46.5043 19.4498C46.3228 18.3828 46.0103 17.5693 45.9977 16.7507C45.1736 15.0285 45.7062 16.9803 45.0375 16.0114C44.1604 13.2753 45.7654 15.3764 45.8739 14.133C47.2033 16.0595 47.9616 19.0449 48.3095 20.2816C48.0441 18.7739 47.6148 17.3132 47.0911 15.9001C47.4948 16.0699 46.4407 12.7979 47.616 14.9651C46.3605 10.3457 42.2428 6.02945 38.4549 4.00421C38.9184 4.42818 39.5035 4.96099 39.2934 5.04446C37.4095 3.92282 37.7409 3.83538 37.471 3.36143C35.9362 2.73702 35.8357 3.41178 34.8189 3.36257C31.9264 1.82831 31.369 1.99146 28.7071 1.03033L28.8282 1.59626C26.9118 0.957837 26.5953 1.83834 24.5241 1.59815C24.398 1.49973 25.1879 1.24213 25.8377 1.14768C23.9848 1.39184 24.0717 0.78238 22.2587 1.21506C22.7055 0.901434 23.178 0.693989 23.6547 0.42749C22.1438 0.519288 20.0476 1.30686 20.6945 0.590645C18.2301 1.69014 13.8532 3.23367 11.397 5.53676L11.3194 5.02061C10.1941 6.37203 6.41147 9.05594 6.11014 10.8058L5.8092 10.876C5.22358 11.8678 4.84465 12.9915 4.38018 14.0119C3.61418 15.3171 3.2574 14.5142 3.36642 14.7188C1.8598 17.7734 1.11141 20.3403 0.464844 22.4452C0.925727 23.1338 0.476011 26.5903 0.650333 29.357C-0.106387 43.0201 10.2394 56.286 21.5481 59.349C23.2056 59.9418 25.6705 59.9191 27.7673 59.98C25.2935 59.2725 24.9736 59.6051 22.5642 58.7649C20.8257 57.9463 20.4447 57.0117 19.2136 55.9432L19.7008 56.8044C17.286 55.9498 18.2964 55.7467 16.3321 55.1246L16.8526 54.4449C16.07 54.3857 14.7795 53.1257 14.4267 52.4284L13.5706 52.4621C12.5419 51.1928 11.9937 50.2778 12.0337 49.5696L11.757 50.0623C11.4433 49.5241 7.97241 45.302 9.77317 46.2849C9.43853 45.979 8.99393 45.7871 8.51166 44.911L8.87828 44.4917C8.0116 43.3769 7.28327 41.9477 7.33853 41.4715C7.80093 42.0959 8.12175 42.2125 8.43917 42.3194C6.25059 36.8891 6.12794 42.0202 4.47027 36.7918L4.821 36.7636C4.55223 36.3588 4.38907 35.9191 4.17273 35.4879L4.32548 33.9667C2.74977 32.145 3.88447 26.2205 4.11197 22.9712C4.26945 21.6501 5.42705 20.2434 6.30756 18.0378L5.77115 17.9454C6.79645 16.1568 11.626 10.7621 13.8626 11.0397C14.946 9.67885 13.6474 11.0348 13.4356 10.6918C15.8154 8.229 16.5638 8.95184 18.17 8.50894C19.902 7.4808 16.6832 8.90982 17.5045 8.11676C20.4988 7.35191 19.6266 6.3779 23.5329 5.9897C23.9451 6.22421 22.5768 6.35197 22.2333 6.65613C24.7281 5.4355 30.1283 5.71317 33.636 7.33374C37.7061 9.23576 42.2788 14.8582 42.4592 20.1484L42.6643 20.2036C42.5602 22.3065 42.9861 24.7383 42.2483 26.9721L42.7507 25.9146" fill="#A80030"/>
<path d="M18.0724 33.0537L17.9331 33.7506C18.5861 34.6377 19.1045 35.5989 19.9385 36.2926C19.3385 35.121 18.8927 34.6372 18.0724 33.0537Z" fill="#A80030"/>
<path d="M19.6166 32.993C19.2708 32.6107 19.0662 32.1508 18.8374 31.6921C19.0564 32.4979 19.5048 33.1904 19.9225 33.8945L19.6166 32.993Z" fill="#A80030"/>
<path d="M46.9408 27.0542L46.7948 27.4203C46.5272 29.3217 45.9492 31.2033 45.063 32.9476C46.0421 31.1069 46.6754 29.094 46.9408 27.0542Z" fill="#A80030"/>
<path d="M25.348 0.297161C26.0199 0.0509148 27 0.162019 27.713 0C26.7837 0.0779811 25.859 0.124353 24.9458 0.242271L25.348 0.297161Z" fill="#A80030"/>
<path d="M1.75653 12.8418C1.91155 14.2754 0.678049 14.8318 2.02985 13.8866C2.75439 12.2545 1.74669 13.4359 1.75653 12.8418Z" fill="#A80030"/>
<path d="M0.168368 19.4763C0.479724 18.5207 0.536128 17.9466 0.655181 17.3936C-0.205449 18.4936 0.259219 18.7279 0.168368 19.4763Z" fill="#A80030"/>
</g>
<defs>
<clipPath id="clip0">
<rect width="48.4543" height="60" fill="white"/>
</clipPath>
</defs>
</svg>
