<svg width="49" height="60" viewBox="0 0 49 60" fill="none" xmlns="http://www.w3.org/2000/svg">
<g clip-path="url(#clip0)">
<path d="M28.9205 31.6891C27.9266 31.7029 29.1084 32.2013 30.4059 32.401C30.7437 32.1374 31.0686 31.8575 31.3794 31.5625C30.5713 31.7605 29.7489 31.765 28.9205 31.6893" fill="#6F8BA4"/>
<path d="M34.2547 30.3595C34.8466 29.5427 35.2779 28.6484 35.4301 27.7236C35.2972 28.3829 34.9393 28.952 34.6026 29.5526C32.7449 30.7223 34.4279 28.858 34.6015 28.1495C32.6038 30.6638 34.327 29.6573 34.2547 30.3597" fill="#6F8BA4"/>
<path d="M36.2239 25.236C36.3441 23.4464 35.8719 24.0121 35.7129 24.6952C35.8984 24.7914 36.0449 25.9567 36.2239 25.2362" fill="#6F8BA4"/>
<path d="M25.1519 0.773926C25.6822 0.869131 26.2977 0.942002 26.2114 1.06863C26.7917 0.941434 26.9233 0.824273 25.1519 0.773926Z" fill="#6F8BA4"/>
<path d="M26.2112 1.06836L25.8364 1.14596L26.1853 1.11492L26.2112 1.06836Z" fill="#6F8BA4"/>
<path d="M42.7502 25.9146C42.8092 27.5219 42.28 28.3017 41.8027 29.6821L40.9437 30.1114C40.2408 31.4763 41.0119 30.9781 40.5084 32.0638C39.4112 33.0393 37.1785 35.1168 36.464 35.3064C35.9423 35.2947 36.8174 34.6907 36.9319 34.4541C35.4629 35.4629 35.7533 35.9683 33.5066 36.5812L33.4409 36.4352C27.9001 39.0417 20.2036 33.8763 20.3049 26.8277C20.2456 27.2751 20.1366 27.1635 20.0139 27.3444C19.728 23.7179 21.6886 20.0753 24.9955 18.5882C28.2298 16.9869 32.0217 17.6441 34.3384 19.8033C33.0657 18.1362 30.5327 16.3691 27.5306 16.5346C24.59 16.5809 21.8391 18.45 20.9209 20.4785C19.4143 21.4271 19.2396 24.1349 18.583 24.6304C17.6999 31.1217 20.2445 33.9264 24.549 37.2255C25.2266 37.6824 24.7399 37.7517 24.8317 38.0993C23.4014 37.4295 22.0918 36.4186 21.015 35.1807C21.5862 36.0171 22.2029 36.8301 22.9999 37.4689C21.6515 37.012 19.8502 34.2012 19.3242 34.0869C21.6487 38.2487 28.7552 41.3857 32.4762 39.8295C30.7545 39.8929 28.5671 39.8647 26.6325 39.1496C25.8199 38.7315 24.7151 37.8654 24.9124 37.7034C29.9906 39.6005 35.2365 39.1402 39.6307 35.6176C40.7486 34.7471 41.9698 33.266 42.3226 33.2456C41.7911 34.0447 42.4134 33.6298 42.0052 34.3358C43.1191 32.5394 41.5212 33.6045 43.1565 31.2336L43.7605 32.0653C43.536 30.5742 45.6122 28.7636 45.4015 26.4052C45.8777 25.6841 45.933 27.1812 45.4275 28.8404C46.1289 26.9997 45.6122 26.7039 45.7926 25.1852C45.9873 25.6956 46.2428 26.2383 46.3738 26.777C45.9169 24.9982 46.8428 23.7815 47.0719 22.7477C46.8461 22.6477 46.3666 23.5343 46.257 21.4332C46.2731 20.5205 46.511 20.9547 46.6028 20.7302C46.4236 20.6272 45.9536 19.9277 45.6676 18.5857C45.8749 18.2706 46.2216 19.4034 46.5039 19.4498C46.3223 18.3828 46.0098 17.5693 45.9972 16.7507C45.1731 15.0285 45.7057 16.9803 45.037 16.0114C44.1599 13.2753 45.7649 15.3764 45.8734 14.133C47.2028 16.0595 47.9611 19.0449 48.309 20.2816C48.0436 18.7739 47.6143 17.3132 47.0906 15.9001C47.4943 16.0699 46.4403 12.7979 47.6155 14.9651C46.36 10.3457 42.2423 6.02945 38.4544 4.00421C38.9179 4.42818 39.503 4.96099 39.2929 5.04446C37.409 3.92282 37.7404 3.83538 37.4705 3.36143C35.9357 2.73702 35.8352 3.41178 34.8184 3.36257C31.9259 1.82831 31.3685 1.99146 28.7066 1.03033L28.8277 1.59626C26.9113 0.957837 26.5948 1.83834 24.5236 1.59815C24.3975 1.49973 25.1874 1.24213 25.8372 1.14768C23.9844 1.39184 24.0712 0.78238 22.2582 1.21506C22.705 0.901433 23.1775 0.693989 23.6543 0.42749C22.1433 0.519288 20.0471 1.30686 20.694 0.590645C18.2297 1.69014 13.8527 3.23367 11.3965 5.53676L11.3189 5.02061C10.1936 6.37203 6.41098 9.05594 6.10966 10.8058L5.80871 10.876C5.22309 11.8678 4.84417 12.9915 4.37969 14.0119C3.61369 15.3171 3.25691 14.5142 3.36593 14.7188C1.85931 17.7734 1.11092 20.3403 0.464355 22.4452C0.925239 23.1338 0.475523 26.5903 0.649844 29.357C-0.106875 43.0201 10.2389 56.286 21.5476 59.349C23.2051 59.9418 25.67 59.9191 27.7668 59.98C25.293 59.2725 24.9731 59.6051 22.5637 58.7649C20.8252 57.9463 20.4442 57.0117 19.2131 55.9432L19.7003 56.8044C17.2856 55.9498 18.2959 55.7467 16.3316 55.1246L16.8521 54.4449C16.0695 54.3857 14.779 53.1257 14.4262 52.4284L13.5701 52.4621C12.5414 51.1928 11.9933 50.2778 12.0332 49.5696L11.7565 50.0623C11.4428 49.5241 7.97193 45.302 9.77268 46.2849C9.43805 45.979 8.99344 45.7871 8.51117 44.911L8.87779 44.4917C8.01111 43.3769 7.28278 41.9477 7.33805 41.4715C7.80044 42.0959 8.12126 42.2125 8.43868 42.3194C6.2501 36.8891 6.12745 42.0202 4.46978 36.7918L4.82051 36.7636C4.55174 36.3588 4.38858 35.9191 4.17224 35.4879L4.32499 33.9667C2.74928 32.145 3.88398 26.2205 4.11149 22.9712C4.26896 21.6501 5.42656 20.2434 6.30707 18.0378L5.77066 17.9454C6.79596 16.1568 11.6255 10.7621 13.8621 11.0397C14.9456 9.67885 13.6469 11.0348 13.4351 10.6918C15.8149 8.229 16.5633 8.95184 18.1695 8.50894C19.9015 7.4808 16.6827 8.90982 17.504 8.11676C20.4983 7.35191 19.6261 6.3779 23.5324 5.9897C23.9446 6.22421 22.5763 6.35197 22.2328 6.65613C24.7276 5.4355 30.1278 5.71317 33.6355 7.33374C37.7056 9.23576 42.2783 14.8582 42.4587 20.1484L42.6639 20.2036C42.5598 22.3065 42.9856 24.7383 42.2478 26.9721L42.7502 25.9146Z" fill="#6F8BA4"/>
<path d="M18.0724 33.0537L17.9331 33.7506C18.5861 34.6377 19.1045 35.5989 19.9385 36.2926C19.3385 35.121 18.8927 34.6372 18.0724 33.0537Z" fill="#6F8BA4"/>
<path d="M19.6166 32.993C19.2708 32.6107 19.0662 32.1508 18.8374 31.6921C19.0564 32.4979 19.5048 33.1904 19.9225 33.8945L19.6166 32.993Z" fill="#6F8BA4"/>
<path d="M46.9403 27.0542L46.7944 27.4203C46.5267 29.3217 45.9487 31.2033 45.0625 32.9476C46.0416 31.1069 46.6749 29.094 46.9403 27.0542Z" fill="#6F8BA4"/>
<path d="M25.348 0.297161C26.0199 0.0509148 27 0.162019 27.713 0C26.7837 0.0779811 25.8591 0.124353 24.9458 0.242271L25.348 0.297161Z" fill="#6F8BA4"/>
<path d="M1.75702 12.8418C1.91204 14.2754 0.678538 14.8318 2.03034 13.8866C2.75488 12.2545 1.74718 13.4359 1.75702 12.8418Z" fill="#6F8BA4"/>
<path d="M0.168368 19.4763C0.479724 18.5207 0.536128 17.9466 0.655181 17.3936C-0.205449 18.4936 0.259219 18.7279 0.168368 19.4763Z" fill="#6F8BA4"/>
</g>
<defs>
<clipPath id="clip0">
<rect width="48.4543" height="60" fill="white"/>
</clipPath>
</defs>
</svg>
