<svg width="60" height="60" viewBox="0 0 60 60" fill="none" xmlns="http://www.w3.org/2000/svg">
<path d="M60 30.0009C60 13.432 46.5682 0 29.9995 0C13.4381 0 0.0117188 13.4208 0 29.9798V53.1956C0.00890625 56.9555 3.05836 59.9993 6.82055 59.9993H30.0117C46.575 59.9927 60 46.5654 60 30.0009Z" fill="#294172"/>
<path d="M38.8073 7.10352C31.0474 7.10352 24.7343 13.4164 24.7343 21.1766V28.6461H17.2957C9.53578 28.6461 3.22266 34.9595 3.22266 42.7194C3.22266 50.4791 9.53578 56.7924 17.2957 56.7924C25.0556 56.7924 31.3687 50.4791 31.3687 42.7194V35.2496H38.8073C46.5673 35.2496 52.8806 28.9365 52.8806 21.1766C52.8806 13.4164 46.5673 7.10352 38.8073 7.10352V7.10352ZM24.7863 42.7194C24.7863 46.8495 21.4261 50.2098 17.2957 50.2098C13.1653 50.2098 9.80508 46.8495 9.80508 42.7194C9.80508 38.589 13.1653 35.2287 17.2957 35.2287H24.7343V35.2496H24.7863V42.7194V42.7194ZM38.8073 28.6672H31.3687V28.6461H31.317V21.1766C31.317 17.0462 34.6772 13.6859 38.8073 13.6859C42.9375 13.6859 46.298 17.0462 46.298 21.1766C46.298 25.307 42.9375 28.6672 38.8073 28.6672V28.6672Z" fill="#3C6EB4"/>
<path d="M41.9185 7.53041C40.8263 7.24494 39.9877 7.11182 38.8081 7.11182C31.0322 7.11182 24.728 13.4163 24.728 21.1917V28.6546H18.8311C16.9925 28.6546 15.5065 30.0996 15.5077 31.9349C15.5077 33.7588 16.9772 35.2099 18.7964 35.2099L23.6787 35.2108C24.2583 35.2108 24.7285 35.6796 24.7285 36.2582V42.716C24.7212 46.8154 21.3959 50.136 17.2964 50.136C15.9078 50.136 15.5639 49.9542 14.6159 49.9542C12.6244 49.9542 11.292 51.2892 11.292 53.1248C11.2925 54.6433 12.5937 55.9488 14.1861 56.3655C15.2782 56.651 16.1168 56.7843 17.2964 56.7843C25.0723 56.7843 31.3765 50.4799 31.3765 42.7042V35.2415H37.2734C39.1121 35.2415 40.598 33.7966 40.5968 31.9612C40.5968 30.1371 39.1273 28.6863 37.3081 28.6863L32.4258 28.6853C32.1477 28.6856 31.8809 28.5754 31.684 28.3789C31.4871 28.1824 31.3764 27.9158 31.3761 27.6377V21.1799C31.3833 17.0805 34.7086 13.7599 38.8081 13.7599C40.1968 13.7599 40.5406 13.942 41.4886 13.942C43.4801 13.942 44.8125 12.6067 44.8125 10.7713C44.8121 9.2526 43.5108 7.94713 41.9185 7.53041Z" fill="white"/>
</svg>
