<svg width="60" height="60" viewBox="0 0 60 60" fill="none" xmlns="http://www.w3.org/2000/svg">
<path d="M30 0C46.5525 0 60 13.4475 60 30C60 46.5525 46.5525 60 30 60C13.4475 60 0 46.5525 0 30C0 13.4475 13.4475 0 30 0ZM38.1938 44.1994C37.2743 44.7317 36.6039 45.6075 36.3302 46.6341C36.0564 47.6607 36.2017 48.754 36.7341 49.6734C37.2664 50.5929 38.1422 51.2633 39.1688 51.537C40.1954 51.8107 41.2887 51.6655 42.2081 51.1331C42.6636 50.8703 43.0627 50.5202 43.3825 50.1027C43.7023 49.6853 43.9365 49.2088 44.0717 48.7007C44.2068 48.1925 44.2403 47.6626 44.1702 47.1415C44.1001 46.6203 43.9278 46.1181 43.6631 45.6637C43.4011 45.2075 43.0515 44.8075 42.6344 44.4868C42.2174 44.1661 41.741 43.9309 41.2328 43.7948C40.7245 43.6588 40.1944 43.6245 39.6729 43.6939C39.1514 43.7633 38.6487 43.9351 38.1938 44.1994ZM30 41.7C28.2971 41.7007 26.6144 41.3309 25.0688 40.6163L22.2862 45.5963C24.6845 46.7851 27.3251 47.4037 30.0019 47.4037C31.6125 47.4037 33.1763 47.1787 34.65 46.7588C34.7845 45.9369 35.0994 45.155 35.5721 44.4693C36.0448 43.7836 36.6635 43.2112 37.3838 42.7931C38.1054 42.375 38.9112 42.123 39.7425 42.0555C40.5738 41.9881 41.4097 42.1068 42.1894 42.4031C45.2532 39.4109 47.0973 35.388 47.3644 31.1138L41.6513 31.035C41.3926 33.9469 40.0533 36.6565 37.8969 38.6304C35.7406 40.6042 32.9234 41.6993 30 41.7ZM18.3 30C18.2989 28.1229 18.7501 26.2731 19.6153 24.6073C20.4805 22.9415 21.7343 21.5086 23.2706 20.43L20.3512 15.5269C16.7948 17.8894 14.2299 21.4758 13.1438 25.605C13.7955 26.128 14.3209 26.7912 14.681 27.5453C15.041 28.2994 15.2263 29.125 15.2231 29.9606C15.2231 31.7194 14.4131 33.2606 13.1438 34.3069C14.2285 38.4392 16.7934 42.0291 20.3512 44.3944L23.2706 39.4819C21.7334 38.4248 20.4773 37.0088 19.6111 35.3565C18.745 33.7042 18.2949 31.8656 18.3 30ZM9.6 25.9969C7.38375 25.9969 5.59687 27.7838 5.59687 30C5.59687 32.2163 7.38375 34.0031 9.6 34.0031C11.8162 34.0031 13.6031 32.2163 13.6031 30C13.6031 27.7838 11.8162 25.9969 9.6 25.9969ZM30 18.3C32.9234 18.3007 35.7406 19.3958 37.8969 21.3696C40.0533 23.3435 41.3926 26.0531 41.6513 28.965L47.3644 28.8769C47.0888 24.6048 45.2461 20.5847 42.1894 17.5875C40.665 18.1631 38.9081 18.075 37.3838 17.2069C36.662 16.786 36.0424 16.2104 35.5697 15.5215C35.097 14.8325 34.7829 14.0474 34.65 13.2225C33.135 12.8099 31.572 12.6 30.0019 12.5981C27.3248 12.596 24.6838 13.2147 22.2862 14.4056L25.0688 19.3856C26.6145 18.6712 28.2971 18.3014 30 18.3019V18.3ZM38.1938 15.8006C39.115 16.3308 40.2087 16.4744 41.2355 16.1999C42.2624 15.9255 43.1386 15.2553 43.6725 14.3363C44.0691 13.6498 44.2532 12.8612 44.2017 12.0702C44.1501 11.2791 43.8652 10.5211 43.3829 9.89194C42.9006 9.26279 42.2426 8.79076 41.492 8.53554C40.7415 8.28031 39.9321 8.25335 39.1663 8.45805C38.4004 8.66275 37.7124 9.08993 37.1893 9.68557C36.6662 10.2812 36.3315 11.0186 36.2274 11.8045C36.1233 12.5904 36.2545 13.3895 36.6045 14.1008C36.9545 14.8121 37.5076 15.4036 38.1938 15.8006Z" fill="#6F8BA4"/>
</svg>
