<svg width="60" height="60" viewBox="0 0 60 60" fill="none" xmlns="http://www.w3.org/2000/svg">
<path d="M60.0009 30.0004C60.0009 46.5683 46.5695 60 30.0006 60C13.4312 60 0 46.5683 0 30.0004C0 13.4315 13.4317 0 30.0006 0C46.5697 0 60.0009 13.4315 60.0009 30.0004Z" fill="#DD4814"/>
<path d="M9.60128 25.9943C7.38819 25.9943 5.59521 27.7873 5.59521 30.0004C5.59521 32.2123 7.38819 34.0055 9.60128 34.0055C11.8134 34.0055 13.6064 32.2123 13.6064 30.0004C13.6064 27.7873 11.8134 25.9943 9.60128 25.9943ZM38.1994 44.1985C36.2838 45.3052 35.6266 47.7534 36.7332 49.6681C37.8387 51.584 40.287 52.2407 42.2029 51.1343C44.1185 50.0288 44.7754 47.5805 43.669 45.6644C42.5635 43.75 40.1138 43.0932 38.1994 44.1985ZM18.3016 30.0004C18.3016 26.0422 20.2677 22.5451 23.2759 20.4276L20.3476 15.5231C16.8434 17.8656 14.2359 21.445 13.1522 25.6374C14.4168 26.6689 15.226 28.2396 15.226 30.0001C15.226 31.7597 14.4168 33.3304 13.1522 34.3621C14.2344 38.5555 16.842 42.1353 20.3476 44.4779L23.2759 39.5719C20.2677 37.4556 18.3016 33.9587 18.3016 30.0004V30.0004ZM30.0007 18.3001C36.1127 18.3001 41.1272 22.9861 41.6535 28.9625L47.3607 28.8784C47.0802 24.4663 45.1525 20.5054 42.1911 17.5928C40.6681 18.1683 38.9087 18.0801 37.3885 17.2037C35.8653 16.3248 34.9102 14.8419 34.6491 13.2325C33.1351 12.8135 31.5714 12.6009 30.0005 12.6004C27.3256 12.5977 24.6864 13.2139 22.2893 14.4009L25.0724 19.3884C26.616 18.67 28.2982 18.2985 30.0007 18.3001V18.3001ZM30.0007 41.6997C28.2983 41.7012 26.6161 41.3297 25.0727 40.6114L22.2896 45.5984C24.6863 46.7867 27.3258 47.4036 30.0009 47.4008C31.5719 47.4004 33.1356 47.1872 34.6494 46.7671C34.9104 45.1576 35.8658 43.6762 37.3885 42.7958C38.9101 41.9177 40.6683 41.8313 42.1911 42.4067C45.1528 39.4941 47.0802 35.5332 47.3612 31.1211L41.6524 31.037C41.1272 37.0151 36.1129 41.6995 30.0007 41.6995V41.6997ZM38.198 15.7999C40.1138 16.9061 42.5624 16.251 43.6676 14.3351C44.7743 12.4193 44.1187 9.97075 42.2029 8.86409C40.287 7.75884 37.8387 8.41532 36.7318 10.3312C35.6268 12.2461 36.2835 14.6944 38.198 15.7999Z" fill="white"/>
</svg>
