<svg width="44" height="64" viewBox="0 0 44 64" fill="none" xmlns="http://www.w3.org/2000/svg">
<path d="M14.5115 5.2168V2.25175C14.5115 1.69264 14.9617 1.23961 15.5173 1.23961C16.073 1.23961 16.5225 1.69264 16.5225 2.25175V5.21747C16.5225 5.77592 16.073 6.22961 15.5173 6.22961C14.9617 6.22895 14.5115 5.77592 14.5115 5.2168ZM9.04524 7.23442C9.23155 7.55801 9.56972 7.74016 9.9165 7.74016C10.0876 7.74016 10.2606 7.69679 10.4184 7.60405C10.8991 7.32449 11.0642 6.706 10.7864 6.22228L8.89737 2.92896C8.61955 2.44391 8.00357 2.27911 7.52352 2.558C7.0428 2.83756 6.8777 3.45672 7.15486 3.94044L9.04524 7.23442ZM0.86376 9.14596L5.31222 11.7307C5.47069 11.8228 5.64308 11.8661 5.81415 11.8661C6.16093 11.8661 6.49909 11.6853 6.68541 11.3604C6.96323 10.876 6.79879 10.2575 6.31741 9.97796L1.86896 7.39322C1.38824 7.11366 0.772921 7.27979 0.4951 7.76351C0.217278 8.24723 0.383043 8.8664 0.86376 9.14596ZM1.36636 17.502H4.31431C4.86929 17.502 5.31951 17.049 5.31951 16.4899C5.31951 15.9307 4.86929 15.4777 4.31431 15.4777H1.36636C0.811379 15.4777 0.360499 15.9307 0.360499 16.4899C0.360499 17.049 0.811379 17.502 1.36636 17.502ZM25.7152 16.4899C25.7152 17.0483 26.1647 17.502 26.7204 17.502L30.4063 17.5027C30.962 17.5027 31.4115 17.0496 31.4115 16.4905C31.4115 15.9314 30.962 15.4784 30.4063 15.4784H26.7204C26.1647 15.4784 25.7152 15.9314 25.7152 16.4899ZM24.348 11.3584C24.5343 11.6833 24.8724 11.8648 25.2205 11.8648C25.3916 11.8648 25.564 11.8214 25.7218 11.7294L28.9052 9.88055C29.3872 9.60099 29.5503 8.98182 29.2732 8.4981C28.9973 8.01438 28.382 7.84758 27.9006 8.1278L24.7173 9.97662C24.2366 10.2562 24.0708 10.8747 24.348 11.3584ZM20.6156 7.60272C20.7741 7.69479 20.9465 7.73883 21.1175 7.73883C21.4643 7.73883 21.8038 7.55801 21.9888 7.23309L25.2683 1.51783C25.5468 1.03344 25.3823 0.415614 24.9003 0.136056C24.4196 -0.144169 23.8049 0.0226314 23.5278 0.506353L20.2476 6.22161C19.9698 6.70466 20.1349 7.32316 20.6156 7.60272ZM43.1231 34.4263V48.2207C43.1231 48.3454 43.1012 48.4669 43.0581 48.5816C42.8612 49.0994 38.2536 61.2691 38.0076 61.8609C37.4467 63.22 36.4547 64 35.2858 64H15.7965C13.442 64 13.2596 62.8778 13.2596 61.2932C13.2596 60.7374 13.259 60.0448 13.257 59.4163C13.257 59.409 13.2563 59.405 13.2563 59.3983C13.2563 59.3936 13.257 59.3883 13.257 59.383C13.257 59.2202 13.257 59.0614 13.257 58.9112C13.2557 58.3715 13.0793 57.7056 12.8286 57.2919C11.4647 55.0388 4.5497 43.6196 2.31519 40.0014C0.75303 37.4727 0.190757 35.5818 0.546819 34.0526C0.800107 32.9657 1.50428 32.0757 2.69911 31.3311C5.30161 29.7085 7.41411 30.3476 10.4741 33.9579V16.0742C10.4741 13.2766 12.7365 11.0001 15.5167 11.0001C18.2976 11.0001 20.5592 13.2766 20.5592 16.0742V23.0952H23.6299C25.7808 23.0952 27.6148 24.4589 28.3402 26.3705H30.9215C32.9598 26.3705 34.7149 27.5961 35.5099 29.3508H38.0819C40.8621 29.3515 43.1231 31.628 43.1231 34.4263ZM36.1504 61.0843C36.1789 61.0189 36.2724 60.7781 36.4123 60.4111H15.27C15.2707 60.722 15.2714 61.0236 15.2714 61.2932C15.2714 61.472 15.2714 61.7635 15.2859 61.953C15.3861 61.9657 15.5459 61.9757 15.7965 61.9757H35.2858C35.7479 61.9764 36.0655 61.2932 36.1504 61.0843ZM41.1121 34.4263C41.1121 32.7436 39.7534 31.3758 38.0819 31.3758H35.9608C35.9608 31.3992 35.9634 31.4218 35.9634 31.4452V35.3864C35.9634 35.9455 35.5125 36.3985 34.9569 36.3985C34.4026 36.3985 33.9517 35.9455 33.9517 35.3864V31.4452C33.9517 29.7632 32.5918 28.3947 30.9215 28.3947H28.6731V32.7836C28.6731 33.3427 28.2235 33.7957 27.6679 33.7957C27.1122 33.7957 26.6614 33.3427 26.6614 32.7836V28.1699C26.6614 26.4879 25.3014 25.1194 23.6299 25.1194H20.5592V32.7823C20.5592 33.3414 20.109 33.7944 19.5534 33.7944C18.9977 33.7944 18.5482 33.3414 18.5482 32.7823V16.0742C18.5482 14.3922 17.1883 13.0237 15.5167 13.0237C13.8451 13.0237 12.4852 14.3922 12.4852 16.0742V41.6027C12.4852 42.1618 12.035 42.6148 11.4793 42.6148C10.9237 42.6148 10.4735 42.1618 10.4735 41.6027V37.2105C10.4688 37.2038 10.4615 37.1985 10.4556 37.1918C6.24249 31.5012 4.97936 32.2899 3.75735 33.0511C2.80055 33.6476 2.58373 34.1727 2.50417 34.5143C2.28403 35.4597 2.79525 36.9463 4.02257 38.9332C6.26172 42.5588 13.1807 53.9853 14.5453 56.2384C14.9053 56.8342 15.1533 57.6215 15.2349 58.3875H37.1848C38.3464 55.3344 40.1838 50.4838 41.1114 48.0352L41.1121 34.4263Z" fill="white"/>
</svg>
