<svg width="65" height="65" viewBox="0 0 92 65" fill="none" xmlns="http://www.w3.org/2000/svg">
<path d="M28.9593 16.8281H2.56021C1.35886 16.8281 0.384033 17.8019 0.384033 19.0033C0.384033 20.2057 1.35886 21.1784 2.56021 21.1784H26.8344C27.4248 19.6624 28.1342 18.2068 28.9593 16.8281Z" fill="#fff"/>
<path d="M59.8521 64.782C42.2059 64.782 27.8501 50.4262 27.8501 32.781C27.8501 15.1368 42.2059 0.781982 59.8521 0.781982C77.4953 0.781982 91.8511 15.1368 91.8511 32.781C91.8511 50.4262 77.4953 64.782 59.8521 64.782ZM59.8521 6.7652C45.5045 6.7652 33.8333 18.4364 33.8333 32.781C33.8333 47.1265 45.5045 58.7998 59.8521 58.7998C74.1957 58.7998 85.8669 47.1265 85.8669 32.781C85.8669 18.4364 74.1967 6.7652 59.8521 6.7652Z" fill="#fff"/>
<path d="M62.7666 28.9083V17.2596C62.7666 16.0572 61.7929 15.0845 60.5905 15.0845C59.3912 15.0845 58.4174 16.0572 58.4174 17.2596V28.9073C57.4507 29.5899 56.8173 30.7134 56.8173 31.9875C56.8173 32.2284 56.8429 32.4632 56.8859 32.6928L46.5493 43.3871C45.715 44.2523 45.7375 45.6299 46.6016 46.4633C47.025 46.8713 47.5693 47.0752 48.1136 47.0752C48.6835 47.0752 49.2514 46.8528 49.6788 46.412L60.0164 35.7136C60.2071 35.7413 60.3967 35.7618 60.5915 35.7618C62.6785 35.7618 64.3688 34.0725 64.3688 31.9875C64.3678 30.7134 63.7363 29.591 62.7666 28.9083Z" fill="#fff"/>
<path d="M24.8602 31.6946C24.8602 30.525 24.9381 29.3749 25.0714 28.2422H10.7176C9.5173 28.2422 8.54248 29.216 8.54248 30.4184C8.54248 31.6197 9.5173 32.5935 10.7176 32.5935H24.8838C24.8736 32.2942 24.8602 31.9949 24.8602 31.6946Z" fill="#fff"/>
<path d="M25.9763 39.6589H18.8768C17.6755 39.6589 16.7017 40.6317 16.7017 41.8341C16.7017 43.0365 17.6755 44.0103 18.8768 44.0103H27.6031C26.9481 42.6162 26.4058 41.1627 25.9763 39.6589Z" fill="#fff"/>
</svg>
