<svg width="55" height="64" viewBox="0 0 65 64" fill="none" xmlns="http://www.w3.org/2000/svg">
<path d="M38.6731 17.0141C38.3742 16.7165 37.9703 16.5469 37.5473 16.5469C37.1244 16.5469 36.7205 16.7165 36.4216 17.0141L1.44019 52.2141C0.820067 52.8381 0.820067 53.8525 1.44019 54.4765L10.4368 63.5294C10.7357 63.8302 11.1396 63.9998 11.5625 63.9998C11.9855 63.9998 12.3894 63.8302 12.6883 63.5326L47.6697 28.3325C48.2898 27.7085 48.2898 26.6941 47.6697 26.0701L38.6731 17.0141ZM11.5625 60.1373L4.8143 53.3469L28.5508 29.4621L35.299 36.2493L11.5625 60.1373ZM37.5473 33.9869L30.7991 27.1997L37.5473 20.4093L44.2956 27.1997L37.5473 33.9869Z" fill="#1F5AA6"/>
<path d="M43.9074 12.7999H51.8577V20.7999C51.8577 21.6831 52.5701 22.3999 53.4478 22.3999C54.3255 22.3999 55.0378 21.6831 55.0378 20.7999V12.7999H62.9881C63.8658 12.7999 64.5782 12.0831 64.5782 11.2C64.5782 10.3168 63.8658 9.59996 62.9881 9.59996H55.0378V1.59999C55.0378 0.716797 54.3255 0 53.4478 0C52.5701 0 51.8577 0.716797 51.8577 1.59999V9.59996H43.9074C43.0297 9.59996 42.3174 10.3168 42.3174 11.2C42.3174 12.0831 43.0297 12.7999 43.9074 12.7999Z" fill="#1F5AA6"/>
<path d="M62.9883 41.5996H58.2181V37.3468C58.2181 36.4636 57.5057 35.7468 56.628 35.7468C55.7503 35.7468 55.038 36.4636 55.038 37.3468V41.5996H50.2678C49.3901 41.5996 48.6777 42.3164 48.6777 43.1996C48.6777 44.0828 49.3901 44.7996 50.2678 44.7996H55.038V50.1468C55.038 51.03 55.7503 51.7468 56.628 51.7468C57.5057 51.7468 58.2181 51.03 58.2181 50.1468V44.7996H62.9883C63.866 44.7996 64.5783 44.0828 64.5783 43.1996C64.5783 42.3164 63.866 41.5996 62.9883 41.5996Z" fill="#1F5AA6"/>
<path d="M43.9076 48H37.5473C36.6696 48 35.9573 48.7168 35.9573 49.6C35.9573 50.4832 36.6696 51.2 37.5473 51.2H43.9076C44.7853 51.2 45.4976 50.4832 45.4976 49.6C45.4976 48.7168 44.7853 48 43.9076 48Z" fill="#1F5AA6"/>
<path d="M24.8269 12.8H31.1872C32.0649 12.8 32.7772 12.0833 32.7772 11.2001C32.7772 10.3169 32.0649 9.6001 31.1872 9.6001H24.8269C23.9492 9.6001 23.2368 10.3169 23.2368 11.2001C23.2368 12.0833 23.9492 12.8 24.8269 12.8Z" fill="#1F5AA6"/>
</svg>
