<svg width="35" height="32" viewBox="0 0 35 32" fill="none" xmlns="http://www.w3.org/2000/svg">
<path d="M28.7383 0H5.2712C2.36455 0 0 2.36455 0 5.2712V20.962C0 23.8686 2.36455 26.2338 5.2712 26.2338H7.45485L12.6454 32L13.3384 31.1768C13.3617 31.1493 15.5771 28.5207 17.7094 26.2338H28.7377C31.6443 26.2338 34.0089 23.8686 34.0089 20.962V5.2712C34.0089 2.36455 31.6443 0 28.7383 0ZM32.1351 20.962C32.1351 22.8358 30.6108 24.3594 28.7383 24.3594H16.899L16.6215 24.6539C15.1022 26.2668 13.4937 28.1137 12.6032 29.1508L8.28969 24.3587H5.2712C3.39801 24.3587 1.87441 22.8345 1.87441 20.9613V5.2712C1.87441 3.39801 3.39862 1.8738 5.2712 1.8738H28.7377C30.6108 1.8738 32.1345 3.39801 32.1345 5.2712V20.962H32.1351Z" fill="#63B0F2"/>
<path d="M19.9309 5.3922C19.5025 5.07562 19.0007 4.84338 18.4244 4.69609C17.8487 4.5488 17.226 4.47485 16.5561 4.47485C15.8582 4.47485 15.181 4.55736 14.5265 4.72298C13.8713 4.8886 13.2669 5.13673 12.712 5.46798V8.71809C13.2516 8.24323 13.8243 7.88876 14.4287 7.65469C15.0337 7.42122 15.6168 7.30388 16.1784 7.30388C16.4376 7.30388 16.6735 7.34361 16.8855 7.42245C17.0976 7.5019 17.2779 7.60946 17.4252 7.74636C17.5731 7.88326 17.6862 8.04705 17.765 8.23773C17.8444 8.42841 17.8842 8.63559 17.8842 8.85866C17.8842 9.11779 17.8481 9.35369 17.776 9.56576C17.7039 9.77783 17.5963 9.98318 17.4521 10.1812C17.3078 10.3792 17.1337 10.5772 16.9289 10.7746C16.7242 10.9726 16.484 11.1872 16.2108 11.4176C15.9517 11.6333 15.7244 11.8515 15.5306 12.0709C15.3363 12.2903 15.1743 12.5207 15.0441 12.7621C14.9146 13.0035 14.818 13.2608 14.7526 13.534C14.6878 13.8078 14.6554 14.1097 14.6554 14.4409C14.6554 14.6499 14.6756 14.8712 14.7153 15.1053C14.7544 15.3393 14.8107 15.5496 14.8828 15.7372H17.7228C17.6434 15.615 17.5804 15.4634 17.534 15.2837C17.4869 15.104 17.4637 14.9274 17.4637 14.7551C17.4637 14.5033 17.4961 14.2784 17.5609 14.0797C17.6257 13.8817 17.7216 13.6947 17.8469 13.5187C17.9734 13.3427 18.1311 13.1642 18.3224 12.9839C18.5124 12.8043 18.7343 12.6099 18.9861 12.4009C19.3607 12.091 19.692 11.791 19.9798 11.4995C20.2677 11.2079 20.5085 10.9042 20.7034 10.587C20.8972 10.2704 21.0451 9.93368 21.1459 9.57737C21.2467 9.22107 21.2975 8.82321 21.2975 8.3844C21.2975 7.69319 21.1764 7.10098 20.9357 6.60839C20.6949 6.1158 20.3593 5.70877 19.9309 5.3922Z" fill="#1F5AA6"/>
<path d="M16.4596 16.9026C15.8839 16.9026 15.4048 17.0719 15.0234 17.4105C14.6414 17.749 14.4514 18.1701 14.4514 18.6737C14.4514 19.1632 14.6414 19.588 15.0234 19.948C15.4048 20.2939 15.8839 20.4662 16.4596 20.4662C17.0353 20.4662 17.5108 20.2969 17.8848 19.9584C18.2521 19.6198 18.4355 19.192 18.4355 18.6737C18.4355 18.1628 18.2485 17.7417 17.8738 17.4105C17.4998 17.0719 17.028 16.9026 16.4596 16.9026Z" fill="#1F5AA6"/>
</svg>
