<svg width="36" height="34" viewBox="0 0 36 34" fill="none" xmlns="http://www.w3.org/2000/svg">
<path d="M32.8122 14.4094H2.62177C1.72979 14.4094 1 13.6796 1 12.7877V2.62177C1 1.72979 1.72979 1 2.62177 1H32.8165C33.7085 1 34.4382 1.72979 34.4382 2.62177V12.7877C34.434 13.6796 33.7042 14.4094 32.8122 14.4094Z" stroke="#63B0F2" stroke-width="2" stroke-miterlimit="10"/>
<path d="M8.26808 8.92531C8.94219 8.92531 9.48867 8.37884 9.48867 7.70472C9.48867 7.03061 8.94219 6.48413 8.26808 6.48413C7.59396 6.48413 7.04749 7.03061 7.04749 7.70472C7.04749 8.37884 7.59396 8.92531 8.26808 8.92531Z" stroke="#1F5AA6" stroke-miterlimit="10"/>
<path d="M13.7992 7.70471H20.2436" stroke="#1F5AA6" stroke-width="2" stroke-miterlimit="10"/>
<path d="M32.8122 33H2.62177C1.72979 33 1 32.2702 1 31.3783V21.2123C1 20.3204 1.72979 19.5906 2.62177 19.5906H32.8165C33.7085 19.5906 34.4382 20.3204 34.4382 21.2123V31.3783C34.434 32.2702 33.7042 33 32.8122 33Z" stroke="#63B0F2" stroke-width="2" stroke-miterlimit="10"/>
<path d="M8.26808 27.5159C8.94219 27.5159 9.48867 26.9694 9.48867 26.2953C9.48867 25.6212 8.94219 25.0747 8.26808 25.0747C7.59396 25.0747 7.04749 25.6212 7.04749 26.2953C7.04749 26.9694 7.59396 27.5159 8.26808 27.5159Z" stroke="#1F5AA6" stroke-miterlimit="10"/>
<path d="M13.7992 26.2953H20.2436" stroke="#1F5AA6" stroke-width="2" stroke-miterlimit="10"/>
</svg>
