<svg width="49" height="48" viewBox="0 0 49 48" fill="none" xmlns="http://www.w3.org/2000/svg">
<path d="M16.7108 15.8818C7.8935 15.8818 0.751465 23.0685 0.751465 31.9409C0.751465 40.8133 7.98168 48 16.7108 48C25.44 48 32.6702 40.8133 32.6702 31.9409C32.6702 23.0685 25.5282 15.8818 16.7108 15.8818ZM27.2035 25.2866H23.6765C23.0593 23.5121 22.1776 21.8264 21.2077 20.318C23.6765 21.294 25.7927 23.0685 27.2035 25.2866ZM16.7108 20.5842C18.0334 21.8264 19.1797 23.4234 19.8851 25.2866H13.4484C14.3302 23.4234 15.3882 21.8264 16.7108 20.5842ZM12.3022 20.318C11.2441 21.8264 10.3624 23.4234 9.83332 25.2866H6.30638C7.71716 23.0685 9.83332 21.294 12.3022 20.318ZM4.71926 34.9575C4.45474 33.9816 4.36657 33.0056 4.36657 31.9409C4.36657 30.8762 4.54292 29.8115 4.80744 28.8356H8.95158C8.77524 29.8115 8.68706 30.8762 8.68706 31.9409C8.68706 32.9169 8.77524 33.9816 8.86341 34.9575H4.71926ZM6.21821 38.5065H9.74514C10.3624 40.3697 11.2441 42.0555 12.3022 43.5638C9.74514 42.5878 7.62898 40.8133 6.21821 38.5065ZM16.7108 43.2976C15.3001 42.0555 14.242 40.3697 13.4484 38.4178H19.9732C19.2679 40.3697 18.1216 42.0555 16.7108 43.2976ZM12.4785 34.9575C12.3022 33.9816 12.214 33.0056 12.214 31.9409C12.214 30.8762 12.3022 29.8115 12.4785 28.8356H20.9432C21.1195 29.8115 21.2077 30.8762 21.2077 31.9409C21.2077 32.9169 21.1195 33.9816 20.9432 34.9575H12.4785ZM21.2077 43.5638C22.2658 42.0555 23.1475 40.3697 23.7647 38.5065H27.2916C25.8809 40.8133 23.7647 42.5878 21.2077 43.5638ZM29.1433 31.9409C29.1433 33.0056 28.9669 33.9816 28.7906 34.9575H24.5583C24.7346 33.9816 24.7346 33.0056 24.7346 31.9409C24.7346 30.8762 24.6464 29.8115 24.4701 28.8356H28.6142C28.9669 29.8115 29.1433 30.8762 29.1433 31.9409Z" fill="#1F5AA6"/>
<path d="M34.1697 25.5526C34.8751 27.5046 35.316 29.6339 35.316 31.852C42.7225 30.5212 48.4538 23.9556 48.4538 16.0591C48.4538 7.18667 41.3118 0 32.4944 0C24.647 0 18.1222 5.67836 16.7996 13.2199C18.034 13.2199 19.1802 13.3087 20.3265 13.5748C20.4147 13.3974 20.4147 13.1312 20.5028 12.9538H24.7352C24.647 13.5748 24.5588 14.2846 24.5588 14.9944C25.7932 15.6155 27.0277 16.3253 28.0857 17.1238C28.0857 16.7689 27.9976 16.414 27.9976 16.0591C27.9976 14.9944 28.0857 13.9297 28.2621 12.9538H36.7267C36.9031 13.9297 36.9913 14.9944 36.9913 16.0591C36.9913 17.0351 36.9031 18.0998 36.7267 19.0757H30.1137C31.1718 20.1404 32.0535 21.2938 32.7589 22.6247H35.7568C35.316 23.6894 34.7869 24.6654 34.1697 25.5526ZM25.5287 9.40478H22.0018C23.4126 7.18667 25.5287 5.41219 27.9976 4.43622C27.0277 5.94453 26.1459 7.6303 25.5287 9.40478ZM29.3202 9.40478C30.1137 7.54157 31.1718 5.94453 32.4944 4.70239C33.817 5.94453 34.9633 7.54157 35.6687 9.40478H29.3202ZM44.486 12.9538C44.7505 13.9297 44.9269 14.9944 44.9269 16.0591C44.9269 17.1238 44.7505 18.0998 44.5742 19.0757H40.3418C40.5182 18.0998 40.5182 17.1238 40.5182 16.0591C40.5182 14.9944 40.43 13.9297 40.2537 12.9538H44.486ZM36.9913 4.43622C39.4601 5.41219 41.5763 7.18667 42.987 9.40478H39.4601C38.8429 7.6303 38.0493 5.94453 36.9913 4.43622ZM39.5483 22.6247H43.0752C41.6644 24.9315 39.5483 26.706 36.9913 27.682C38.0493 26.1737 38.9311 24.4879 39.5483 22.6247Z" fill="#63B0F2"/>
<path d="M5.86524 12.9538H14.2417V7.45292H5.86524V5.05737L0.839355 10.2034L5.86524 15.3494V12.9538Z" fill="#63B0F2"/>
<path d="M41.5764 34.8686H33.2881V40.4583H41.5764V42.7651L46.6905 37.6191L41.5764 32.5618V34.8686Z" fill="#1F5AA6"/>
</svg>
