<svg width="33" height="32" viewBox="0 0 33 32" fill="none" xmlns="http://www.w3.org/2000/svg">
<path d="M15.9853 30.4691C14.3305 30.4691 12.5388 27.1976 11.7304 22.0301C13.0494 22.1579 14.4677 22.2288 15.9853 22.2288V20.702C14.4896 20.7042 12.9948 20.6236 11.508 20.461C11.187 17.4862 11.187 14.4859 11.508 11.5113C14.4827 11.1903 17.4829 11.1903 20.4575 11.5113C20.6205 12.9981 20.7007 14.4927 20.6986 15.9883H22.2305C22.2305 14.4614 22.1592 13.0431 22.0319 11.7334C27.1989 12.5512 30.4704 14.3431 30.4704 15.9883C30.47 16.9796 30.3689 17.9678 30.1681 18.9384L31.6666 19.2505C33.4609 10.5989 27.902 2.13084 19.2507 0.336555C10.5989 -1.45773 2.13084 4.10117 0.336554 12.7527C-1.45773 21.4044 4.10117 29.8723 12.7529 31.6666C15.4974 32.2358 18.3435 32.0741 21.0059 31.1972L20.5329 29.7458C19.066 30.2281 17.5301 30.4726 15.9853 30.4691ZM30.1683 13.0241C28.4947 11.7475 25.6909 10.6604 21.8426 10.1215C21.2943 6.27318 20.2165 3.4696 18.9401 1.79594C24.5788 2.983 28.9832 7.38961 30.1683 13.0289V13.0241ZM15.9853 1.49341C17.64 1.49341 19.4317 4.7649 20.2404 9.93239C18.9212 9.80482 17.5029 9.73375 15.9853 9.73375C14.4677 9.73375 13.0398 9.8046 11.7304 9.93239C12.5388 4.76512 14.3305 1.49819 15.9853 1.49819V1.49341ZM13.0307 1.79594C11.7541 3.4696 10.6667 6.27318 10.128 10.1215C6.2797 10.6698 3.47612 11.7478 1.80245 13.0241C2.98995 7.39005 7.39178 2.988 13.0259 1.80072L13.0307 1.79594ZM9.93869 11.7239C9.8109 13.0428 9.74005 14.4611 9.74005 15.9788C9.74005 17.4964 9.8109 18.924 9.93869 20.2337C4.77142 19.4156 1.49971 17.624 1.49971 15.9788C1.49971 14.3336 4.76664 12.5371 9.93869 11.7191V11.7239ZM1.80224 18.9384C3.47569 20.2148 6.27948 21.3021 10.1278 21.8413C10.6761 25.6896 11.7538 28.4931 13.0304 30.1666C7.39244 28.9815 2.98778 24.5766 1.80224 18.9384Z" fill="#63B0F2"/>
<path d="M24.5717 18L19 20.756V23.642C19 27.178 21.3317 30.2201 24.5715 31C27.8111 30.2199 30.1429 27.178 30.1429 23.642V20.756L24.5717 18ZM23.7615 26.5021L21.0127 23.98L21.651 23.2002L23.7372 25.124L27.7377 21.4059L28.376 22.1862L23.7615 26.5021Z" fill="#1F5AA6"/>
</svg>
