<svg width="43" height="33" viewBox="0 0 43 33" fill="none" xmlns="http://www.w3.org/2000/svg">
<path d="M41.2466 12.2842H13.6344C12.8981 12.2842 12.3035 12.7935 12.3035 13.4222V20.4614C12.3035 21.0901 12.8981 21.5994 13.6344 21.5994H41.2466C41.983 21.5994 42.5776 21.0901 42.5776 20.4614V13.4222C42.5776 12.7935 41.983 12.2842 41.2466 12.2842ZM17.5156 18.6593C17.5156 19.0885 17.1665 19.4363 16.7386 19.4363C16.3107 19.4363 15.9616 19.0885 15.9616 18.6593V15.2243C15.9616 14.7964 16.3107 14.4486 16.7386 14.4486C17.1665 14.4486 17.5156 14.7964 17.5156 15.2243V18.6593ZM20.843 18.6593C20.843 19.0885 20.4938 19.4363 20.0633 19.4363C19.6354 19.4363 19.2889 19.0885 19.2889 18.6593V15.2243C19.2889 14.7964 19.6354 14.4486 20.0633 14.4486C20.4938 14.4486 20.843 14.7964 20.843 15.2243V18.6593ZM24.1716 18.6593C24.1716 19.0885 23.8225 19.4363 23.3919 19.4363C22.964 19.4363 22.6175 19.0885 22.6175 18.6593V15.2243C22.6175 14.7964 22.964 14.4486 23.3919 14.4486C23.8225 14.4486 24.1716 14.7964 24.1716 15.2243V18.6593ZM36.4256 18.7708C35.4136 18.7708 34.5946 17.9518 34.5946 16.9411C34.5946 15.9305 35.4123 15.1101 36.4256 15.1101C37.4363 15.1101 38.254 15.9305 38.254 16.9411C38.2527 17.9518 37.435 18.7708 36.4256 18.7708Z" fill="#1F5AA6"/>
<path d="M41.2466 23.0405H13.6344C12.8981 23.0405 12.3035 23.5511 12.3035 24.1785V31.2191C12.3035 31.8478 12.8981 32.357 13.6344 32.357H41.2466C41.983 32.357 42.5776 31.8478 42.5776 31.2191V24.1785C42.5776 23.5511 41.983 23.0405 41.2466 23.0405ZM17.5156 29.4169C17.5156 29.8461 17.1665 30.1926 16.7386 30.1926C16.3107 30.1926 15.9616 29.8448 15.9616 29.4169V25.982C15.9616 25.5528 16.3107 25.2049 16.7386 25.2049C17.1665 25.2049 17.5156 25.5528 17.5156 25.982V29.4169ZM20.843 29.4169C20.843 29.8461 20.4938 30.1926 20.0633 30.1926C19.6354 30.1926 19.2889 29.8448 19.2889 29.4169V25.982C19.2889 25.5528 19.6354 25.2049 20.0633 25.2049C20.4938 25.2049 20.843 25.5528 20.843 25.982V29.4169ZM24.1716 29.4169C24.1716 29.8461 23.8225 30.1926 23.3919 30.1926C22.964 30.1926 22.6175 29.8448 22.6175 29.4169V25.982C22.6175 25.5528 22.964 25.2049 23.3919 25.2049C23.8225 25.2049 24.1716 25.5528 24.1716 25.982V29.4169ZM36.4256 29.5298C35.4136 29.5298 34.5946 28.7095 34.5946 27.6988C34.5946 26.6881 35.4123 25.8691 36.4256 25.8691C37.4363 25.8691 38.254 26.6881 38.254 27.6988C38.254 28.7095 37.435 29.5298 36.4256 29.5298Z" fill="#1F5AA6"/>
<path d="M3.3833 24.0841V8.20614C3.3833 7.03009 4.27321 6.07586 5.37314 6.07586H30.8393C31.9393 6.07586 32.8292 7.03009 32.8292 8.20614V9.87571H35.6367V3.3405C35.6367 1.69324 34.3005 0.357056 32.6533 0.357056H3.55918C1.91455 0.357056 0.575745 1.69324 0.575745 3.3405V25.965C0.575745 27.6123 1.91455 28.9485 3.55918 28.9485H9.89489V26.2144H5.37182C4.2719 26.2144 3.3833 25.2602 3.3833 24.0841ZM14.5623 1.66305C15.2856 1.66305 15.867 2.24714 15.867 2.96904C15.867 3.68964 15.2856 4.27372 14.5623 4.27372C13.8417 4.27372 13.2577 3.69095 13.2577 2.96904C13.2577 2.24714 13.8417 1.66305 14.5623 1.66305ZM10.0248 1.66305C10.7454 1.66305 11.3295 2.24714 11.3295 2.96904C11.3295 3.68964 10.7454 4.27372 10.0248 4.27372C9.30424 4.27372 8.72015 3.68963 8.72015 2.96773C8.72015 2.24714 9.30424 1.66305 10.0248 1.66305ZM5.48733 1.66305C6.20792 1.66305 6.79201 2.24714 6.79201 2.96904C6.79201 3.68964 6.20792 4.27372 5.48733 4.27372C4.76673 4.27372 4.18265 3.68963 4.18265 2.96773C4.18265 2.24714 4.76673 1.66305 5.48733 1.66305Z" fill="#63B0F2"/>
</svg>
