<svg width="52" height="48" viewBox="0 0 52 48" fill="none" xmlns="http://www.w3.org/2000/svg">
<path d="M26.1239 0.00358497C25.8692 0.0129429 25.6091 0.0404381 25.361 0.0950064C23.3766 0.530733 21.8386 2.34318 21.7283 4.60942C21.4755 11.3159 20.6129 15.2899 16.479 21.2782C15.9625 20.4501 15.0581 19.8891 14.0269 19.8891H3.56463C1.97472 19.8891 0.658447 21.2136 0.658447 22.8134V43.8687C0.658447 45.4685 1.97472 46.793 3.56463 46.793H14.0269C15.0293 46.793 15.9191 46.2672 16.4426 45.4771C17.0472 45.9672 17.6065 46.4074 18.1863 46.7565C19.1448 47.3335 20.2281 47.6804 21.7101 47.8349C24.674 48.1438 29.5378 47.9154 40.7638 47.9628C41.0274 47.9569 41.2884 47.8594 41.4903 47.6887C43.7495 45.8343 44.7306 44.0582 45.1775 42.0593C45.3974 41.9912 45.5962 41.8557 45.7406 41.6754C47.4301 39.5507 48.0414 37.0994 47.6478 34.986C47.8097 34.9105 47.9538 34.797 48.0655 34.657C50.039 32.3275 50.4376 29.3445 49.7368 27.0903C50.9423 25.6555 51.4406 23.9723 51.2625 22.4114C50.9785 20.4354 49.5521 18.4496 47.7386 18.1345H32.7718C33.6665 12.2107 33.0734 6.76648 31.0826 3.23867C30.0077 1.33417 28.4403 0.268413 26.8867 0.0401392C26.6278 0.0021228 26.3786 -0.0063578 26.1239 0.00358497ZM29.0664 4.3901C30.7664 7.40258 31.4719 13.0369 30.3196 19.0849C30.1918 19.7596 30.7814 20.4754 31.464 20.474H47.4116C48.2844 20.9245 48.8451 21.7 48.9556 22.6672C49.0624 23.604 48.6837 24.7055 47.7386 25.7378H40.7499C40.1357 25.7378 39.5709 26.2895 39.5709 26.9075C39.5709 27.5256 40.1358 28.086 40.7499 28.0772H47.5933C47.9423 29.3692 47.674 31.0887 46.5216 32.7562H40.7499C40.1357 32.7562 39.5709 33.3079 39.5709 33.9259C39.5709 34.544 40.1358 35.1044 40.7499 35.0957H45.2683C45.6174 36.3876 45.349 38.1071 44.1967 39.7746H40.7499C40.1357 39.7746 39.5709 40.3263 39.5709 40.9443C39.5709 41.5624 40.1358 42.1228 40.7499 42.1141H42.7981C42.4398 43.3655 41.7841 44.3252 40.2733 45.6233C29.4694 45.5859 24.4598 45.7574 21.9462 45.4954C20.6646 45.3618 20.0628 45.1723 19.3852 44.7643C18.7745 44.3967 18.0268 43.7482 16.9331 42.8635V24.6229C22.3344 17.7102 23.786 11.8983 24.0532 4.70085C24.831 1.11689 27.97 2.10531 29.0664 4.3901ZM3.56463 22.2286H14.0269C14.369 22.2286 14.6081 22.4692 14.6081 22.8134V43.8687C14.6081 44.2129 14.369 44.4535 14.0269 44.4535H3.56463C3.22251 44.4535 2.98339 44.2129 2.98339 43.8687V22.8134C2.98339 22.4692 3.22251 22.2286 3.56463 22.2286Z" fill="#63B0F2"/>
</svg>
