<svg width="36" height="32" viewBox="0 0 36 32" fill="none" xmlns="http://www.w3.org/2000/svg">
<path d="M18.9553 14.8346L32.9658 4.39544V17.8565C32.9658 18.6806 33.5152 19.23 34.3394 19.23C35.1635 19.23 35.7129 18.6806 35.7129 17.8565V4.12072C35.7129 1.78565 33.9273 0 31.5922 0H4.12072C1.78565 0 0 1.78565 0 4.12072V24.7243C0 27.0594 1.78565 28.8451 4.12072 28.8451H17.8565C18.6806 28.8451 19.23 28.2956 19.23 27.4715C19.23 26.6473 18.6806 26.0979 17.8565 26.0979H4.12072C3.29658 26.0979 2.74715 25.5485 2.74715 24.7243V4.39544L17.4444 14.8346C17.8565 15.2467 18.5433 15.2467 18.9553 14.8346ZM18.1312 12.0875L5.08223 2.74715H30.6307L18.1312 12.0875Z" fill="#63B0F2"/>
<path d="M34.335 25.5441L30.2142 21.4234C29.6648 20.874 28.8407 20.874 28.2912 21.4234C27.7418 21.9729 27.7418 22.797 28.2912 23.3464L31.4504 26.5057L28.2912 29.6649C27.7418 30.2143 27.7418 31.0384 28.2912 31.5879C28.8407 32.1373 29.6648 32.1373 30.2142 31.5879L34.335 27.4672C34.8844 26.9177 34.8844 26.0936 34.335 25.5441Z" fill="#1F5AA6"/>
<path d="M27.4672 25.5441L23.3464 21.4234C22.797 20.874 21.9729 20.874 21.4234 21.4234C20.874 21.9729 20.874 22.797 21.4234 23.3464L24.5826 26.5057L21.4234 29.6649C20.874 30.2143 20.874 31.0384 21.4234 31.5879C21.9729 32.1373 22.797 32.1373 23.3464 31.5879L27.4672 27.4672C28.0166 26.9177 28.0166 26.0936 27.4672 25.5441Z" fill="#1F5AA6"/>
</svg>
