<?xml version="1.0" encoding="utf-8"?>
<!-- Generator: Adobe Illustrator 16.0.0, SVG Export Plug-In . SVG Version: 6.00 Build 0)  -->
<!DOCTYPE svg PUBLIC "-//W3C//DTD SVG 1.1//EN" "http://www.w3.org/Graphics/SVG/1.1/DTD/svg11.dtd">
<svg version="1.1" id="Layer_1" xmlns="http://www.w3.org/2000/svg" xmlns:xlink="http://www.w3.org/1999/xlink" x="0px" y="0px"
	 width="65px" height="48px" viewBox="0 0 65 48" enable-background="new 0 0 65 48" xml:space="preserve">
<path fill="#63B0F2" d="M54.71,19.29v-1.32c0-9.92-9.86-17.97-22-17.97C20.57,0,10.65,8.05,10.65,17.97v1.26
	c-5.64,0.61-10,4.55-10,9.32c0,5.2,5.17,9.42,11.54,9.42h2.95c2.41,0,4.29-1.59,4.29-3.5V22.69c0-1.81-1.68-3.29-3.82-3.51v-1.21
	c0-7.67,7.64-13.92,17.03-13.92s17.04,6.25,17.04,13.92v1.15c-2.35,0.06-4.16,1.59-4.16,3.51v11.78c0,1.479,1.141,2.8,2.82,3.29
	c-2.08,2.85-5.71,4.77-10,5.04v3.399c6.51-0.279,12.01-3.62,14.49-8.22c6.37,0,11.53-4.22,11.53-9.37
	C64.36,23.89,60.21,20,54.71,19.29z M14.47,33.86h-2.28c-3.62,0-6.51-2.41-6.51-5.311c0-2.91,2.95-5.32,6.51-5.32h2.28V33.86z
	 M52.83,33.86h-2.28V23.23h2.28c3.62,0,6.5,2.41,6.5,5.32C59.33,31.45,56.45,33.86,52.83,33.86z"/>
<path fill="#1F5AA6" d="M38.34,42.74v3.399C38.14,47.23,37,48,35.66,48h-6.04c-1.54,0-2.74-1.04-2.74-2.25v-2.52
	c0-1.261,1.27-2.24,2.74-2.24h6.04C37,40.99,38.07,41.75,38.34,42.74z"/>
<line fill="none" x1="38.34" y1="47.29" x2="38.34" y2="46.14"/>
<line fill="none" x1="38.34" y1="42.74" x2="38.34" y2="41.9"/>
</svg>
