<svg width="56" height="48" viewBox="0 0 56 48" fill="none" xmlns="http://www.w3.org/2000/svg">
<path d="M20.5728 13.0972V19.2637H55.3441V13.0972H20.5728ZM26.8374 17.9926H25.3865V16.2749H26.8374V17.9926ZM30.3879 17.9926H28.937V16.2749H30.3879V17.9926ZM33.9385 17.9926H32.4875V16.2749H33.9385V17.9926ZM48.9002 17.8981H42.7636V16.1804H48.9002V17.8981Z" fill="#1F5AA6"/>
<path d="M55.3441 20.9812V48H20.5728V29.9732H26.4789L29.56 33.0993L35.2443 27.3967L29.56 21.6854L26.4704 24.8202H20.5728V20.9812H55.3441Z" fill="#1F5AA6"/>
<path d="M35.5004 7.88403V11.3795H18.8658V24.8202H16.2114L13.0961 21.6854L7.42892 27.3967L13.0961 33.0993L16.2029 29.9732H18.8658V34.9028H0.720459V7.88403H35.5004Z" fill="#63B0F2"/>
<path d="M35.5004 0H0.720459V6.1665H35.5004V0ZM6.99363 4.90404H5.54272V3.18634H6.99362V4.90404H6.99363ZM10.5442 4.90404H9.09324V3.18634H10.5442V4.90404ZM14.0947 4.90404H12.6438V3.18634H14.0947V4.90404ZM29.0565 4.80097H22.9199V3.08328H29.0565V4.80097Z" fill="#63B0F2"/>
<path d="M32.8288 27.3966L29.5684 30.6687L28.365 29.4492L29.5599 28.2554H13.1131L14.308 29.4492L13.096 30.6687L9.84424 27.3966L13.096 24.116L14.308 25.3355L13.1131 26.5378H29.5599L28.365 25.3355L29.5684 24.116L32.8288 27.3966Z" fill="#1F5AA6"/>
</svg>
