<svg width="70" height="80" viewBox="0 0 70 80" fill="none" xmlns="http://www.w3.org/2000/svg">
<path d="M52.1864 14.8756C48.1356 12.3243 44.3002 11.3297 40.4649 8.77835C38.0517 7.17835 34.7765 3.3297 32.0186 0.0432129C31.5014 5.36213 29.8639 7.52429 28.0108 9.03781C24.0893 12.1081 21.633 13.0594 18.2717 14.8756C15.4275 16.3459 0 25.6 0 45.4486C0 65.2973 16.6341 79.9567 35.1644 79.9567C53.6515 79.9567 69.6824 66.4648 69.6824 46.0973C69.6824 25.6865 54.6427 16.4324 52.1864 14.8756Z" fill="#005A8F"/>
<path d="M45.9378 62.7025C47.1444 62.7025 48.4803 62.789 49.3853 63.3944C50.2903 63.9998 50.8505 65.3836 51.1521 66.162C51.4538 66.9404 51.1521 67.3728 50.5488 67.7188C50.0317 68.0215 49.9455 67.8917 49.3853 66.8539C48.8682 65.8593 48.3942 64.8647 45.7224 64.8647C43.0506 64.8647 42.1887 65.7728 40.8959 66.8539C39.6031 67.935 39.129 68.3242 38.655 67.7188C38.181 67.1134 38.3533 66.4647 39.1721 65.7296C40.034 64.9512 41.413 63.7404 42.7058 63.1782C44.0417 62.6161 44.7312 62.7025 45.9378 62.7025Z" fill="white"/>
<path d="M33.2252 71.4811C34.7766 72.7352 37.0606 73.7297 41.9732 73.7297C46.8859 73.7297 50.3334 72.346 51.8848 71.1784C52.5743 70.6595 52.8759 71.0919 52.9621 71.3946C53.0483 71.6973 53.1776 72.173 52.6604 72.6919C52.2726 73.0811 48.7389 75.546 44.6019 75.9352C40.4649 76.3243 34.8628 76.5406 31.5015 73.4703C30.9844 72.9514 31.1136 72.173 31.5015 71.8703C31.8893 71.5676 32.191 71.3514 32.665 71.3514C33.139 71.3514 33.0098 71.3081 33.2252 71.4811Z" fill="white"/>
<path d="M14.4364 65.6432C20.254 65.5567 21.3313 64.5621 26.5026 62.2702C54.2979 49.8162 59.4261 38.4 60.4172 35.7621C61.4084 33.1243 62.8736 28.9297 61.3222 24.2162C61.0205 23.3081 60.8051 22.5729 60.6327 22.0108C56.9267 17.8594 53.2637 15.6108 52.1864 14.9189C48.1787 12.3675 44.3002 11.3729 40.4649 8.82159C38.0947 7.26483 34.7765 3.37294 32.0185 0.0432129C31.5014 5.36213 29.9501 7.61078 28.0108 9.03781C24.0893 12.1081 21.633 13.0594 18.2717 14.8756C15.4275 16.4324 0 25.6 0 45.4486C0 51.8054 1.68065 57.6 4.61102 62.5729L5.3867 62.5297C6.98116 64 9.52369 65.6864 14.4364 65.6432Z" fill="#0E78BE"/>
<path d="M52.1864 14.8757C48.1787 12.3243 44.3002 11.3297 40.4649 8.77838C38.0948 7.22162 34.7765 3.32973 32.0186 0C31.5014 5.31892 29.9501 7.56757 28.0108 8.99459C24.0893 12.0649 21.633 13.0162 18.2717 14.8324C15.4275 16.3892 0 25.5568 0 45.4054C0 51.7622 1.68065 57.5568 4.61102 62.5297C10.8165 73.1243 22.538 79.9135 35.1644 79.9135C53.6515 79.9135 69.6824 66.4216 69.6824 46.0541C69.6824 34.8541 65.1575 27.027 60.6327 21.9676C56.9267 17.8595 53.2637 15.5676 52.1864 14.8757ZM61.4946 23.9135C66.5365 30.227 69.0791 37.7081 69.0791 46.0973C69.0791 50.9838 68.1741 55.5676 66.3211 59.7622C64.5973 63.7405 62.0979 67.2865 58.909 70.2703C52.6173 76.1513 44.171 79.3946 35.1213 79.3946C30.6396 79.3946 26.244 78.5297 22.0639 76.8432C17.9269 75.1568 14.2209 72.7784 11.032 69.7513C4.30936 63.3513 0.560217 54.7459 0.560217 45.4919C0.560217 37.2324 3.23202 29.9243 8.48944 23.6973C12.4971 18.9405 16.8496 16.3459 18.5303 15.4378C19.349 15.0054 20.1247 14.6162 20.8573 14.227C23.1844 13.0162 25.339 11.8919 28.3556 9.55676C29.9501 8.34595 31.6738 6.4 32.4064 1.47027C34.9489 4.4973 37.8793 7.91351 40.1202 9.34054C42.1025 10.6811 44.1709 11.5892 46.1533 12.4973C48.0063 13.3622 49.9455 14.227 51.8847 15.4378L51.9709 15.4811C57.53 18.9405 60.5034 22.6595 61.4946 23.9135Z" fill="#044A75"/>
<path d="M32.3632 1.55664C33.4406 4.7134 33.2682 6.3134 33.2682 7.00529C33.2682 7.69718 32.8803 9.55664 31.6737 10.4647C31.1566 10.8539 30.9842 11.1566 30.9842 11.2431C30.9842 11.5458 31.6737 11.762 31.6737 12.4539C31.6737 13.3188 31.2859 15.0053 27.2351 19.0702C23.1843 23.135 17.3236 26.7674 12.7987 29.0161C8.2739 31.2647 6.11922 31.0918 5.51591 30.0107C4.9126 28.9296 5.73137 26.5512 8.57555 23.3945C11.4197 20.2377 20.3832 15.6972 20.3832 15.6972L31.5875 7.82691L32.1908 4.84313" fill="#8ACBF0"/>
<path d="M32.3633 1.47046C31.6738 6.57316 30.1224 8.08667 28.0539 9.72992C24.6064 12.3678 21.2451 13.9678 20.4694 14.3569C18.4871 15.3515 11.2474 19.3732 7.49826 25.1245C6.33473 26.8975 7.49826 27.5894 7.71373 27.7623C7.92919 27.9353 10.5579 28.238 16.1601 24.8218C21.7622 21.4488 24.2186 19.4164 27.3644 16.1299C29.0451 14.3569 29.3036 13.3624 29.3036 12.8867C29.3036 12.3678 28.9158 12.1083 28.3125 11.9786C28.0108 11.8921 27.9246 11.7624 28.3125 11.5029C28.7003 11.2867 30.2948 10.5083 30.6826 10.2056C31.0705 9.90289 32.9235 8.64884 32.9666 6.65965C33.0528 4.62722 32.9235 3.24343 32.3633 1.47046Z" fill="white"/>
<path d="M15.126 57.4703C15.2122 51.4595 20.8144 45.8378 27.8818 45.7513C36.8452 45.6649 43.0938 54.7027 47.6186 54.6162C51.454 54.5297 58.823 47.0054 62.4428 47.0054C66.2782 47.0054 67.3555 51.027 67.3555 53.4054C67.3555 55.7838 66.5798 60.1081 64.7268 62.7892C62.8738 65.4703 61.7533 66.4649 59.5987 66.3351C56.8407 66.1189 51.3247 57.4703 47.791 57.3405C43.3524 57.1676 33.6563 66.6378 26.0718 66.6378C21.4608 66.6378 20.0818 65.9459 18.5304 64.9514C16.2034 63.3081 15.0399 60.8432 15.126 57.4703Z" fill="white"/>
</svg>
