<svg width="80" height="81" viewBox="0 0 80 81" fill="none" xmlns="http://www.w3.org/2000/svg">
<path d="M0.106689 10.81C0.106689 4.86477 4.87469 0.0805664 10.746 0.0805664C16.0835 0.0805664 20.4423 3.99016 21.2784 9.04271C27.0786 7.68583 33.2165 9.14966 38.4472 14.3987L30.5656 22.3077C26.9185 18.6478 22.9867 19.3977 20.709 21.6828C18.165 24.236 18.165 28.4491 20.709 31.0021L38.4115 48.7663L30.5835 56.675C14.9804 41.1069 21.7411 47.8021 12.8276 38.8756C8.05947 34.1444 6.60053 27.3066 8.41546 21.2188C3.62944 20.183 0.106689 15.9161 0.106689 10.81Z" fill="#7AC043"/>
<path d="M23.1467 31.5913L31.0283 39.5006C32.8075 37.715 46.9872 23.4862 48.7663 21.6829C51.3107 19.13 55.4561 19.13 58 21.6829C60.2774 23.9681 61.0245 27.9318 57.3775 31.5736L65.2055 39.4826C70.7563 33.9125 72.0553 27.4137 70.3473 21.4152C75.5424 20.683 79.5809 16.2018 79.5809 10.7924C79.5809 4.86504 74.8129 0.0627441 68.9416 0.0627441C63.5507 0.0627441 59.0851 4.07964 58.3558 9.27498C52.3424 7.50749 45.5994 9.00732 40.8669 13.7562C37.611 17.1662 28.217 26.5212 23.1467 31.5913Z" fill="#F9AE41"/>
<path d="M70.5252 58.7638C71.9839 52.9259 70.3649 46.5343 65.8459 41.9994C63.7466 39.8216 66.7354 42.8385 48.1431 24.2L40.2617 32.109L57.9997 49.9085C60.5441 52.4619 60.5441 56.6215 57.9997 59.1743C55.7224 61.4595 51.7728 62.2094 48.1431 58.5496L40.3151 66.4585C45.2257 71.85 52.4132 73.3856 58.5869 71.4573C59.5654 76.3493 63.871 80.0448 69.0662 80.0448C74.9375 80.0448 79.7054 75.2601 79.7054 69.3154C79.7052 63.9231 75.7024 59.4958 70.5252 58.7638Z" fill="#EE4035"/>
<path d="M55.5267 49.2837L47.6985 41.375C32.22 56.8 38.7317 50.3728 29.9603 59.1925C27.4163 61.7454 23.2708 61.7454 20.7268 59.1925C18.3959 56.8 17.72 52.8902 21.2963 49.3018L13.4679 41.3929C8.0949 46.7846 6.70719 53.0332 8.21951 58.9429C3.46936 60.0139 0 64.2807 0 69.3331C0 75.2785 4.768 80.0629 10.6393 80.0629C15.7276 80.0629 19.9798 76.5279 21.0649 71.7254C26.8826 73.1893 33.2521 71.6185 37.8245 67.0838C43.5354 61.3706 39.9948 64.8697 55.5267 49.2837Z" fill="#4F91CD"/>
</svg>
