<svg width="80" height="80" viewBox="0 0 80 80" fill="none" xmlns="http://www.w3.org/2000/svg">
<path d="M25.841 61.3795C26.4774 61.0952 27.1225 60.8338 27.7738 60.5883C28.5087 60.3112 29.2494 60.0507 30.0002 59.8237C30.9348 59.541 31.8772 59.2855 32.8322 59.0821C34.1196 58.8078 35.4229 58.6043 36.7357 58.4764C35.9994 60.7996 35.1858 63.1091 34.304 65.404C34.3419 65.8485 34.3622 66.2957 34.374 66.744C36.1494 66.3925 37.9835 66.2042 39.8619 66.2042C41.7403 66.2042 43.5741 66.3925 45.3498 66.744C45.3615 66.2957 45.3816 65.8485 45.4198 65.404C44.5377 63.1091 43.7244 60.7993 42.9881 58.4764C44.3009 58.6043 45.6042 58.8075 46.8916 59.0821C47.8465 59.2855 48.7887 59.541 49.7235 59.8237C50.4746 60.0507 51.2154 60.3112 51.9503 60.5883C52.6015 60.834 53.2469 61.0954 53.8833 61.3798C58.3999 63.3982 62.5175 66.3922 65.8945 70.2771C74.3588 62.9423 79.7235 52.103 79.7235 39.9997C79.7235 17.9085 61.8769 0 39.8622 0C17.8466 0 0 17.9085 0 39.9997C0 52.103 5.36465 62.9423 13.829 70.2771C17.2062 66.392 21.3242 63.3979 25.841 61.3795Z" fill="#A0DBE8"/>
<path d="M28.4682 68.6165C30.3393 67.7861 32.3153 67.1516 34.3736 66.7444C34.3619 66.2961 34.3418 65.8488 34.3036 65.4044C35.1858 63.1095 35.9991 60.7997 36.7354 58.4768C35.4226 58.6047 34.1193 58.8079 32.8319 59.0824C31.8769 59.2859 30.9345 59.5414 29.9999 59.8241C29.2491 60.0511 28.5083 60.3116 27.7734 60.5887L30.679 61.2951L28.4682 68.6165Z" fill="#525353"/>
<path d="M21.6182 72.929C21.6908 72.1837 21.7354 71.4317 21.7354 70.6718C21.7354 70.2148 22.1046 69.844 22.5604 69.844H23.2847L25.8411 61.3799C21.3243 63.3983 17.2063 66.3923 13.8291 70.2775C15.6908 71.8907 17.7011 73.3331 19.8394 74.5824C20.4086 74.0065 21.0016 73.4543 21.6182 72.929Z" fill="#525353"/>
<path d="M53.8826 61.3799L56.439 69.8437H57.1627C57.6184 69.8437 57.9877 70.2145 57.9877 70.6715C57.9877 71.4317 58.0323 72.1834 58.1048 72.9287C58.7215 73.454 59.3144 74.0062 59.8839 74.5822C62.0223 73.3328 64.0326 71.8904 65.8943 70.2772C62.517 66.3923 58.3994 63.3983 53.8826 61.3799Z" fill="#525353"/>
<path d="M49.0442 61.2948L51.9495 60.5885C51.2146 60.3114 50.4738 60.0508 49.7228 59.8239C48.7882 59.5412 47.8458 59.2857 46.8908 59.0822C45.6034 58.8079 44.3001 58.6045 42.9873 58.4766C43.7236 60.7998 44.5372 63.1092 45.419 65.4042C45.3811 65.8486 45.361 66.2958 45.349 66.7442C47.4079 67.1517 49.3839 67.7861 51.2553 68.6168L49.0442 61.2948Z" fill="#525353"/>
<path d="M39.8618 69.8435H45.4786C45.3634 68.8049 45.3221 67.77 45.3492 66.744C43.5737 66.3925 41.7396 66.2041 39.8612 66.2041C37.9828 66.2041 36.1491 66.3925 34.3733 66.744C34.4004 67.77 34.3591 68.8049 34.2439 69.8435H39.8618Z" fill="black"/>
<path d="M19.8394 74.5822C20.3026 74.8528 20.77 75.1167 21.2447 75.3689C21.4112 74.5673 21.5379 73.7535 21.6185 72.9287C21.0015 73.4543 20.4086 74.0065 19.8394 74.5822Z" fill="black"/>
<path d="M28.0974 69.8437H34.2441C34.3593 68.8051 34.4006 67.7701 34.3735 66.7441C32.3149 67.1516 30.3392 67.7861 28.4681 68.6162L28.0974 69.8437Z" fill="black"/>
<path d="M58.1045 72.929C58.1848 73.7537 58.3117 74.5673 58.4782 75.3691C58.9529 75.117 59.4203 74.8531 59.8836 74.5824C59.3144 74.0064 58.7211 73.4543 58.1045 72.929Z" fill="black"/>
<path d="M51.626 69.8437L51.2553 68.6167C49.3839 67.7864 47.4079 67.1516 45.3491 66.7441C45.322 67.7701 45.3633 68.8051 45.4785 69.8437H51.626V69.8437Z" fill="black"/>
<path d="M28.0974 69.8436L28.468 68.6164L30.6794 61.2948L27.7739 60.5884C27.1229 60.8338 26.4775 61.0952 25.8411 61.3796L23.2847 69.8436H26.0293H28.0974Z" fill="#AA9678"/>
<path d="M51.2553 68.6167L51.626 69.8436H53.6935H56.4387L53.8823 61.3798C53.2459 61.0955 52.6005 60.8341 51.9493 60.5884L49.0439 61.2948L51.2553 68.6167Z" fill="#AA9678"/>
<path d="M23.3687 71.553C23.3938 71.5348 23.4193 71.5172 23.4445 71.499H23.3717C23.3712 71.5172 23.3695 71.5351 23.3687 71.553Z" fill="#C0B098"/>
<path d="M39.8613 71.4995H33.9968H27.5972H23.4441C23.419 71.5177 23.3936 71.5353 23.3685 71.5535C23.3132 73.1169 23.1049 74.6492 22.7666 76.1403C27.9477 78.6127 33.7425 80 39.8613 80V71.4995Z" fill="#C0B098"/>
<path d="M56.3511 71.4995H56.2783C56.3035 71.5177 56.329 71.5353 56.3542 71.5535C56.3536 71.5353 56.3516 71.5174 56.3511 71.4995Z" fill="#AA9678"/>
<path d="M56.2783 71.4995H52.1257H45.7258H39.8616H39.8613V79.9997C45.9801 79.9997 51.7749 78.6124 56.956 76.14C56.6174 74.6489 56.4091 73.1166 56.3538 71.5533C56.329 71.5351 56.3034 71.5174 56.2783 71.4995Z" fill="#AA9678"/>
<path d="M39.8616 70.6716H39.8613V71.4995H39.8616V70.6716Z" fill="#786453"/>
<path d="M58.1045 72.929C58.0319 72.1837 57.9873 71.4317 57.9873 70.6718C57.9873 70.2148 57.618 69.844 57.1623 69.844H56.4386H53.6934H51.6259H45.4783H39.8616H34.2439H28.0973H26.0292H23.2845H22.5602C22.1045 69.844 21.7352 70.2148 21.7352 70.6718C21.7352 71.432 21.6906 72.1837 21.6181 72.929C21.5378 73.7538 21.4109 74.5674 21.2444 75.3692C21.7461 75.6356 22.2523 75.8948 22.7663 76.1402C23.1047 74.6491 23.3133 73.1168 23.3682 71.5534C23.3688 71.5352 23.3707 71.5176 23.3713 71.4994H23.4438H27.5969H33.9963H39.8607H39.861H45.7252H52.1254H56.2779H56.3504C56.351 71.5176 56.353 71.5352 56.3535 71.5534C56.4087 73.1168 56.6171 74.6491 56.9557 76.1402C57.47 75.8948 57.9759 75.6356 58.4776 75.3692C58.3117 74.5674 58.1851 73.7538 58.1045 72.929Z" fill="#8B7460"/>
<path d="M51.2745 64.1361C51.1543 63.9973 51.0302 63.8489 50.9016 63.6802C51.0305 63.8489 51.1543 63.9973 51.2745 64.1361Z" fill="#525353"/>
<path d="M52.1917 65.0495C52.1917 65.0495 52.1948 65.0587 52.2001 65.0755C52.1945 65.0587 52.1917 65.0495 52.1917 65.0495C52.1917 65.0495 51.7876 64.7282 51.2747 64.136C51.7876 64.7282 52.1917 65.0495 52.1917 65.0495Z" fill="#AA9678"/>
<path d="M64.3658 28.8651C64.3664 28.865 64.3668 28.8643 64.3667 28.8636C64.3667 28.8628 64.3662 28.8622 64.3656 28.8622C64.365 28.8623 64.3646 28.8629 64.3646 28.8637C64.3647 28.8645 64.3652 28.8651 64.3658 28.8651Z" fill="white"/>
<path d="M65.9758 40.375C65.9758 40.3711 65.9764 40.3672 65.9764 40.3633C65.9764 40.3672 65.9758 40.3711 65.9758 40.375Z" fill="white"/>
<path d="M66.4019 31.0981L66.4017 31.0978L66.4019 31.0981C66.3952 31.0892 66.3886 31.081 66.3821 31.0721L66.3827 31.0724C66.0514 30.6109 65.7097 30.1897 65.3594 29.8074C65.3583 29.8062 65.3575 29.8048 65.3563 29.8037C65.3575 29.8048 65.3586 29.8062 65.3594 29.8074C65.3563 29.804 65.3533 29.8001 65.3502 29.7967V29.797C65.191 29.6238 65.03 29.4581 64.8672 29.3016C64.8055 29.2426 64.7422 29.1905 64.68 29.1343C64.5774 29.0408 64.4756 28.9445 64.3718 28.8589V28.8608V32.5806L65.7917 39.1049V39.1046C65.807 39.1555 65.8257 39.2026 65.8394 39.2552L66.8231 40.3612L66.8328 40.3503H67.862C67.8634 40.2546 67.8692 40.16 67.8692 40.064V40.0623C67.869 36.9852 67.3653 34.0283 66.4524 31.2582V31.2585C66.4349 31.205 66.4198 31.151 66.4019 31.0981Z" fill="#BBBCBD"/>
<path d="M65.9764 40.3644C65.9764 40.3604 65.9758 40.3567 65.9758 40.3528C65.9758 40.3564 65.9764 40.3604 65.9764 40.3644Z" fill="#BBBCBD"/>
<path d="M65.9315 39.74C65.9329 39.7506 65.9359 39.7602 65.9373 39.7708C65.9382 39.7772 65.9398 39.7831 65.9407 39.7895C65.9407 39.7904 65.9407 39.7912 65.9409 39.7921C65.9596 39.9451 65.9672 40.1044 65.9705 40.2656C65.9711 40.2953 65.9758 40.3227 65.9758 40.3526C65.9758 40.3563 65.9764 40.3596 65.9764 40.3633C65.9764 40.3675 65.9758 40.3711 65.9758 40.375C65.9755 40.4069 65.9708 40.4366 65.97 40.4682C65.9663 40.6261 65.9594 40.7825 65.9409 40.9325C65.9407 40.9334 65.9407 40.9342 65.9407 40.9348C65.9396 40.9426 65.9376 40.9496 65.9365 40.9572C65.9351 40.9695 65.9315 40.9804 65.9298 40.9924C65.9075 41.1559 65.8787 41.3148 65.8405 41.4657C65.8403 41.4662 65.8403 41.4671 65.84 41.4679V41.4682L65.8453 41.462C65.8458 41.4595 65.847 41.4573 65.8475 41.4545V41.4548L66.8226 40.3602L65.8389 39.2542C65.8391 39.255 65.8391 39.2558 65.8394 39.2564C65.879 39.4109 65.9089 39.5729 65.9315 39.74Z" fill="#676A6A"/>
<path d="M65.9301 40.9926C65.9332 40.9718 65.9387 40.9531 65.941 40.9324C65.9594 40.7824 65.9664 40.6259 65.97 40.4681C65.9705 40.4325 65.9761 40.399 65.9761 40.3631C65.9761 40.3295 65.9711 40.2985 65.9703 40.2655C65.9669 40.1042 65.9594 39.945 65.9407 39.7919C65.9385 39.774 65.9337 39.7578 65.9315 39.7399C65.9089 39.5728 65.8791 39.4107 65.84 39.2571C65.8263 39.2034 65.8071 39.1555 65.7915 39.1037C65.6972 38.7905 65.5684 38.514 65.4161 38.2843C65.3954 38.2538 65.3745 38.2238 65.3533 38.1953C65.3118 38.1387 65.2694 38.0836 65.2248 38.0343C65.1589 37.9627 65.0906 37.8966 65.0187 37.8421C64.9913 37.8211 64.9623 37.8065 64.9341 37.7883C64.8719 37.748 64.8084 37.713 64.7428 37.6862C64.7147 37.6747 64.6865 37.6635 64.6578 37.6543C64.5646 37.6254 64.4701 37.6047 64.3722 37.6047C64.2743 37.6047 64.1794 37.6254 64.0866 37.6543C64.0578 37.6632 64.0297 37.6744 64.0015 37.6862C63.9357 37.713 63.8721 37.748 63.8099 37.7883C63.782 37.8065 63.753 37.8211 63.7259 37.8421C63.6537 37.8969 63.5857 37.963 63.5196 38.0346C63.4749 38.0839 63.4328 38.1387 63.3913 38.195C63.3698 38.2238 63.3489 38.254 63.328 38.2845C63.1754 38.5143 63.0465 38.7908 62.9526 39.104C62.9487 39.1166 62.9445 39.1286 62.9408 39.1415C62.8993 39.2851 62.8669 39.4368 62.8396 39.5918C62.8315 39.6394 62.8206 39.6847 62.8142 39.7334C62.7894 39.9072 62.7769 40.0883 62.7735 40.2741C62.7729 40.2999 62.769 40.3239 62.769 40.35H62.7755C62.7755 41.8736 63.4939 43.1086 64.38 43.1086C64.5325 43.1086 64.6792 43.0686 64.819 43.0001C64.8413 42.9889 64.8636 42.9774 64.8856 42.9645C64.9436 42.9312 65.0005 42.8945 65.0552 42.8506C65.0853 42.8263 65.1135 42.7966 65.1425 42.7692C65.2133 42.7028 65.2805 42.6278 65.3444 42.5444C65.3885 42.4862 65.4323 42.428 65.4727 42.3625C65.4986 42.3211 65.5223 42.276 65.5463 42.2318C65.591 42.1487 65.6333 42.0622 65.6718 41.9701C65.6858 41.9371 65.7006 41.9049 65.7137 41.8708C65.7625 41.7429 65.8054 41.608 65.8414 41.4664C65.8791 41.315 65.9078 41.1563 65.9301 40.9926ZM64.4293 39.9957C64.0972 39.9957 63.8277 39.5325 63.8277 38.9613C63.8277 38.39 64.0972 37.9269 64.4293 37.9269C64.7618 37.9269 65.0309 38.39 65.0309 38.9613C65.0309 39.5325 64.7618 39.9957 64.4293 39.9957Z" fill="black"/>
<path d="M64.4295 39.9958C64.7617 39.9958 65.0311 39.5327 65.0311 38.9614C65.0311 38.3901 64.7617 37.927 64.4295 37.927C64.0972 37.927 63.8279 38.3901 63.8279 38.9614C63.8279 39.5327 64.0972 39.9958 64.4295 39.9958Z" fill="white"/>
<path d="M62.9524 39.1041C63.0467 38.7909 63.1755 38.5144 63.3278 38.2844C63.3485 38.2533 63.3694 38.2239 63.3911 38.1948C63.4327 38.1386 63.4748 38.0834 63.5194 38.0345C63.5853 37.962 63.6539 37.8973 63.7258 37.8419C63.7529 37.8209 63.7822 37.8066 63.8098 37.7882C63.872 37.7473 63.9356 37.7132 64.0014 37.686C64.0295 37.6743 64.0577 37.6633 64.0864 37.6541C64.1793 37.625 64.2739 37.6046 64.372 37.6046C64.4699 37.6046 64.5648 37.625 64.6576 37.6541C64.6864 37.6631 64.7145 37.6743 64.7427 37.686C64.8082 37.7132 64.8718 37.7473 64.934 37.7882C64.9622 37.8066 64.9912 37.8209 65.0185 37.8419C65.0902 37.8973 65.1588 37.962 65.2246 38.0342C65.2695 38.0834 65.3117 38.1386 65.3532 38.1951C65.3744 38.2242 65.3953 38.2533 65.416 38.2841C65.5685 38.5139 65.6971 38.7904 65.7914 39.1036L65.7916 39.1041H65.7919L64.372 32.5801L62.9521 39.1038L62.9524 39.1041Z" fill="#909393"/>
<path d="M45.5604 40.3021C45.5584 40.1709 45.5498 40.0413 45.535 39.9137C45.5347 39.912 45.5345 39.9103 45.5342 39.9084C45.5194 39.7827 45.4985 39.6587 45.4714 39.537C45.4709 39.5339 45.4697 39.5308 45.4692 39.5275C45.4421 39.4071 45.4098 39.289 45.3719 39.1731C45.3707 39.1704 45.3696 39.1678 45.3688 39.165C45.3303 39.0492 45.2865 38.9358 45.2374 38.8253C45.2363 38.823 45.2352 38.8208 45.2341 38.8186C45.1844 38.7074 45.1298 38.5991 45.0701 38.4939L45.0698 38.4936C44.8874 38.1732 44.6595 37.8818 44.3949 37.6291C44.0588 37.3078 43.6639 37.0484 43.2279 36.8684C43.2246 36.867 43.2207 36.8659 43.2171 36.8645C43.0023 36.7766 42.7775 36.7078 42.5449 36.661C42.5391 36.6599 42.5332 36.6594 42.5273 36.6582C42.2942 36.6124 42.0538 36.5872 41.8069 36.5872C41.5646 36.5872 41.3284 36.6121 41.0991 36.6563C41.091 36.658 41.0826 36.6585 41.0746 36.6599C40.8464 36.7055 40.6261 36.7724 40.415 36.8575C40.4094 36.8598 40.4035 36.8614 40.3979 36.8637C40.1837 36.9513 39.979 37.0579 39.7866 37.1822C39.786 37.1824 39.7852 37.1827 39.7849 37.1833C39.5908 37.3087 39.4087 37.4514 39.2411 37.6092L39.2369 37.6221L39.2232 37.6255C38.9555 37.8804 38.7257 38.1746 38.5416 38.4984C38.5393 38.5023 38.5371 38.5059 38.5349 38.5096C38.4788 38.6092 38.4281 38.7119 38.3809 38.8169C38.3759 38.8281 38.3701 38.8387 38.365 38.8502C38.3224 38.9476 38.2858 39.0478 38.2515 39.1494C38.2451 39.169 38.2365 39.188 38.2303 39.2079C38.2002 39.3022 38.1759 39.3996 38.1531 39.497C38.1467 39.5247 38.1377 39.5515 38.1319 39.5795C38.1118 39.6758 38.0981 39.774 38.0856 39.8728C38.0819 39.903 38.075 39.9322 38.0719 39.9624C38.0585 40.0917 38.0513 40.2227 38.0513 40.3553C38.0513 40.6047 38.0767 40.8479 38.1229 41.0835C38.1241 41.0883 38.1243 41.0936 38.1252 41.0984C38.1723 41.3337 38.2415 41.5607 38.3304 41.7779C38.3316 41.7807 38.3324 41.784 38.3338 41.7868C38.5145 42.2262 38.7759 42.6242 39.0988 42.962C39.354 43.229 39.648 43.4582 39.9712 43.6413C39.9729 43.6421 39.9743 43.6432 39.976 43.6443C40.0769 43.7012 40.1812 43.7524 40.2875 43.7999C40.2964 43.8039 40.3048 43.8086 40.3134 43.8125C40.4119 43.8556 40.5134 43.8929 40.6163 43.9273C40.6336 43.9332 40.6503 43.9407 40.6679 43.9463C40.7627 43.9768 40.8604 44.0009 40.9582 44.0238C40.9847 44.03 41.0101 44.0384 41.0369 44.044C41.1323 44.0641 41.2299 44.0773 41.3281 44.0899C41.3579 44.0938 41.3869 44.1005 41.417 44.1036C41.5453 44.117 41.6753 44.124 41.8072 44.124C42.3257 44.124 42.8199 44.0185 43.2692 43.8279C43.4937 43.7325 43.7074 43.6161 43.9071 43.4803C44.3067 43.2094 44.6515 42.8635 44.9217 42.4625C45.0567 42.2621 45.1727 42.0477 45.2678 41.8224C45.4578 41.3715 45.5629 40.8759 45.5629 40.3556C45.5629 40.3469 45.5615 40.3382 45.5615 40.3296C45.5618 40.3209 45.5607 40.3117 45.5604 40.3021ZM41.8075 39.8605C41.0283 39.8605 40.3965 39.2266 40.3965 38.4447C40.3965 37.6627 41.0283 37.0288 41.8075 37.0288C42.5868 37.0288 43.2185 37.6627 43.2185 38.4447C43.2185 39.2266 42.5868 39.8605 41.8075 39.8605Z" fill="black"/>
<path d="M41.8074 39.8608C42.5867 39.8608 43.2184 39.2269 43.2184 38.4449C43.2184 37.663 42.5867 37.0291 41.8074 37.0291C41.0282 37.0291 40.3965 37.663 40.3965 38.4449C40.3965 39.2269 41.0282 39.8608 41.8074 39.8608Z" fill="white"/>
<path d="M39.2239 37.6261L39.2376 37.6227L39.2418 37.6099L41.8283 29.6722C41.8283 29.6722 41.8283 29.2026 41.8283 28.7327C41.828 28.6003 41.828 28.4693 41.828 28.3476C41.828 28.3073 41.828 28.2667 41.828 28.2292C41.828 28.1699 41.828 28.1159 41.828 28.0658C41.828 28.0305 41.828 27.9964 41.828 27.967C41.828 27.9275 41.828 27.8953 41.828 27.8682C41.828 27.8461 41.828 27.827 41.828 27.8147C41.828 27.801 41.8278 27.7937 41.8278 27.7937C40.3872 27.4976 38.906 27.3345 37.3902 27.3345C36.884 27.3345 36.3822 27.356 35.8833 27.3899C35.8105 27.3946 35.7377 27.3994 35.6649 27.405C33.0686 27.6029 30.5119 28.2818 28.1446 29.3666C26.1142 30.2969 24.228 31.5219 22.5326 32.975C22.5315 32.9758 22.5306 32.9766 22.5295 32.9775C22.0741 33.3657 21.6381 33.7754 21.2117 34.1949C21.1322 34.2733 21.0511 34.3505 20.9724 34.43C20.5711 34.8355 20.1834 35.2551 19.8086 35.6863C19.7268 35.7804 19.6474 35.8761 19.567 35.9712C19.1908 36.4171 18.824 36.8713 18.4765 37.3409C18.4475 37.3804 18.4205 37.4212 18.3915 37.4607C18.0598 37.9135 17.7441 38.3781 17.4401 38.8505C17.3807 38.9426 17.3196 39.0338 17.2614 39.1268C17.0154 39.5183 16.7864 39.9208 16.5591 40.3238H28.3214H28.3421L39.2239 37.6261Z" fill="#BBBCBD"/>
<path d="M49.171 36.7328C49.195 36.4232 49.2145 36.1137 49.2307 35.8039C49.2522 35.3843 49.2667 34.9645 49.2747 34.5447C49.2809 34.219 49.28 33.8929 49.2789 33.5669C49.2784 33.4728 49.2809 33.3788 49.28 33.2845C49.2714 32.444 49.2388 31.603 49.1875 30.7615C49.1852 30.7601 49.183 30.7584 49.1805 30.757C49.1794 30.7548 49.1782 30.7528 49.1771 30.7508C49.1738 30.7489 49.1618 30.7422 49.1509 30.7357C49.1409 30.7298 49.1322 30.7248 49.1135 30.7142C48.9596 30.6255 48.5814 30.4083 48.242 30.2146C48.2347 30.2107 48.2275 30.2062 48.2205 30.2023C48.1346 30.1533 48.0518 30.1063 47.9765 30.0638C47.9751 30.0629 47.9734 30.0621 47.972 30.0612C47.9073 30.0249 47.8532 29.9943 47.803 29.9664C47.7929 29.9608 47.779 29.9529 47.7698 29.9476C47.7146 29.9168 47.6719 29.8933 47.6468 29.8804C47.1049 29.5983 46.5524 29.3375 45.9901 29.0993C44.6503 28.5315 42.8452 28.0339 41.8284 27.7935V28.5082V28.6753V28.733C41.8284 29.2026 41.8284 29.6725 41.8284 29.6725L44.392 37.6233L44.3951 37.63C44.6595 37.883 44.8876 38.1741 45.07 38.4945L45.0703 38.4948C45.13 38.6 45.1847 38.7084 45.2343 38.8195C45.2354 38.8217 45.2365 38.8239 45.2377 38.8262C45.2867 38.9367 45.3305 39.0501 45.369 39.1659C45.3699 39.1687 45.371 39.1713 45.3721 39.1741C45.4103 39.2896 45.4426 39.408 45.4694 39.5284C45.47 39.5314 45.4711 39.5345 45.4717 39.5379C45.4987 39.6596 45.5196 39.7833 45.5344 39.9093C45.5347 39.9109 45.535 39.9126 45.5352 39.9146C45.55 40.0422 45.5587 40.1718 45.5606 40.303L45.5698 40.3243H48.7091C48.9214 39.1715 49.0692 38.0034 49.1629 36.8302C49.1649 36.7971 49.1685 36.7649 49.171 36.7328Z" fill="#E2DDDB"/>
<path d="M53.2768 33.9216C53.2751 33.9253 53.2732 33.9292 53.2715 33.9328C53.2732 33.9292 53.2751 33.9255 53.2771 33.9219L53.2768 33.9216Z" fill="#FBB040"/>
<path d="M45.5872 51.6529C46.2992 50.9421 46.9719 50.2606 47.6131 49.5934C47.9941 49.1968 48.3667 48.8042 48.7223 48.4168C51.3459 45.5591 53.2723 42.8846 54.4308 39.4442C54.4582 39.3625 54.4855 39.2547 54.512 39.1338C54.5162 39.1151 54.5204 39.0974 54.5243 39.0779C54.5513 38.9494 54.5781 38.8067 54.6043 38.6457C54.6149 38.5349 54.6255 38.4272 54.6353 38.3231C54.3444 36.8249 53.7788 35.369 53.2801 33.9313C53.2818 33.9364 53.2837 33.9411 53.2854 33.9462C53.2826 33.9437 53.2731 33.9341 53.2712 33.9325C53.1755 33.8415 53.0751 33.7564 52.9783 33.6669C52.6832 33.3937 52.3829 33.1276 52.0775 32.8687C51.161 32.0929 50.1977 31.3854 49.1872 30.761C49.2385 31.6028 49.2712 32.4438 49.2798 33.284C49.2809 33.378 49.2784 33.4724 49.2787 33.5664C49.2801 33.8924 49.2809 34.2185 49.2745 34.5443C49.2664 34.9641 49.2522 35.3839 49.2304 35.8034C49.2146 36.1132 49.1947 36.4227 49.1708 36.7323C49.1683 36.7645 49.1646 36.7966 49.1624 36.8288C49.069 38.002 48.9209 39.1702 48.7086 40.323L48.3399 42.0727C47.5699 45.2056 46.0055 48.0477 44.7195 50.9818C44.3784 51.7601 44.0549 52.5466 43.7712 53.3481C43.7453 53.422 43.7177 53.4987 43.6909 53.5748C44.0925 53.1514 44.4481 52.785 44.7187 52.5161C45.0137 52.2239 45.3032 51.9362 45.5872 51.6529Z" fill="#FBB040"/>
<path d="M39.2417 37.61C39.4093 37.4522 39.5914 37.3094 39.7856 37.1841C39.7861 37.1838 39.7867 37.1835 39.7872 37.1829C39.9797 37.0589 40.1841 36.952 40.3986 36.8644C40.4042 36.8622 40.41 36.8605 40.4156 36.8583C40.6267 36.7732 40.8471 36.7063 41.0752 36.6607C41.0833 36.659 41.0916 36.6585 41.0997 36.6571C41.329 36.6128 41.5652 36.5879 41.8076 36.5879C42.0544 36.5879 42.2948 36.6131 42.528 36.659C42.5338 36.6601 42.5397 36.6604 42.5456 36.6618C42.7782 36.7086 43.0029 36.7774 43.2177 36.8653C43.2213 36.8667 43.225 36.8678 43.2286 36.8692C43.6645 37.0492 44.0594 37.3086 44.3955 37.6299L44.3924 37.6232L41.8288 29.6724L39.2417 37.61Z" fill="#909393"/>
<path d="M38.331 41.7791C38.2423 41.5619 38.1728 41.335 38.1257 41.0996C38.1246 41.0948 38.1243 41.0895 38.1235 41.0848C38.0772 40.8491 38.0518 40.6059 38.0518 40.3566C38.0518 40.2236 38.059 40.0926 38.0724 39.9636C38.0755 39.9334 38.0822 39.904 38.0861 39.8741C38.0989 39.7753 38.1123 39.6767 38.1324 39.5808C38.1383 39.5528 38.1472 39.5259 38.1536 39.4982C38.1765 39.4005 38.2004 39.3034 38.2308 39.2091C38.2373 39.1892 38.2454 39.1702 38.252 39.1506C38.2864 39.0493 38.3229 38.9488 38.3656 38.8514C38.3706 38.8402 38.3764 38.8293 38.3815 38.8181C38.4286 38.7132 38.4793 38.6102 38.5354 38.5108C38.5376 38.5069 38.5401 38.5033 38.5421 38.4996C38.7262 38.1758 38.9563 37.8817 39.2237 37.6267L28.3424 40.3241H28.3218L39.0993 42.9638C38.7764 42.626 38.515 42.228 38.3343 41.7886C38.3329 41.7853 38.3321 41.7822 38.331 41.7791Z" fill="#676A6A"/>
<path d="M62.8137 39.7336C62.8206 39.6849 62.8309 39.6396 62.839 39.592C62.8664 39.4367 62.899 39.285 62.9403 39.1417C62.9447 39.1255 62.9467 39.107 62.9514 39.091L64.3713 32.5673L64.371 28.8475C63.2111 27.8862 61.9689 27.3606 60.675 27.3606C59.041 27.3606 57.5173 28.2657 56.3777 29.3843C55.1308 30.6082 54.1675 32.1486 53.3882 33.7024C53.3525 33.7738 53.3157 33.8426 53.2803 33.9146C53.5207 34.1231 53.758 34.3349 53.9926 34.5502C54.5233 35.0374 55.0424 35.5373 55.5544 36.0441C55.7932 36.2803 56.0272 36.5218 56.262 36.762C56.5111 37.0166 56.7607 37.2705 57.0061 37.5294C57.3215 37.8621 57.6345 38.1983 57.944 38.5372C58.0743 38.6799 58.2043 38.8229 58.3337 38.9665C58.7068 39.3813 59.0781 39.7977 59.4437 40.2197L59.4443 40.2203C59.5053 40.2847 59.5486 40.3309 59.565 40.3502H62.7668C62.7668 40.3239 62.7721 40.3003 62.7727 40.2743C62.7763 40.0885 62.7888 39.9071 62.8137 39.7336Z" fill="#E2DDDB"/>
<path d="M53.2804 33.9317C53.2793 33.9283 53.2782 33.925 53.2771 33.9219C53.2754 33.9255 53.2734 33.9292 53.2715 33.9328C53.2734 33.9345 53.283 33.944 53.2858 33.9465C53.2838 33.9415 53.2821 33.9367 53.2804 33.9317Z" fill="#E2DDDB"/>
<path d="M14.6291 44.4286C14.6383 44.4045 14.6484 44.381 14.6576 44.3569C14.8637 43.8159 15.0896 43.2822 15.3269 42.7533C15.393 42.6058 15.4613 42.4603 15.5297 42.3139C15.7238 41.8988 15.9293 41.4897 16.1424 41.0841C16.2292 40.919 16.3137 40.7533 16.4035 40.5899C16.4531 40.4995 16.5092 40.4133 16.5597 40.3235C16.787 39.9202 17.0157 39.518 17.2619 39.1265C17.3202 39.0335 17.3813 38.9426 17.4407 38.8502C17.745 38.3778 18.0607 37.9132 18.392 37.4604C18.421 37.4209 18.4478 37.3798 18.4771 37.3406C18.8246 36.871 19.1914 36.4168 19.5676 35.9709C19.6479 35.8758 19.7274 35.7801 19.8091 35.686C20.184 35.2548 20.5716 34.8355 20.973 34.4297C21.0519 34.3502 21.1325 34.273 21.2123 34.1946C21.6387 33.7751 22.0749 33.3654 22.5301 32.9772C22.5312 32.9763 22.532 32.9752 22.5332 32.9744C24.3237 26.9544 29.803 22.5719 36.2872 22.5719C38.8971 22.5719 41.4923 23.3265 43.7168 24.6919C45.9979 26.0921 47.8573 28.1436 49.065 30.535C49.0711 30.5471 49.077 30.5591 49.0828 30.5709C49.1132 30.6316 49.1475 30.6898 49.1777 30.7505C49.1788 30.7525 49.1799 30.7547 49.181 30.7567C49.1832 30.7581 49.1855 30.7598 49.188 30.7612C50.1984 31.3856 51.1618 32.0931 52.0782 32.8689C52.3839 33.1275 52.684 33.3936 52.9791 33.6671C53.0759 33.7566 53.1763 33.8417 53.2719 33.9327C53.2736 33.929 53.2756 33.9251 53.2772 33.9215C53.2786 33.9192 53.2797 33.9167 53.2809 33.9142C53.3138 33.8462 53.3461 33.7773 53.3799 33.7107C54.2935 27.9239 56.8371 23.7555 59.8375 23.7555C62.0989 23.7555 64.1022 26.1221 65.3436 29.7643L65.3561 29.8035C65.3573 29.8049 65.3584 29.8063 65.3595 29.8074C65.7101 30.1897 66.0517 30.6109 66.3828 31.0724L66.3822 31.0721C66.3886 31.0811 66.3953 31.0892 66.402 31.0981L66.4017 31.0979L66.402 31.0981C66.4199 31.151 66.4349 31.205 66.4522 31.2582V31.2579L66.4051 31.0682C62.6728 19.9801 52.2216 11.9971 39.9123 11.9971C24.4724 11.9971 11.9556 24.557 11.9556 40.0506C11.9556 43.1051 12.442 46.0454 13.345 48.7819C13.3462 48.7766 13.3476 48.7713 13.3487 48.766C13.5263 47.9407 13.7391 47.1204 13.9865 46.3087C14.1801 45.6762 14.3946 45.0488 14.6291 44.4286Z" fill="#525353"/>
<path d="M66.8232 40.3608L65.8482 41.4553V41.4551C65.8476 41.4576 65.8465 41.4598 65.8459 41.4626C65.8088 41.6062 65.7634 41.7411 65.7135 41.8707C65.7004 41.9048 65.6856 41.937 65.6716 41.97C65.6329 42.0618 65.591 42.1489 65.5461 42.2317C65.5221 42.2759 65.4982 42.321 65.4725 42.3624C65.4321 42.4276 65.3885 42.4867 65.3442 42.5443C65.2803 42.6277 65.2131 42.7027 65.1423 42.769C65.1133 42.7962 65.0851 42.8261 65.055 42.8505C65.0003 42.8944 64.9434 42.9311 64.8854 42.9644C64.8634 42.977 64.8413 42.9887 64.8188 42.9999C64.679 43.0685 64.5323 43.1085 64.3798 43.1085C63.4937 43.1085 62.7753 41.8735 62.7753 40.3499H62.7688H62.7674H59.5657H59.5559C59.5565 40.3507 59.5573 40.3513 59.5579 40.3521C60.1553 41.0448 60.7429 41.7467 61.3225 42.4553C61.3294 42.464 61.3364 42.4724 61.3437 42.4811C61.907 43.1707 62.462 43.8673 63.0109 44.568C63.038 44.6025 63.0647 44.6366 63.0918 44.671C63.6128 45.3371 64.1271 46.0077 64.6375 46.6802C64.6871 46.7454 64.737 46.8101 64.7864 46.8753C65.3261 47.5878 65.861 48.3023 66.3918 49.0174C66.3954 49.0224 66.399 49.0275 66.4029 49.0325C67.3227 46.3016 67.837 43.3848 67.8691 40.3499H67.8618H66.8327L66.8232 40.3608Z" fill="white"/>
<path d="M35.6653 27.4046C35.7381 27.399 35.8109 27.3945 35.8837 27.3894C36.3823 27.3553 36.8841 27.334 37.3906 27.334C38.9064 27.334 40.3876 27.4972 41.8281 27.7933C41.8281 27.7933 41.8284 27.8009 41.8284 27.8143C41.8284 27.8266 41.8284 27.8456 41.8284 27.8677C41.8284 27.8943 41.8284 27.9285 41.8284 27.9665C41.8284 27.9959 41.8284 28.0303 41.8284 28.0653C41.8284 28.1149 41.8284 28.1706 41.8284 28.2288C41.8284 28.2666 41.8284 28.3069 41.8284 28.3472C41.8284 28.3989 41.8287 28.4529 41.8287 28.5078V27.793C42.8456 28.0334 44.6503 28.531 45.9905 29.0989C46.5527 29.3371 47.1055 29.5982 47.6471 29.88C47.6722 29.8929 47.7149 29.9164 47.7701 29.9472C47.7793 29.9522 47.7933 29.9603 47.8033 29.9659C47.8535 29.9939 47.9082 30.0247 47.9723 30.0608C47.9737 30.0616 47.9754 30.0625 47.9768 30.0633C48.0521 30.1059 48.1344 30.1526 48.2208 30.2019C48.2278 30.2058 48.2353 30.2102 48.2423 30.2142C48.5867 30.4104 48.9683 30.6298 49.1139 30.7137C49.1326 30.7244 49.1412 30.7294 49.1512 30.7353C49.1582 30.7395 49.1749 30.749 49.1775 30.7504C49.1473 30.6894 49.113 30.6312 49.0826 30.5707C49.0768 30.5587 49.0706 30.5467 49.0648 30.5349C47.8571 28.1434 45.9977 26.092 43.7166 24.6918C41.4924 23.3263 38.8972 22.5718 36.2869 22.5718C29.8031 22.5718 24.3238 26.9542 22.533 32.9742C24.2284 31.5212 26.1146 30.2962 28.145 29.3659C30.5123 28.2814 33.069 27.6024 35.6653 27.4046Z" fill="black"/>
<path d="M56.3783 29.3844C57.5179 28.2657 59.0416 27.3606 60.6756 27.3606C61.9692 27.3606 63.2117 27.8862 64.3716 28.8476C64.3716 28.8476 64.3719 28.856 64.3719 28.8588L64.3722 28.8607V28.8588C64.4759 28.9444 64.5777 29.041 64.6804 29.1342C64.7426 29.1907 64.8059 29.2425 64.8675 29.3015C65.0304 29.458 65.1913 29.6237 65.3506 29.7969V29.7966C65.3536 29.8 65.3567 29.8039 65.3598 29.8073C65.3587 29.8061 65.3575 29.8047 65.3567 29.8036L65.3564 29.8033L65.3436 29.7642C64.1022 26.1219 62.0989 23.7554 59.8375 23.7554C56.8371 23.7554 54.2936 27.9237 53.3799 33.7106L53.3894 33.7025C54.1681 32.1484 55.1317 30.6082 56.3783 29.3844Z" fill="black"/>
<path d="M29.9025 66.2196C30.1577 66.3178 30.4173 66.4068 30.6761 66.4978C33.5681 67.5146 36.6739 68.0746 39.9122 68.0746C43.6046 68.0746 47.1265 67.3494 50.3534 66.0444C50.5241 65.9753 50.6912 65.8997 50.8602 65.8275C51.1341 65.7105 51.4063 65.5902 51.6757 65.4645C51.9167 65.3523 52.1579 65.2409 52.395 65.1217C52.3378 65.129 52.2803 65.1399 52.2232 65.1463C51.22 65.2597 50.2243 65.2664 49.2518 65.1259C43.4994 64.2961 42.2251 61.513 42.4075 58.6144C41.9937 58.3749 41.572 58.1054 41.1436 57.7933C36.7196 54.5726 34.0938 51.1417 34.0938 51.1417C34.0938 51.1417 37.5064 53.785 42.6039 55.7637C42.7132 55.8062 42.8156 55.8429 42.923 55.8835C43.1609 55.0573 43.4431 54.2717 43.6908 53.5751C43.7178 53.4993 43.7451 53.4223 43.7711 53.3484C44.0547 52.5469 44.378 51.7604 44.7193 50.9821C46.0054 48.048 47.5697 45.2056 48.3398 42.0731L48.7085 40.3233H45.5697H45.5633H45.563C45.563 40.3256 45.5633 40.3275 45.5633 40.3295L45.5619 40.33C45.5619 40.3387 45.5633 40.3471 45.5633 40.3561C45.5633 40.8763 45.4582 41.372 45.2682 41.8229C45.1731 42.0484 45.0568 42.2625 44.9221 42.4629C44.6521 42.864 44.3071 43.2099 43.9075 43.4808C43.7078 43.6163 43.4941 43.733 43.2696 43.8284C42.8203 44.019 42.3264 44.1245 41.8076 44.1245C41.676 44.1245 41.546 44.1175 41.4174 44.1041C41.3873 44.101 41.3583 44.0943 41.3285 44.0904C41.2303 44.0778 41.1327 44.0643 41.0373 44.0445C41.0105 44.0389 40.9851 44.0305 40.9587 44.0243C40.8608 44.0014 40.7631 43.9773 40.6683 43.9468C40.6507 43.9412 40.634 43.9336 40.6167 43.9278C40.5141 43.893 40.4123 43.8558 40.3138 43.813C40.3049 43.8091 40.2965 43.8043 40.2879 43.8004C40.1816 43.7528 40.0773 43.7016 39.9764 43.6448C39.9747 43.644 39.9733 43.6428 39.9716 43.6417C39.6484 43.4587 39.3544 43.2295 39.0992 42.9625L28.3217 40.3228H16.5593C16.5088 40.4126 16.4528 40.4991 16.4031 40.5892C16.3133 40.7526 16.2288 40.9186 16.1421 41.0834C15.929 41.489 15.7234 41.8984 15.5293 42.3132C15.4607 42.4593 15.3927 42.6056 15.3266 42.7526C15.0892 43.2815 14.8633 43.8152 14.6572 44.3562C14.648 44.3803 14.638 44.4038 14.6288 44.4279C14.3942 45.0481 14.1797 45.6753 13.9867 46.308C13.7393 47.1197 13.5263 47.94 13.3489 48.7653C15.2008 54.4326 18.8033 59.3024 23.5131 62.735C23.6501 62.8346 23.7945 62.9236 23.9334 63.021C24.73 63.5796 25.553 64.1027 26.407 64.5773C27.5282 65.2012 28.6934 65.7539 29.9025 66.2196Z" fill="white"/>
<path d="M49.2044 57.5061C49.1617 57.807 49.1327 58.102 49.1238 58.3874C49.1073 58.906 49.1433 59.3992 49.2183 59.8649C49.2683 60.1752 49.3358 60.4739 49.4169 60.7596C49.5385 61.1884 49.6911 61.5886 49.8615 61.9586C50.0319 62.3285 50.2204 62.6686 50.414 62.9767C50.4787 63.0794 50.5437 63.1785 50.6089 63.2742C50.7071 63.4175 50.805 63.5527 50.9018 63.6798C51.0304 63.8485 51.1545 63.9968 51.2747 64.1357C51.7876 64.7279 52.1917 65.0492 52.1917 65.0492C52.1917 65.0492 52.1948 65.0584 52.2001 65.0752C52.2054 65.092 52.2135 65.1163 52.2235 65.1463C52.2807 65.1398 52.3381 65.1289 52.3953 65.1216C53.642 64.9649 54.8976 64.626 56.1368 64.179C56.7687 63.951 57.3979 63.7038 58.0168 63.4203C58.2056 63.3338 58.3905 63.2376 58.5777 63.1469C64.9812 60.0395 70.3437 54.5437 70.3437 54.5437C62.2977 58.5108 54.4341 58.353 49.2044 57.5061Z" fill="#9F2255"/>
<path d="M64.6373 46.6803C64.127 46.008 63.6124 45.3374 63.0917 44.6711C63.0649 44.6367 63.0376 44.6025 63.0108 44.5681C62.4619 43.8673 61.9069 43.171 61.3435 42.4811C61.3366 42.4724 61.3296 42.464 61.3223 42.4554C60.7431 41.7467 60.1554 41.0448 59.5577 40.3521C59.5195 40.3082 59.4821 40.2637 59.4439 40.2198C59.0783 39.7977 58.7071 39.381 58.3339 38.9665C58.2045 38.8229 58.0748 38.6796 57.9443 38.5372C57.6347 38.1983 57.3218 37.8624 57.0063 37.5294C56.7609 37.2711 56.5119 37.0164 56.2622 36.762C56.0274 36.5218 55.7934 36.2803 55.5547 36.0441C55.0421 35.5375 54.5233 35.0371 53.9928 34.5502C53.7583 34.335 53.5206 34.1228 53.2802 33.9143C53.2791 33.9168 53.278 33.9191 53.2766 33.9216C53.7817 35.3786 54.3585 36.8538 54.6468 38.3729C54.7219 38.7681 54.7841 39.1529 54.8345 39.5282C55.5382 44.7867 53.8592 48.2201 51.1924 52.7366C51.0013 53.0604 50.805 53.3896 50.6045 53.7254C49.9948 54.7455 49.604 55.7119 49.3776 56.6187C49.3023 56.921 49.2451 57.2168 49.2041 57.5059C54.4338 58.353 62.2977 58.5109 70.3437 54.5435C70.3437 54.5435 68.7659 52.2164 66.3914 49.0172C65.8606 48.3021 65.3257 47.5876 64.786 46.875C64.7372 46.8101 64.687 46.7452 64.6373 46.6803Z" fill="#E2066F"/>
<path d="M52.1918 65.0494C52.1918 65.0494 51.7877 64.7281 51.2748 64.1359C51.1546 63.9971 51.0307 63.8487 50.9019 63.6797C50.8051 63.5526 50.7069 63.4174 50.609 63.2742C50.5438 63.1784 50.4788 63.0794 50.4141 62.9766C50.2202 62.6685 50.032 62.3285 49.8616 61.9585C49.6912 61.5885 49.5386 61.188 49.417 60.7595C49.3358 60.4738 49.2686 60.1754 49.2184 59.8648C49.1434 59.3991 49.1077 58.906 49.1239 58.3874C49.1328 58.1019 49.1618 57.8066 49.2045 57.506C49.2455 57.2169 49.3027 56.9214 49.378 56.6189C49.6041 55.7118 49.9949 54.7457 50.6048 53.7253C50.6065 53.7225 50.6082 53.7197 50.6099 53.7169C50.8087 53.3839 51.0034 53.0575 51.1928 52.7365C53.8596 48.22 55.5386 44.7866 54.8349 39.5281C54.7844 39.1525 54.7222 38.768 54.6472 38.3728C54.6073 38.646 54.5663 38.881 54.5245 39.0781C54.5206 39.0977 54.5164 39.1153 54.5122 39.134C54.4855 39.2541 54.4584 39.3627 54.4311 39.4444C53.2725 42.8848 51.3464 45.559 48.7225 48.417C48.3669 48.8044 47.9943 49.197 47.6134 49.5936C46.9719 50.2608 46.2992 50.9423 45.5874 51.6531C45.3035 51.9364 45.0143 52.2241 44.7192 52.5171C44.4487 52.7858 44.0931 53.1521 43.6915 53.5758C43.4435 54.2722 43.1615 55.0578 42.9236 55.8842C42.8163 55.8433 42.7139 55.8067 42.6046 55.7644C37.5071 53.7857 34.0945 51.1424 34.0945 51.1424C34.0945 51.1424 36.7201 54.5733 41.1443 57.794C41.5726 58.1061 41.9946 58.3756 42.4082 58.6152C42.2258 61.5138 43.5001 64.2971 49.2525 65.1266C50.225 65.2668 51.2207 65.2604 52.2239 65.147C52.2138 65.1171 52.206 65.093 52.2004 65.0759C52.1946 65.0586 52.1918 65.0494 52.1918 65.0494Z" fill="black"/>
</svg>
