<svg width="80" height="81" viewBox="0 0 80 81" fill="none" xmlns="http://www.w3.org/2000/svg">
<path d="M79.6985 40.8545C77.8724 52.5065 74.3194 55.9124 68.0273 63.7402C61.7352 70.3728 52.684 81.4472 39.8616 80.8297C28.2499 78.9973 24.8558 75.432 17.0551 69.118C10.4454 62.804 -0.590643 53.7215 0.0246761 40.8545C1.85078 29.2025 5.40375 25.7966 11.6959 17.9688C17.988 11.3362 27.0391 0.261799 39.8616 0.879254C51.4733 2.7117 54.8674 6.27701 62.6681 12.591C69.2778 18.905 80.294 27.9875 79.6985 40.8545Z" fill="#3765AF"/>
<path d="M17.5117 27.928H62.1918C65.0104 27.928 67.3128 30.2185 67.3128 33.0668V50.1763C67.3128 53.0046 65.0302 55.3151 62.1918 55.3151H46.1737L48.3769 60.7128L38.7104 55.3151H17.5316C14.713 55.3151 12.4105 53.0245 12.4105 50.1763V33.0668C12.3907 30.2385 14.6733 27.928 17.5117 27.928Z" fill="white"/>
<path d="M15.1497 32.5889C15.4672 32.1706 15.9436 31.9316 16.5589 31.8917C17.7102 31.7922 18.3453 32.3499 18.5041 33.5051C19.1988 38.2057 19.9531 42.1893 20.7669 45.4558L25.6895 36.0745C26.146 35.218 26.7018 34.7599 27.3766 34.7201C28.3691 34.6603 28.9645 35.2778 29.2226 36.6123C29.7783 39.6 30.4929 42.1495 31.3464 44.3205C31.922 38.6041 32.9145 34.4811 34.3039 31.9316C34.6413 31.2942 35.1376 30.9954 35.7926 30.9357C36.3087 30.8958 36.785 31.0552 37.2019 31.3938C37.6187 31.7324 37.8569 32.1507 37.8966 32.6685C37.9164 33.0669 37.8569 33.4055 37.6782 33.7441C36.8049 35.3575 36.0903 38.0862 35.4948 41.8706C34.9391 45.5355 34.7406 48.4037 34.8597 50.4552C34.8994 51.0129 34.82 51.5109 34.5818 51.949C34.3039 52.447 33.9069 52.7059 33.3909 52.7657C32.8152 52.8055 32.1999 52.5466 31.6243 51.9291C29.5402 49.7979 27.8728 46.5911 26.6621 42.3287C25.2131 45.2168 24.1214 47.3679 23.4267 48.8219C22.0968 51.3714 20.9853 52.6661 20.0325 52.7458C19.4172 52.7856 18.9011 52.2677 18.4644 51.1922C17.3132 48.2443 16.0826 42.5478 14.7527 34.1026C14.7328 33.5051 14.8321 32.9872 15.1497 32.5889Z" fill="#3765AF"/>
<path d="M63.4023 36.1142C62.5885 34.7 61.3975 33.8435 59.8096 33.5049C59.3928 33.4053 58.9759 33.3655 58.5988 33.3655C56.4353 33.3655 54.6886 34.5008 53.319 36.7515C52.1479 38.6636 51.5723 40.7749 51.5723 43.1053C51.5723 44.8382 51.9295 46.332 52.6441 47.5669C53.4579 48.9811 54.6489 49.8376 56.2368 50.1762C56.6536 50.2758 57.0704 50.3156 57.4476 50.3156C59.631 50.3156 61.3777 49.1803 62.7274 46.9296C63.8985 44.9975 64.4741 42.8862 64.4741 40.5558C64.4741 38.8031 64.1168 37.3291 63.4023 36.1142ZM60.5639 42.3684C60.2463 43.8622 59.6905 44.9577 58.8568 45.6947C58.2018 46.2723 57.6064 46.5312 57.0307 46.4117C56.4948 46.2922 56.0383 45.8341 55.7009 44.9577C55.423 44.2606 55.3039 43.5634 55.3039 42.9062C55.3039 42.3485 55.3436 41.7708 55.4627 41.253C55.6612 40.3367 56.0383 39.4205 56.6536 38.5641C57.388 37.4686 58.182 37.0105 58.9958 37.1698C59.5317 37.2893 59.9882 37.7474 60.3257 38.6238C60.6036 39.3209 60.7226 40.0181 60.7226 40.6754C60.7226 41.2729 60.6631 41.8505 60.5639 42.3684Z" fill="#3765AF"/>
<path d="M49.3295 36.1142C48.5157 34.7 47.3049 33.8435 45.7368 33.5049C45.32 33.4053 44.9032 33.3655 44.5261 33.3655C42.3625 33.3655 40.6158 34.5008 39.2462 36.7515C38.0751 38.6636 37.4995 40.7749 37.4995 43.1053C37.4995 44.8382 37.8568 46.332 38.5714 47.5669C39.3852 48.9811 40.5761 49.8376 42.164 50.1762C42.5809 50.2758 42.9977 50.3156 43.3748 50.3156C45.5582 50.3156 47.3049 49.1803 48.6547 46.9296C49.8257 44.9975 50.4014 42.8862 50.4014 40.5558C50.4014 38.8031 50.0441 37.3291 49.3295 36.1142ZM46.4911 42.3684C46.1735 43.8622 45.6178 44.9577 44.7841 45.6947C44.1291 46.2723 43.5336 46.5312 42.958 46.4117C42.4221 46.2922 41.9655 45.8341 41.6281 44.9577C41.3502 44.2606 41.2311 43.5634 41.2311 42.9062C41.2311 42.3485 41.2708 41.7708 41.3899 41.253C41.5884 40.3367 41.9655 39.4205 42.5809 38.5641C43.3153 37.4686 44.1092 37.0105 44.923 37.1698C45.459 37.2893 45.9155 37.7474 46.2529 38.6238C46.5308 39.3209 46.6499 40.0181 46.6499 40.6754C46.6499 41.2729 46.6102 41.8505 46.4911 42.3684Z" fill="#3765AF"/>
</svg>
