<?xml version="1.0" encoding="utf-8"?>
<!-- Generator: Adobe Illustrator 16.0.0, SVG Export Plug-In . SVG Version: 6.00 Build 0)  -->
<!DOCTYPE svg PUBLIC "-//W3C//DTD SVG 1.1//EN" "http://www.w3.org/Graphics/SVG/1.1/DTD/svg11.dtd">
<svg version="1.1" id="Layer_1" xmlns="http://www.w3.org/2000/svg" xmlns:xlink="http://www.w3.org/1999/xlink" x="0px" y="0px"
	 width="80px" height="80px" viewBox="0 0 80 80" enable-background="new 0 0 80 80" xml:space="preserve">
<path fill="#3498D8" d="M13.287,28.148l13.878,38.223C17.421,61.63,10.63,51.556,10.63,40C10.63,35.852,11.516,31.704,13.287,28.148
	z M59.645,38.519c0-3.555-1.181-6.222-2.361-8c-1.477-2.37-2.953-4.444-2.953-6.814c0-2.667,2.066-5.333,5.02-5.333h0.295
	c-5.314-4.741-12.105-7.704-19.783-7.704c-10.04,0-19.193,5.333-24.212,13.037c0.591,0,1.181,0,1.771,0
	c2.953,0,7.677-0.296,7.677-0.296c1.477,0,1.771,2.371,0.295,2.371c0,0-1.477,0.296-3.248,0.296l10.63,31.704l6.496-19.26
	l-4.429-12.444c-1.477,0-2.953-0.296-2.953-0.296c-1.477,0-1.477-2.371,0.295-2.371c0,0,4.725,0.296,7.677,0.296
	s7.677-0.296,7.677-0.296c1.477,0,1.771,2.371,0.295,2.371c0,0-1.477,0.296-3.248,0.296l9.744,31.704L57.283,48
	C58.464,43.852,59.645,40.889,59.645,38.519z M40.452,42.667l-8.858,25.481c2.657,0.889,5.315,1.186,8.268,1.186
	c3.248,0,6.791-0.593,9.744-1.778l-0.295-0.296L40.452,42.667z M65.551,26.074c0,0.889,0.295,2.074,0.295,2.963
	c0,2.963-0.591,6.222-2.362,10.37l-8.858,25.778C63.188,60.148,69.094,50.667,69.094,40C69.094,34.963,67.617,30.223,65.551,26.074z
	"/>
<path fill="#2980B9" d="M39.862,0C18.012,0,0,18.074,0,40s18.012,40,39.862,40s39.861-18.074,39.861-40S61.712,0,39.862,0z
	 M39.862,75.26C20.669,75.26,4.724,59.556,4.724,40c0-19.259,15.649-35.259,35.138-35.259c19.488,0,35.137,16,35.137,35.259
	C74.999,59.26,59.055,75.26,39.862,75.26z"/>
</svg>
