<?xml version="1.0" encoding="utf-8"?>
<!-- Generator: Adobe Illustrator 16.0.0, SVG Export Plug-In . SVG Version: 6.00 Build 0)  -->
<!DOCTYPE svg PUBLIC "-//W3C//DTD SVG 1.1//EN" "http://www.w3.org/Graphics/SVG/1.1/DTD/svg11.dtd">
<svg version="1.1" id="Layer_1" xmlns="http://www.w3.org/2000/svg" xmlns:xlink="http://www.w3.org/1999/xlink" x="0px" y="0px"
	 width="115.55px" height="94.22px" viewBox="163.331 26.591 115.55 94.22"
	 style="enable-background:new 163.331 26.591 115.55 94.22;" xml:space="preserve">
<circle cx="261.961" cy="37.686" r="3.067"/>
<path d="M272.222,26.591H184.02c-3.674,0-6.655,2.985-6.655,6.662v8.875c0,3.677,2.979,6.662,6.655,6.662h88.202
	c3.677,0,6.658-2.985,6.658-6.662V33.25C278.878,29.576,275.899,26.591,272.222,26.591z M189.012,43.517h-3.325V31.861h3.325V43.517
	z M198.443,43.517h-3.325V31.861h3.325V43.517z M207.874,43.517h-3.328V31.861h3.328V43.517z M217.304,43.517h-3.328V31.861h3.328
	V43.517z M227.013,40.184c-1.381,0-2.495-1.12-2.495-2.498c0-1.377,1.114-2.492,2.495-2.492c1.377,0,2.497,1.114,2.497,2.492
	C229.51,39.064,228.39,40.184,227.013,40.184z M234.837,40.184c-1.381,0-2.497-1.12-2.497-2.498c0-1.377,1.116-2.492,2.497-2.492
	c1.378,0,2.494,1.114,2.494,2.492C237.331,39.064,236.215,40.184,234.837,40.184z M242.657,40.184c-1.377,0-2.497-1.12-2.497-2.498
	c0-1.377,1.12-2.492,2.497-2.492c1.378,0,2.498,1.114,2.498,2.492C245.155,39.064,244.038,40.184,242.657,40.184z M261.961,43.517
	c-3.217,0-5.827-2.608-5.827-5.831c0-3.217,2.61-5.825,5.827-5.825c3.218,0,5.825,2.607,5.825,5.825
	C267.786,40.909,265.178,43.517,261.961,43.517z"/>
<circle cx="261.961" cy="64.315" r="3.067"/>
<circle cx="261.961" cy="90.943" r="3.07"/>
<path d="M193.676,51.953c-14.615,0-30.345,2.597-30.345,8.306v-0.315c0,0-0.025,0.122,0,0.337v13.156
	c0,4.025,13.583,7.285,30.345,7.285c16.752,0,30.339-3.26,30.339-7.285V59.943c0,0-0.003,0.029-0.021,0.071
	C223.552,54.479,208.078,51.953,193.676,51.953z M193.676,65.888c-17.903,0-27.672-3.722-27.672-5.629s9.766-5.629,27.672-5.629
	c17.9,0,27.668,3.722,27.668,5.629S211.576,65.888,193.676,65.888z"/>
<path d="M193.676,85.348c-16.762,0-30.345-3.26-30.345-7.285v15.414c0,4.025,13.583,7.285,30.345,7.285
	c16.752,0,30.339-3.26,30.339-7.285V78.063C224.014,82.088,210.427,85.348,193.676,85.348z"/>
<path d="M272.222,53.22h-50.408c3.05,1.573,5.111,3.688,5.341,6.545l0.031,0.178v9.788v3.705v1.976h45.033
	c3.677,0,6.658-2.979,6.658-6.656v-8.881C278.878,56.199,275.899,53.22,272.222,53.22z M234.837,66.812
	c-1.381,0-2.497-1.12-2.497-2.498c0-1.377,1.116-2.497,2.497-2.497c1.378,0,2.494,1.12,2.494,2.497
	C237.331,65.692,236.215,66.812,234.837,66.812z M242.657,66.812c-1.377,0-2.497-1.12-2.497-2.498c0-1.377,1.12-2.497,2.497-2.497
	c1.378,0,2.498,1.12,2.498,2.497C245.155,65.692,244.038,66.812,242.657,66.812z M261.961,70.14c-3.217,0-5.827-2.608-5.827-5.825
	s2.61-5.825,5.827-5.825c3.218,0,5.825,2.608,5.825,5.825S265.178,70.14,261.961,70.14z"/>
<path d="M272.222,79.846h-45.036v13.631v8.561h45.033c3.677,0,6.658-2.979,6.658-6.655v-8.875
	C278.878,82.83,275.899,79.846,272.222,79.846z M234.837,93.438c-1.381,0-2.497-1.114-2.497-2.498c0-1.377,1.116-2.497,2.497-2.497
	c1.378,0,2.494,1.12,2.494,2.497C237.331,92.323,236.215,93.438,234.837,93.438z M242.657,93.438c-1.377,0-2.497-1.114-2.497-2.498
	c0-1.377,1.12-2.497,2.497-2.497c1.378,0,2.498,1.12,2.498,2.497C245.155,92.323,244.038,93.438,242.657,93.438z M261.961,96.766
	c-3.217,0-5.827-2.608-5.827-5.826s2.61-5.825,5.827-5.825c3.218,0,5.825,2.607,5.825,5.825S265.178,96.766,261.961,96.766z"/>
<path d="M193.676,105.396c-16.762,0-30.345-3.266-30.345-7.285v15.415c0,4.025,13.583,7.285,30.345,7.285
	c16.752,0,30.339-3.26,30.339-7.285V98.111C224.014,102.129,210.427,105.396,193.676,105.396z"/>
</svg>
