<?xml version="1.0" encoding="utf-8"?>
<!-- Generator: Adobe Illustrator 16.0.0, SVG Export Plug-In . SVG Version: 6.00 Build 0)  -->
<!DOCTYPE svg PUBLIC "-//W3C//DTD SVG 1.1//EN" "http://www.w3.org/Graphics/SVG/1.1/DTD/svg11.dtd">
<svg version="1.1" id="Layer_1" xmlns="http://www.w3.org/2000/svg" xmlns:xlink="http://www.w3.org/1999/xlink" x="0px" y="0px"
	 width="94.957px" height="98.401px" viewBox="173.62 24.502 94.957 98.401"
	 style="enable-background:new 173.62 24.502 94.957 98.401;" xml:space="preserve">
<circle cx="252.755" cy="34.88" r="2.872"/>
<path d="M262.355,24.502h-82.51c-3.438,0-6.226,2.787-6.226,6.225v8.303c0,3.441,2.787,6.228,6.226,6.228h82.507
	c3.438,0,6.225-2.786,6.225-6.228v-8.303C268.58,27.289,265.794,24.502,262.355,24.502z M184.519,40.328h-3.112V29.432h3.112V40.328
	z M193.341,40.328h-3.115V29.432h3.115V40.328z M202.162,40.328h-3.118V29.432h3.118V40.328z M210.983,40.328h-3.115V29.432h3.115
	V40.328z M220.062,37.213c-1.289,0-2.333-1.043-2.333-2.333c0-1.29,1.044-2.335,2.333-2.335c1.29,0,2.336,1.046,2.336,2.335
	C222.398,36.17,221.352,37.213,220.062,37.213z M227.382,37.213c-1.29,0-2.336-1.043-2.336-2.333c0-1.29,1.046-2.335,2.336-2.335
	s2.336,1.046,2.336,2.335C229.718,36.17,228.672,37.213,227.382,37.213z M234.701,37.213c-1.293,0-2.336-1.043-2.336-2.333
	c0-1.29,1.043-2.335,2.336-2.335c1.289,0,2.333,1.046,2.333,2.335C237.034,36.17,235.99,37.213,234.701,37.213z M252.755,40.328
	c-3.014,0-5.448-2.438-5.448-5.448s2.435-5.448,5.448-5.448c3.013,0,5.447,2.438,5.447,5.448S255.764,40.328,252.755,40.328z"/>
<circle cx="252.755" cy="59.785" r="2.869"/>
<path d="M262.355,49.41h-82.51c-3.438,0-6.226,2.787-6.226,6.225v8.303c0,3.438,2.787,6.228,6.226,6.228h82.507
	c3.438,0,6.225-2.789,6.225-6.228v-8.303C268.58,52.197,265.794,49.41,262.355,49.41z M184.519,65.236h-3.112V54.337h3.112V65.236z
	 M193.341,65.236h-3.115V54.337h3.115V65.236z M202.162,65.236h-3.118V54.337h3.118V65.236z M210.983,65.236h-3.115V54.337h3.115
	V65.236z M220.062,62.121c-1.289,0-2.333-1.043-2.333-2.333c0-1.29,1.044-2.335,2.333-2.335c1.29,0,2.336,1.046,2.336,2.335
	C222.398,61.078,221.352,62.121,220.062,62.121z M227.382,62.121c-1.29,0-2.336-1.043-2.336-2.333c0-1.29,1.046-2.335,2.336-2.335
	s2.336,1.046,2.336,2.335C229.718,61.078,228.672,62.121,227.382,62.121z M234.701,62.121c-1.293,0-2.336-1.043-2.336-2.333
	c0-1.29,1.043-2.335,2.336-2.335c1.289,0,2.333,1.046,2.333,2.335C237.034,61.078,235.99,62.121,234.701,62.121z M252.755,65.236
	c-3.014,0-5.448-2.438-5.448-5.448s2.435-5.451,5.448-5.451c3.013,0,5.447,2.44,5.447,5.451S255.764,65.236,252.755,65.236z"/>
<circle cx="252.755" cy="84.693" r="2.869"/>
<path d="M262.355,74.315h-82.51c-3.438,0-6.226,2.79-6.226,6.228v8.302c0,3.438,2.787,6.225,6.226,6.225h82.507
	c3.438,0,6.225-2.787,6.225-6.225v-8.302C268.58,77.104,265.794,74.315,262.355,74.315z M184.519,90.144h-3.112V79.245h3.112V90.144
	z M193.341,90.144h-3.115V79.245h3.115V90.144z M202.162,90.144h-3.118V79.245h3.118V90.144z M210.983,90.144h-3.115V79.245h3.115
	V90.144z M220.062,87.028c-1.289,0-2.333-1.046-2.333-2.336c0-1.29,1.044-2.333,2.333-2.333c1.29,0,2.336,1.043,2.336,2.333
	C222.398,85.982,221.352,87.028,220.062,87.028z M227.382,87.028c-1.29,0-2.336-1.046-2.336-2.336c0-1.29,1.046-2.333,2.336-2.333
	s2.336,1.043,2.336,2.333C229.718,85.982,228.672,87.028,227.382,87.028z M234.701,87.028c-1.293,0-2.336-1.046-2.336-2.336
	c0-1.29,1.043-2.333,2.336-2.333c1.289,0,2.333,1.043,2.333,2.333C237.034,85.982,235.99,87.028,234.701,87.028z M252.755,90.144
	c-3.014,0-5.448-2.44-5.448-5.451c0-3.01,2.435-5.448,5.448-5.448c3.013,0,5.447,2.438,5.447,5.448
	C258.202,87.703,255.764,90.144,252.755,90.144z"/>
<rect x="216.817" y="97.145" width="8.563" height="6.645"/>
<rect x="182.83" y="111.936" width="22.601" height="8.303"/>
<rect x="235.996" y="111.936" width="23.374" height="8.303"/>
<path d="M231.636,109.277h-2.622v-1.129c0-1.198-0.98-2.18-2.183-2.18h-11.466c-1.202,0-2.183,0.981-2.183,2.18v1.129h-3.394
	c-1.199,0-2.18,0.98-2.18,2.18v9.264c0,1.199,0.98,2.183,2.18,2.183h21.847c1.199,0,2.18-0.983,2.18-2.183v-9.264
	C233.813,110.256,232.836,109.277,231.636,109.277z"/>
</svg>
