<?xml version="1.0" encoding="utf-8"?>
<!-- Generator: Adobe Illustrator 16.0.0, SVG Export Plug-In . SVG Version: 6.00 Build 0)  -->
<!DOCTYPE svg PUBLIC "-//W3C//DTD SVG 1.1//EN" "http://www.w3.org/Graphics/SVG/1.1/DTD/svg11.dtd">
<svg version="1.1" id="Layer_1" xmlns="http://www.w3.org/2000/svg" xmlns:xlink="http://www.w3.org/1999/xlink" x="0px" y="0px"
	 width="71.46px" height="45px" viewBox="185.368 51.198 71.46 45" enable-background="new 185.368 51.198 71.46 45"
	 xml:space="preserve">
<circle cx="226.294" cy="56.569" r="1.485"/>
<path d="M188.589,61.937h42.669c1.777,0,3.222-1.441,3.222-3.222v-4.294c0-1.778-1.442-3.223-3.222-3.223h-42.669
	c-1.778,0-3.221,1.442-3.221,3.223v4.294C185.368,60.495,186.809,61.937,188.589,61.937z M226.294,53.751
	c1.557,0,2.817,1.261,2.817,2.819c0,1.556-1.261,2.816-2.817,2.816c-1.556,0-2.818-1.261-2.818-2.816
	C223.476,55.012,224.738,53.751,226.294,53.751z M216.956,55.363c0.666,0,1.207,0.541,1.207,1.208c0,0.668-0.542,1.207-1.207,1.207
	c-0.666,0-1.208-0.542-1.208-1.207C215.748,55.902,216.288,55.363,216.956,55.363z M213.172,55.363c0.667,0,1.206,0.541,1.206,1.208
	c0,0.668-0.541,1.207-1.206,1.207c-0.668,0-1.208-0.542-1.208-1.207C211.964,55.902,212.504,55.363,213.172,55.363z M209.387,55.363
	c0.667,0,1.208,0.541,1.208,1.208c0,0.668-0.541,1.207-1.208,1.207s-1.207-0.542-1.207-1.207
	C208.18,55.902,208.719,55.363,209.387,55.363z M203.079,53.751h1.61v5.636h-1.61V53.751z M198.519,53.751h1.609v5.636h-1.609
	V53.751z M193.956,53.751h1.61v5.636h-1.61V53.751z M189.394,53.751h1.609v5.636h-1.609V53.751z"/>
<path d="M188.589,74.818h29.147l7.162-10.731h-36.312c-1.777,0-3.219,1.44-3.219,3.22v4.296
	C185.368,73.376,186.809,74.818,188.589,74.818z M216.956,68.243c0.666,0,1.207,0.541,1.207,1.207c0,0.669-0.542,1.207-1.207,1.207
	c-0.666,0-1.208-0.54-1.208-1.207C215.748,68.784,216.288,68.243,216.956,68.243z M213.172,68.243c0.667,0,1.206,0.541,1.206,1.207
	c0,0.669-0.541,1.207-1.206,1.207c-0.668,0-1.208-0.54-1.208-1.207C211.964,68.784,212.504,68.243,213.172,68.243z M209.387,68.243
	c0.667,0,1.208,0.541,1.208,1.207c0,0.669-0.541,1.207-1.208,1.207s-1.207-0.54-1.207-1.207
	C208.18,68.784,208.719,68.243,209.387,68.243z M203.079,66.634h1.61v5.636h-1.61V66.634z M198.519,66.634h1.609v5.636h-1.609
	V66.634z M193.956,66.634h1.61v5.636h-1.61V66.634z M189.394,66.634h1.609v5.636h-1.609V66.634z"/>
<path d="M188.589,76.965c-1.778,0-3.221,1.441-3.221,3.222v4.294c0,1.778,1.44,3.222,3.221,3.222h38.596l-10.16-10.734h-28.436
	V76.965z M191.003,85.151h-1.609v-5.636h1.609V85.151z M195.565,85.151h-1.611v-5.636h1.611V85.151z M200.128,85.151h-1.61v-5.636
	h1.61V85.151z M204.69,85.151h-1.61v-5.636h1.61V85.151z M209.387,83.54c-0.667,0-1.207-0.542-1.207-1.209
	c0-0.665,0.54-1.207,1.207-1.207s1.208,0.543,1.208,1.207C210.594,83,210.053,83.54,209.387,83.54z M213.172,83.54
	c-0.668,0-1.208-0.542-1.208-1.209c0-0.665,0.54-1.207,1.208-1.207c0.667,0,1.206,0.543,1.206,1.207
	C214.378,83,213.839,83.54,213.172,83.54z M218.163,82.331c0,0.669-0.542,1.209-1.207,1.209s-1.207-0.542-1.207-1.209
	c0-0.665,0.542-1.207,1.207-1.207S218.163,81.666,218.163,82.331z"/>
<path d="M249.604,65.473h-23.209l-7.228,10.83l18.831,19.896l18.83-19.896L249.604,65.473z M248.376,67.764l4.846,7.266h-5.996
	l-4.36-7.266H248.376z M240.192,67.764l4.359,7.266h-13.104l4.359-7.266H240.192z M227.62,67.764h5.511l-4.358,7.266h-5.999
	L227.62,67.764z M223.296,77.324h5.397l5.266,11.266L223.296,77.324z M231.224,77.324h13.551l-6.776,14.495L231.224,77.324z
	 M242.042,88.591l5.266-11.267h5.396L242.042,88.591z"/>
</svg>
