<?xml version="1.0" encoding="utf-8"?>
<!-- Generator: Adobe Illustrator 16.0.0, SVG Export Plug-In . SVG Version: 6.00 Build 0)  -->
<!DOCTYPE svg PUBLIC "-//W3C//DTD SVG 1.1//EN" "http://www.w3.org/Graphics/SVG/1.1/DTD/svg11.dtd">
<svg version="1.1" id="Layer_1" xmlns="http://www.w3.org/2000/svg" xmlns:xlink="http://www.w3.org/1999/xlink" x="0px" y="0px"
	 width="132.045px" height="83.151px" viewBox="155.076 32.125 132.045 83.151"
	 style="enable-background:new 155.076 32.125 132.045 83.151;" xml:space="preserve">
<circle cx="230.698" cy="42.046" r="2.744"/>
<path d="M161.026,51.964h78.845c3.285,0,5.953-2.662,5.953-5.953v-7.935c0-3.285-2.665-5.953-5.953-5.953h-78.845
	c-3.285,0-5.95,2.665-5.95,5.953v7.935C155.076,49.302,157.738,51.964,161.026,51.964z M230.698,36.839
	c2.877,0,5.207,2.33,5.207,5.21c0,2.874-2.33,5.204-5.207,5.204c-2.874,0-5.207-2.33-5.207-5.204
	C225.491,39.169,227.824,36.839,230.698,36.839z M213.444,39.818c1.232,0,2.23,0.998,2.23,2.231c0,1.233-1.001,2.23-2.23,2.23
	c-1.23,0-2.231-1-2.231-2.23C211.213,40.813,212.211,39.818,213.444,39.818z M206.451,39.818c1.233,0,2.23,0.998,2.23,2.231
	c0,1.233-1,2.23-2.23,2.23c-1.233,0-2.231-1-2.231-2.23C204.219,40.813,205.218,39.818,206.451,39.818z M199.458,39.818
	c1.233,0,2.233,0.998,2.233,2.231c0,1.233-1,2.23-2.233,2.23s-2.23-1-2.23-2.23C197.227,40.813,198.224,39.818,199.458,39.818z
	 M187.802,36.839h2.977v10.414h-2.977V36.839z M179.375,36.839h2.974v10.414h-2.974V36.839z M170.944,36.839h2.977v10.414h-2.977
	V36.839z M162.514,36.839h2.974v10.414h-2.974V36.839z"/>
<path d="M161.026,75.767h53.86l13.235-19.831h-67.096c-3.285,0-5.95,2.662-5.95,5.95v7.937
	C155.076,73.102,157.738,75.767,161.026,75.767z M213.444,63.617c1.232,0,2.23,1,2.23,2.231c0,1.236-1.001,2.231-2.23,2.231
	c-1.23,0-2.231-0.998-2.231-2.231C211.213,64.618,212.211,63.617,213.444,63.617z M206.451,63.617c1.233,0,2.23,1,2.23,2.231
	c0,1.236-1,2.231-2.23,2.231c-1.233,0-2.231-0.998-2.231-2.231C204.219,64.618,205.218,63.617,206.451,63.617z M199.458,63.617
	c1.233,0,2.233,1,2.233,2.231c0,1.236-1,2.231-2.233,2.231s-2.23-0.998-2.23-2.231C197.227,64.618,198.224,63.617,199.458,63.617z
	 M187.802,60.644h2.977v10.415h-2.977V60.644z M179.375,60.644h2.974v10.415h-2.974V60.644z M170.944,60.644h2.977v10.415h-2.977
	V60.644z M162.514,60.644h2.974v10.415h-2.974V60.644z"/>
<path d="M161.026,79.735c-3.285,0-5.95,2.662-5.95,5.953v7.934c0,3.286,2.662,5.953,5.95,5.953h71.319l-18.774-19.836h-52.545
	V79.735z M165.488,94.86h-2.974V84.446h2.974V94.86z M173.918,94.86h-2.977V84.446h2.977V94.86z M182.348,94.86h-2.974V84.446h2.974
	V94.86z M190.781,94.86h-2.977V84.446h2.977V94.86z M199.458,91.884c-1.233,0-2.23-1.001-2.23-2.234c0-1.23,0.997-2.231,2.23-2.231
	s2.233,1.003,2.233,2.231C201.688,90.886,200.688,91.884,199.458,91.884z M206.451,91.884c-1.233,0-2.231-1.001-2.231-2.234
	c0-1.23,0.998-2.231,2.231-2.231s2.23,1.003,2.23,2.231C208.681,90.886,207.684,91.884,206.451,91.884z M215.675,89.65
	c0,1.236-1.001,2.234-2.23,2.234c-1.23,0-2.231-1.001-2.231-2.234c0-1.23,1.001-2.231,2.231-2.231
	C214.674,87.419,215.675,88.42,215.675,89.65z"/>
<path d="M273.77,58.498h-42.885L217.531,78.51l34.795,36.765l34.795-36.765L273.77,58.498z M271.503,62.733l8.954,13.425h-11.08
	l-8.057-13.425H271.503z M256.38,62.733l8.056,13.425h-24.213l8.056-13.425H256.38z M233.15,62.733h10.182l-8.053,13.425h-11.084
	L233.15,62.733z M225.159,80.398h9.973l9.731,20.817L225.159,80.398z M239.808,80.398h25.038l-12.521,26.784L239.808,80.398z
	 M259.799,101.216l9.729-20.817h9.972L259.799,101.216z"/>
</svg>
