<?xml version="1.0" encoding="utf-8"?>
<!-- Generator: Adobe Illustrator 16.0.0, SVG Export Plug-In . SVG Version: 6.00 Build 0)  -->
<!DOCTYPE svg PUBLIC "-//W3C//DTD SVG 1.1//EN" "http://www.w3.org/Graphics/SVG/1.1/DTD/svg11.dtd">
<svg version="1.1" id="Layer_1" xmlns="http://www.w3.org/2000/svg" xmlns:xlink="http://www.w3.org/1999/xlink" x="0px" y="0px"
	 width="132.048px" height="112.537px" viewBox="155.076 17.43 132.048 112.537"
	 style="enable-background:new 155.076 17.43 132.048 112.537;" xml:space="preserve">
<circle cx="230.698" cy="56.74" r="2.744"/>
<path d="M161.026,66.656h78.848c3.285,0,5.953-2.665,5.953-5.95v-7.934c0-3.285-2.665-5.953-5.953-5.953h-78.848
	c-3.285,0-5.95,2.665-5.95,5.953v7.934C155.076,63.991,157.738,66.656,161.026,66.656z M230.698,51.533
	c2.874,0,5.207,2.33,5.207,5.208c0,2.877-2.333,5.207-5.207,5.207c-2.877,0-5.21-2.33-5.21-5.207
	C225.488,53.863,227.824,51.533,230.698,51.533z M213.441,54.507c1.235,0,2.23,0.998,2.23,2.231c0,1.233-0.998,2.231-2.23,2.231
	c-1.23,0-2.231-1.001-2.231-2.231C211.213,55.507,212.211,54.507,213.441,54.507z M206.451,54.507c1.233,0,2.233,0.998,2.233,2.231
	c0,1.233-1,2.231-2.233,2.231s-2.231-1.001-2.231-2.231C204.218,55.507,205.218,54.507,206.451,54.507z M199.458,54.507
	c1.233,0,2.23,0.998,2.23,2.231c0,1.233-0.997,2.231-2.23,2.231s-2.233-1.001-2.233-2.231
	C197.224,55.507,198.224,54.507,199.458,54.507z M187.802,51.533h2.977v10.415h-2.977V51.533z M179.372,51.533h2.977v10.415h-2.977
	V51.533z M170.944,51.533h2.977v10.415h-2.977V51.533z M162.514,51.533h2.974v10.415h-2.974V51.533z"/>
<path d="M161.026,90.458h53.86l13.237-19.833h-67.098c-3.285,0-5.95,2.662-5.95,5.95v7.937
	C155.076,87.796,157.738,90.458,161.026,90.458z M213.441,78.309c1.235,0,2.23,1,2.23,2.231c0,1.233-0.998,2.233-2.23,2.233
	c-1.23,0-2.231-1-2.231-2.233C211.213,79.31,212.211,78.309,213.441,78.309z M206.451,78.309c1.233,0,2.233,1,2.233,2.231
	c0,1.233-1,2.233-2.233,2.233s-2.231-1-2.231-2.233C204.218,79.31,205.218,78.309,206.451,78.309z M199.458,78.309
	c1.233,0,2.23,1,2.23,2.231c0,1.233-0.997,2.233-2.23,2.233s-2.233-1-2.233-2.233C197.224,79.31,198.224,78.309,199.458,78.309z
	 M187.802,75.335h2.977V85.75h-2.977V75.335z M179.372,75.335h2.977V85.75h-2.977V75.335z M170.944,75.335h2.977V85.75h-2.977
	V75.335z M162.514,75.335h2.974V85.75h-2.974V75.335z"/>
<path d="M161.026,94.427c-3.285,0-5.95,2.665-5.95,5.952v7.935c0,3.285,2.665,5.95,5.95,5.95h71.319l-18.774-19.837H161.026z
	 M165.488,109.549h-2.974V99.135h2.974V109.549z M173.918,109.549h-2.977V99.135h2.977V109.549z M182.351,109.549h-2.977V99.135
	h2.977V109.549z M190.778,109.549h-2.977V99.135h2.977V109.549z M199.458,106.576c-1.233,0-2.233-0.998-2.233-2.23
	c0-1.234,1-2.231,2.233-2.231s2.23,1.001,2.23,2.231C201.688,105.578,200.691,106.576,199.458,106.576z M206.451,106.576
	c-1.233,0-2.231-0.998-2.231-2.23c0-1.234,1.001-2.231,2.231-2.231c1.233,0,2.233,1.001,2.233,2.231
	C208.681,105.578,207.684,106.576,206.451,106.576z M215.672,104.346c0,1.235-0.998,2.23-2.23,2.23c-1.23,0-2.231-0.998-2.231-2.23
	c0-1.234,1.001-2.231,2.231-2.231C214.677,102.111,215.672,103.111,215.672,104.346z"/>
<path d="M196.468,37.811l2.228,0.008l0.213-1.996c0.813-7.619,7.208-13.368,14.885-13.368c4.17,0,8.188,1.777,11.029,4.878
	l1.423,1.554l1.633-1.333c4.473-3.651,10.119-5.661,15.888-5.661c13.876,0,25.163,11.288,25.163,25.16
	c0,9.768-5.599,18.244-13.751,22.408h7.869c6.318-5.428,10.341-13.442,10.341-22.408c0-16.333-13.289-29.625-29.625-29.625
	c-6.128,0-12.129,1.925-17.112,5.451c-3.543-3.129-8.124-4.893-12.86-4.893c-9.307,0-17.167,6.511-19.018,15.435
	c-7.458,0.621-13.839,5.043-17.234,11.31h5.281C185.948,40.546,190.912,37.814,196.468,37.811z"/>
<path d="M273.773,73.187h-42.885l-13.354,20.012l34.795,36.768l34.795-36.768L273.773,73.187z M271.506,77.428l8.954,13.424h-11.077
	l-8.057-13.424H271.506z M256.383,77.428l8.056,13.424h-24.216l8.056-13.424H256.383z M233.15,77.428h10.182l-8.056,13.424h-11.081
	L233.15,77.428z M225.156,95.09h9.973l9.734,20.814L225.156,95.09z M239.808,95.09h25.038l-12.518,26.787L239.808,95.09z
	 M259.799,115.904l9.729-20.814h9.975L259.799,115.904z"/>
</svg>
