<?xml version="1.0" encoding="utf-8"?>
<!-- Generator: Adobe Illustrator 16.0.0, SVG Export Plug-In . SVG Version: 6.00 Build 0)  -->
<!DOCTYPE svg PUBLIC "-//W3C//DTD SVG 1.1//EN" "http://www.w3.org/Graphics/SVG/1.1/DTD/svg11.dtd">
<svg version="1.1" id="Layer_1" xmlns="http://www.w3.org/2000/svg" xmlns:xlink="http://www.w3.org/1999/xlink" x="0px" y="0px"
	 width="60.633px" height="45px" viewBox="190.78 51.199 60.633 45" enable-background="new 190.78 51.199 60.633 45"
	 xml:space="preserve">
<path d="M213.716,86.734c0.292-0.621,0.51-1.257,0.662-1.901l4.391-0.844l-0.46-5.25l-4.482-0.069
	c-0.527-1.223-1.298-2.342-2.291-3.278l1.469-4.229l-4.778-2.23l-2.297,3.846c-1.354-0.16-2.708-0.03-3.982,0.354l-2.937-3.392
	l-4.317,3.021l2.18,3.905c-0.394,0.531-0.743,1.108-1.035,1.731c-0.289,0.622-0.509,1.258-0.661,1.902l-4.396,0.845l0.46,5.25
	l4.486,0.066c0.525,1.226,1.297,2.345,2.288,3.28l-1.469,4.232l4.779,2.225l2.296-3.842c1.354,0.161,2.71,0.029,3.985-0.355
	l2.935,3.395l4.317-3.022l-2.179-3.905C213.077,87.936,213.425,87.358,213.716,86.734z M209.305,84.68
	c-1.167,2.5-4.14,3.582-6.641,2.414c-2.499-1.166-3.582-4.138-2.415-6.641c1.165-2.5,4.138-3.582,6.641-2.416
	C209.389,79.205,210.472,82.178,209.305,84.68z"/>
<circle cx="204.777" cy="82.568" r="3.206"/>
<circle cx="242.754" cy="56.876" r="1.571"/>
<path d="M248.006,51.199H202.86c-1.881,0-3.407,1.526-3.407,3.407v4.543c0,1.882,1.526,3.409,3.407,3.409h45.146
	c1.883,0,3.407-1.524,3.407-3.409v-4.543C251.413,52.726,249.888,51.199,248.006,51.199z M205.415,59.858h-1.702v-5.964h1.702
	V59.858z M210.244,59.858h-1.704v-5.964h1.704V59.858z M215.068,59.858h-1.702v-5.964h1.702V59.858z M219.896,59.858h-1.705v-5.964
	h1.705V59.858z M224.866,58.156c-0.706,0-1.278-0.574-1.278-1.277c0-0.707,0.572-1.278,1.278-1.278c0.705,0,1.276,0.572,1.276,1.278
	C226.143,57.583,225.57,58.156,224.866,58.156z M228.87,58.156c-0.705,0-1.277-0.574-1.277-1.277c0-0.707,0.573-1.278,1.277-1.278
	s1.279,0.572,1.279,1.278C230.147,57.583,229.574,58.156,228.87,58.156z M232.874,58.156c-0.707,0-1.278-0.574-1.278-1.277
	c0-0.707,0.571-1.278,1.278-1.278c0.706,0,1.277,0.572,1.277,1.278C234.151,57.583,233.58,58.156,232.874,58.156z M242.754,59.858
	c-1.647,0-2.981-1.335-2.981-2.98c0-1.647,1.336-2.983,2.981-2.983s2.981,1.336,2.981,2.983
	C245.735,58.523,244.401,59.858,242.754,59.858z"/>
<circle cx="242.754" cy="70.508" r="1.571"/>
<circle cx="242.754" cy="84.135" r="1.571"/>
<path d="M248.006,64.83H202.86c-1.593,0-2.92,1.097-3.294,2.576l3.078,3.554c0.709-0.129,1.427-0.195,2.146-0.195
	c0.024,0,0.049,0,0.073,0l2.59-4.34l7.966,3.715l-1.657,4.773c0.341,0.398,0.643,0.83,0.927,1.272h33.315
	c1.883,0,3.407-1.525,3.407-3.406v-4.543C251.413,66.353,249.888,64.83,248.006,64.83z M219.896,73.49h-1.705v-5.963h1.705V73.49z
	 M224.866,71.784c-0.706,0-1.278-0.571-1.278-1.276c0-0.704,0.572-1.277,1.278-1.277c0.705,0,1.276,0.574,1.276,1.277
	C226.143,71.212,225.57,71.784,224.866,71.784z M228.87,71.784c-0.705,0-1.277-0.571-1.277-1.276c0-0.704,0.573-1.277,1.277-1.277
	s1.279,0.574,1.279,1.277C230.147,71.212,229.574,71.784,228.87,71.784z M232.874,71.784c-0.707,0-1.278-0.571-1.278-1.276
	c0-0.704,0.571-1.277,1.278-1.277c0.706,0,1.277,0.574,1.277,1.277C234.151,71.212,233.58,71.784,232.874,71.784z M242.754,73.49
	c-1.647,0-2.981-1.334-2.981-2.982c0-1.646,1.336-2.98,2.981-2.98s2.981,1.334,2.981,2.98S244.401,73.49,242.754,73.49z"/>
<path d="M248.006,78.457H220.24l0.622,7.114l-4.958,0.951c-0.124,0.352-0.268,0.699-0.425,1.036
	c-0.159,0.34-0.332,0.671-0.521,0.994l0.704,1.262h32.343c1.883,0,3.406-1.523,3.406-3.407v-4.544
	C251.413,79.983,249.888,78.457,248.006,78.457z M224.866,85.415c-0.706,0-1.278-0.575-1.278-1.278c0-0.704,0.572-1.277,1.278-1.277
	c0.705,0,1.276,0.572,1.276,1.277C226.143,84.839,225.57,85.415,224.866,85.415z M228.87,85.415c-0.705,0-1.277-0.575-1.277-1.278
	c0-0.704,0.573-1.277,1.277-1.277s1.279,0.572,1.279,1.277C230.149,84.839,229.574,85.415,228.87,85.415z M232.874,85.415
	c-0.707,0-1.278-0.575-1.278-1.278c0-0.704,0.571-1.277,1.278-1.277c0.706,0,1.277,0.572,1.277,1.277
	C234.151,84.839,233.58,85.415,232.874,85.415z M242.754,87.118c-1.647,0-2.981-1.334-2.981-2.981s1.336-2.982,2.981-2.982
	s2.981,1.334,2.981,2.982C245.735,85.784,244.401,87.118,242.754,87.118z"/>
</svg>
