<?xml version="1.0" encoding="utf-8"?>
<!-- Generator: Adobe Illustrator 16.0.0, SVG Export Plug-In . SVG Version: 6.00 Build 0)  -->
<!DOCTYPE svg PUBLIC "-//W3C//DTD SVG 1.1//EN" "http://www.w3.org/Graphics/SVG/1.1/DTD/svg11.dtd">
<svg version="1.1" id="Layer_1" xmlns="http://www.w3.org/2000/svg" xmlns:xlink="http://www.w3.org/1999/xlink" x="0px" y="0px"
	 width="105.888px" height="78.589px" viewBox="168.152 34.404 105.888 78.589"
	 style="enable-background:new 168.152 34.404 105.888 78.589;" xml:space="preserve">
<path d="M208.206,96.465c0.51-1.086,0.89-2.197,1.156-3.322l7.668-1.474l-0.803-9.167l-7.829-0.122c-0.921-2.137-2.265-4.09-4-5.726
	l2.565-7.387l-8.345-3.895l-4.011,6.718c-2.364-0.281-4.729-0.054-6.956,0.618l-5.128-5.924l-7.54,5.278l3.807,6.82
	c-0.688,0.927-1.299,1.936-1.809,3.024c-0.505,1.085-0.888,2.197-1.153,3.322l-7.677,1.474l0.803,9.171l7.835,0.115
	c0.918,2.141,2.265,4.096,3.996,5.729l-2.565,7.391l8.346,3.886l4.011-6.71c2.364,0.281,4.731,0.052,6.959-0.62l5.125,5.927
	l7.54-5.277l-3.804-6.82C207.092,98.563,207.698,97.553,208.206,96.465z M200.504,92.876c-2.038,4.368-7.229,6.257-11.597,4.218
	c-4.365-2.037-6.256-7.228-4.218-11.599c2.035-4.365,7.226-6.256,11.597-4.218C200.651,83.315,202.542,88.508,200.504,92.876z"/>
<circle cx="192.595" cy="89.188" r="5.599"/>
<circle cx="258.92" cy="44.319" r="2.744"/>
<path d="M268.093,34.404h-78.845c-3.285,0-5.95,2.665-5.95,5.95v7.934c0,3.288,2.665,5.953,5.95,5.953h78.845
	c3.288,0,5.949-2.662,5.949-5.953v-7.934C274.042,37.071,271.381,34.404,268.093,34.404z M193.709,49.526h-2.973V39.112h2.973
	V49.526z M202.142,49.526h-2.974V39.112h2.974V49.526z M210.569,49.526h-2.973V39.112h2.973V49.526z M219,49.526h-2.977V39.112H219
	V49.526z M227.679,46.553c-1.233,0-2.231-1.003-2.231-2.23c0-1.236,0.998-2.231,2.231-2.231c1.232,0,2.23,0.998,2.23,2.231
	C229.91,45.552,228.91,46.553,227.679,46.553z M234.673,46.553c-1.233,0-2.231-1.003-2.231-2.23c0-1.236,1.001-2.231,2.231-2.231
	c1.229,0,2.233,0.998,2.233,2.231C236.903,45.552,235.902,46.553,234.673,46.553z M241.665,46.553c-1.235,0-2.233-1.003-2.233-2.23
	c0-1.236,0.998-2.231,2.233-2.231c1.233,0,2.231,0.998,2.231,2.231C243.896,45.552,242.898,46.553,241.665,46.553z M258.92,49.526
	c-2.877,0-5.207-2.33-5.207-5.204c0-2.877,2.333-5.21,5.207-5.21s5.207,2.333,5.207,5.21
	C264.127,47.196,261.797,49.526,258.92,49.526z"/>
<circle cx="258.92" cy="68.127" r="2.744"/>
<circle cx="258.92" cy="91.926" r="2.744"/>
<path d="M268.093,58.209h-78.845c-2.781,0-5.1,1.916-5.752,4.499l5.375,6.208c1.238-0.227,2.491-0.343,3.747-0.343
	c0.042,0,0.085,0,0.128,0l4.523-7.58l13.912,6.489l-2.894,8.336c0.595,0.697,1.122,1.451,1.618,2.223h58.184
	c3.288,0,5.95-2.665,5.95-5.95v-7.934C274.042,60.871,271.381,58.209,268.093,58.209z M219,73.334h-2.977V62.92H219V73.334z
	 M227.679,70.355c-1.233,0-2.231-0.998-2.231-2.23c0-1.23,0.998-2.231,2.231-2.231c1.232,0,2.23,1.003,2.23,2.231
	C229.91,69.357,228.91,70.355,227.679,70.355z M234.673,70.355c-1.233,0-2.231-0.998-2.231-2.23c0-1.23,1.001-2.231,2.231-2.231
	c1.229,0,2.233,1.003,2.233,2.231C236.903,69.357,235.902,70.355,234.673,70.355z M241.665,70.355c-1.235,0-2.233-0.998-2.233-2.23
	c0-1.23,0.998-2.231,2.233-2.231c1.233,0,2.231,1.003,2.231,2.231C243.896,69.357,242.898,70.355,241.665,70.355z M258.92,73.334
	c-2.877,0-5.207-2.33-5.207-5.21c0-2.875,2.333-5.205,5.207-5.205s5.207,2.33,5.207,5.205
	C264.127,71.001,261.797,73.334,258.92,73.334z"/>
<path d="M268.093,82.008H219.6l1.086,12.424l-8.657,1.661c-0.218,0.615-0.468,1.222-0.742,1.811
	c-0.278,0.593-0.581,1.172-0.91,1.735l1.23,2.205h56.485c3.288,0,5.949-2.661,5.949-5.952v-7.935
	C274.042,84.673,271.381,82.008,268.093,82.008z M227.679,94.16c-1.233,0-2.231-1.004-2.231-2.233c0-1.23,0.998-2.231,2.231-2.231
	c1.232,0,2.23,1,2.23,2.231C229.91,93.156,228.91,94.16,227.679,94.16z M234.673,94.16c-1.233,0-2.231-1.004-2.231-2.233
	c0-1.23,1.001-2.231,2.231-2.231c1.229,0,2.233,1,2.233,2.231C236.906,93.156,235.902,94.16,234.673,94.16z M241.665,94.16
	c-1.235,0-2.233-1.004-2.233-2.233c0-1.23,0.998-2.231,2.233-2.231c1.233,0,2.231,1,2.231,2.231
	C243.896,93.156,242.898,94.16,241.665,94.16z M258.92,97.134c-2.877,0-5.207-2.33-5.207-5.207c0-2.877,2.333-5.208,5.207-5.208
	s5.207,2.33,5.207,5.208C264.127,94.804,261.797,97.134,258.92,97.134z"/>
</svg>
