<?xml version="1.0" encoding="utf-8"?>
<!-- Generator: Adobe Illustrator 16.0.0, SVG Export Plug-In . SVG Version: 6.00 Build 0)  -->
<!DOCTYPE svg PUBLIC "-//W3C//DTD SVG 1.1//EN" "http://www.w3.org/Graphics/SVG/1.1/DTD/svg11.dtd">
<svg version="1.1" id="Layer_1" xmlns="http://www.w3.org/2000/svg" xmlns:xlink="http://www.w3.org/1999/xlink" x="0px" y="0px"
	 width="118.311px" height="96.828px" viewBox="161.942 25.288 118.311 96.828"
	 style="enable-background:new 161.942 25.288 118.311 96.828;" xml:space="preserve">
<circle cx="237.566" cy="64.59" r="2.741"/>
<path d="M246.739,54.674h-78.848c-3.285,0-5.949,2.662-5.949,5.95v7.934c0,3.285,2.664,5.95,5.949,5.95h78.845
	c3.288,0,5.95-2.662,5.95-5.95v-7.934C252.689,57.338,250.027,54.674,246.739,54.674z M172.356,69.794h-2.977V59.382h2.974v10.412
	H172.356z M180.786,69.794h-2.974V59.382h2.974V69.794z M189.217,69.794h-2.974V59.382h2.974V69.794z M197.646,69.794h-2.977V59.382
	h2.977V69.794z M206.326,66.82c-1.232,0-2.23-1-2.23-2.231c0-1.236,0.997-2.23,2.23-2.23s2.231,0.998,2.231,2.23
	C208.557,65.823,207.556,66.82,206.326,66.82z M213.316,66.82c-1.233,0-2.23-1-2.23-2.231c0-1.236,1-2.23,2.23-2.23
	s2.233,0.998,2.233,2.23C215.55,65.823,214.55,66.82,213.316,66.82z M220.312,66.82c-1.236,0-2.233-1-2.233-2.231
	c0-1.236,0.997-2.23,2.233-2.23c1.232,0,2.23,0.998,2.23,2.23C222.543,65.823,221.545,66.82,220.312,66.82z M237.566,69.794
	c-2.877,0-5.207-2.327-5.207-5.205c0-2.874,2.333-5.207,5.207-5.207s5.207,2.333,5.207,5.207
	C242.773,67.467,240.443,69.794,237.566,69.794z"/>
<circle cx="237.566" cy="88.395" r="2.744"/>
<path d="M246.739,78.477h-78.848c-3.285,0-5.949,2.662-5.949,5.953v7.934c0,3.282,2.664,5.953,5.949,5.953h78.845
	c3.288,0,5.95-2.668,5.95-5.953v-7.934C252.689,81.138,250.027,78.477,246.739,78.477z M172.356,93.602h-2.977V83.188h2.974v10.414
	H172.356z M180.786,93.602h-2.974V83.188h2.974V93.602z M189.217,93.602h-2.974V83.188h2.974V93.602z M197.646,93.602h-2.977V83.188
	h2.977V93.602z M206.326,90.623c-1.232,0-2.23-0.998-2.23-2.231c0-1.23,0.997-2.23,2.23-2.23s2.231,1.003,2.231,2.23
	C208.557,89.625,207.556,90.623,206.326,90.623z M213.316,90.623c-1.233,0-2.23-0.998-2.23-2.231c0-1.23,1-2.23,2.23-2.23
	s2.233,1.003,2.233,2.23C215.55,89.625,214.55,90.623,213.316,90.623z M220.312,90.623c-1.236,0-2.233-0.998-2.233-2.231
	c0-1.23,0.997-2.23,2.233-2.23c1.232,0,2.23,1.003,2.23,2.23C222.543,89.625,221.545,90.623,220.312,90.623z M237.566,93.602
	c-2.877,0-5.207-2.33-5.207-5.21c0-2.874,2.333-5.204,5.207-5.204s5.207,2.33,5.207,5.204
	C242.773,91.269,240.443,93.602,237.566,93.602z"/>
<circle cx="237.566" cy="112.194" r="2.744"/>
<path d="M246.739,102.275h-78.848c-3.285,0-5.949,2.665-5.949,5.953v7.934c0,3.289,2.664,5.953,5.949,5.953h78.845
	c3.288,0,5.95-2.662,5.95-5.953v-7.934C252.689,104.94,250.027,102.275,246.739,102.275z M172.356,117.401h-2.977v-10.415h2.974
	v10.415H172.356z M180.786,117.401h-2.974v-10.415h2.974V117.401z M189.217,117.401h-2.974v-10.415h2.974V117.401z M197.646,117.401
	h-2.977v-10.415h2.977V117.401z M206.326,114.428c-1.232,0-2.23-1.004-2.23-2.23c0-1.236,0.997-2.231,2.23-2.231
	s2.231,0.998,2.231,2.231C208.557,113.428,207.556,114.428,206.326,114.428z M213.316,114.428c-1.233,0-2.23-1.004-2.23-2.23
	c0-1.236,1-2.231,2.23-2.231s2.233,0.998,2.233,2.231C215.55,113.428,214.55,114.428,213.316,114.428z M220.312,114.428
	c-1.236,0-2.233-1.004-2.233-2.23c0-1.236,0.997-2.231,2.233-2.231c1.232,0,2.23,0.998,2.23,2.231
	C222.543,113.428,221.545,114.428,220.312,114.428z M237.566,117.401c-2.877,0-5.207-2.33-5.207-5.204
	c0-2.881,2.333-5.211,5.207-5.211s5.207,2.33,5.207,5.211C242.773,115.071,240.443,117.401,237.566,117.401z"/>
<path d="M250.632,25.288c-6.129,0-12.133,1.922-17.116,5.448c-3.54-3.129-8.124-4.89-12.86-4.89
	c-9.306,0-17.164,6.511-19.018,15.432c-7.458,0.624-13.836,5.045-17.231,11.31h5.278c3.129-4.192,8.09-6.922,13.648-6.928
	l2.228,0.011l0.213-1.999c0.811-7.619,7.209-13.365,14.882-13.365c4.17,0,8.192,1.777,11.029,4.878l1.423,1.556l1.633-1.335
	c4.477-3.648,10.117-5.658,15.889-5.658c13.875,0,25.159,11.288,25.159,25.157c0,12.955-9.844,23.652-22.444,25.013
	c0.848,1.23,1.361,2.696,1.406,4.292c14.386-2.016,25.503-14.366,25.503-29.305C280.259,38.573,266.969,25.288,250.632,25.288z"/>
</svg>
