<?xml version="1.0" encoding="utf-8"?>
<!-- Generator: Adobe Illustrator 16.0.0, SVG Export Plug-In . SVG Version: 6.00 Build 0)  -->
<!DOCTYPE svg PUBLIC "-//W3C//DTD SVG 1.1//EN" "http://www.w3.org/Graphics/SVG/1.1/DTD/svg11.dtd">
<svg version="1.1" id="Layer_1" xmlns="http://www.w3.org/2000/svg" xmlns:xlink="http://www.w3.org/1999/xlink" x="0px" y="0px"
	 width="60.554px" height="45px" viewBox="14.155 14.786 60.554 45" enable-background="new 14.155 14.786 60.554 45"
	 xml:space="preserve">
<circle cx="64.619" cy="21.404" r="1.832"/>
<path d="M70.74,14.786H18.125c-2.192,0-3.971,1.777-3.971,3.97v5.295c0,2.194,1.777,3.971,3.971,3.971h52.613
	c2.193,0,3.971-1.775,3.971-3.971v-5.295C74.709,16.563,72.934,14.786,70.74,14.786z M21.106,24.878h-1.984V17.93h1.984V24.878z
	 M26.731,24.878h-1.985V17.93h1.985V24.878z M32.357,24.878h-1.989V17.93h1.989V24.878z M37.981,24.878h-1.985V17.93h1.985V24.878z
	 M43.771,22.891c-0.822,0-1.488-0.665-1.488-1.487c0-0.823,0.666-1.489,1.488-1.489s1.49,0.667,1.49,1.489
	S44.593,22.891,43.771,22.891z M48.439,22.891c-0.824,0-1.491-0.665-1.491-1.487c0-0.823,0.667-1.489,1.491-1.489
	c0.822,0,1.488,0.667,1.488,1.489S49.262,22.891,48.439,22.891z M53.105,22.891c-0.824,0-1.488-0.665-1.488-1.487
	c0-0.823,0.664-1.489,1.488-1.489c0.822,0,1.488,0.667,1.488,1.489S53.928,22.891,53.105,22.891z M64.619,24.878
	c-1.922,0-3.475-1.554-3.475-3.474s1.553-3.474,3.475-3.474c1.92,0,3.473,1.554,3.473,3.474S66.537,24.878,64.619,24.878z"/>
<circle cx="64.619" cy="37.285" r="1.83"/>
<path d="M70.74,30.67H18.125c-2.192,0-3.971,1.777-3.971,3.969v5.295c0,2.192,1.777,3.972,3.971,3.972h52.613
	c2.193,0,3.971-1.778,3.971-3.972v-5.295C74.709,32.447,72.934,30.67,70.74,30.67z M21.106,40.761h-1.984v-6.95h1.984V40.761z
	 M26.731,40.761h-1.985v-6.95h1.985V40.761z M32.357,40.761h-1.989v-6.95h1.989V40.761z M37.981,40.761h-1.985v-6.95h1.985V40.761z
	 M43.771,38.775c-0.822,0-1.488-0.665-1.488-1.488c0-0.822,0.666-1.488,1.488-1.488s1.49,0.667,1.49,1.488
	C45.261,38.11,44.593,38.775,43.771,38.775z M48.439,38.775c-0.824,0-1.491-0.665-1.491-1.488c0-0.822,0.667-1.488,1.491-1.488
	c0.822,0,1.488,0.667,1.488,1.488C49.928,38.11,49.262,38.775,48.439,38.775z M53.105,38.775c-0.824,0-1.488-0.665-1.488-1.488
	c0-0.822,0.664-1.488,1.488-1.488c0.822,0,1.488,0.667,1.488,1.488C54.594,38.11,53.928,38.775,53.105,38.775z M64.619,40.761
	c-1.922,0-3.475-1.555-3.475-3.475c0-1.919,1.553-3.476,3.475-3.476c1.92,0,3.473,1.556,3.473,3.476S66.537,40.761,64.619,40.761z"
	/>
<circle cx="64.619" cy="53.169" r="1.83"/>
<path d="M70.74,46.551H18.125c-2.192,0-3.971,1.779-3.971,3.972v5.294c0,2.192,1.777,3.97,3.971,3.97h52.613
	c2.193,0,3.971-1.777,3.971-3.97v-5.294C74.709,48.33,72.934,46.551,70.74,46.551z M21.106,56.645h-1.984v-6.951h1.984V56.645z
	 M26.731,56.645h-1.985v-6.951h1.985V56.645z M32.357,56.645h-1.989v-6.951h1.989V56.645z M37.981,56.645h-1.985v-6.951h1.985
	V56.645z M43.771,54.658c-0.822,0-1.488-0.667-1.488-1.49c0-0.822,0.666-1.487,1.488-1.487s1.49,0.665,1.49,1.487
	C45.261,53.991,44.593,54.658,43.771,54.658z M48.439,54.658c-0.824,0-1.491-0.667-1.491-1.49c0-0.822,0.667-1.487,1.491-1.487
	c0.822,0,1.488,0.665,1.488,1.487C49.928,53.991,49.262,54.658,48.439,54.658z M53.105,54.658c-0.824,0-1.488-0.667-1.488-1.49
	c0-0.822,0.664-1.487,1.488-1.487c0.822,0,1.488,0.665,1.488,1.487C54.594,53.991,53.928,54.658,53.105,54.658z M64.619,56.645
	c-1.922,0-3.475-1.557-3.475-3.477c0-1.919,1.553-3.475,3.475-3.475c1.92,0,3.473,1.556,3.473,3.475S66.537,56.645,64.619,56.645z"
	/>
</svg>
